SplineFontDB: 3.0
FontName: PowerlineExtraSymbols
FullName: PowerlineExtraSymbols
FamilyName: PowerlineExtraSymbols
Weight: Book
Copyright: Created with FontForge 2.0 (http://fontforge.sf.net)\nMIT (c) Ryan L McIntyre (https://github.com/ryanoasis/powerline-extra-symbols)
Version: 001.000
ItalicAngle: 0
UnderlinePosition: -205
UnderlineWidth: 102
Ascent: 1638
Descent: 410
InvalidEm: 0
sfntRevision: 0x00010000
LayerCount: 2
Layer: 0 0 "Back" 1
Layer: 1 0 "Fore" 0
XUID: [1021 765 1047375010 3109348]
StyleMap: 0x0000
FSType: 8
OS2Version: 3
OS2_WeightWidthSlopeOnly: 0
OS2_UseTypoMetrics: 0
CreationTime: 1168259284
ModificationTime: 1566034175
PfmFamily: 17
TTFWeight: 400
TTFWidth: 5
LineGap: 0
VLineGap: 0
Panose: 2 11 6 9 3 8 4 2 2 4
OS2TypoAscent: 1567
OS2TypoAOffset: 0
OS2TypoDescent: -492
OS2TypoDOffset: 0
OS2TypoLinegap: 132
OS2WinAscent: 1901
OS2WinAOffset: 0
OS2WinDescent: 483
OS2WinDOffset: 0
HheadAscent: 1901
HheadAOffset: 0
HheadDescent: -483
HheadDOffset: 0
OS2SubXSize: 1434
OS2SubYSize: 1331
OS2SubXOff: 0
OS2SubYOff: 286
OS2SupXSize: 1434
OS2SupYSize: 1331
OS2SupXOff: 0
OS2SupYOff: 976
OS2StrikeYSize: 102
OS2StrikeYPos: 498
OS2CapHeight: 1462
OS2XHeight: 1098
OS2Vendor: '1ASC'
OS2CodePages: 2000019f.00000000
OS2UnicodeRanges: e00002ef.4000205b.00000028.00000000
MarkAttachClasses: 1
DEI: 91125
LangName: 1033 "MIT +AKkA Ryan L McIntyre" "" "Regular" "FontForge : PowerlineExtraSymbols : 26-6-2015" "" "Version 001.000" "" "" "" "" "Extra glyphs for your powerline separators" "https://github.com/ryanoasis/powerline-extra-symbols" "https://github.com/ryanoasis/powerline-extra-symbols" "MIT" "https://opensource.org/licenses/MIT" "" "Powerline Extra Symbols" "" "Powerline Extra Symbols"
Encoding: UnicodeBmp
UnicodeInterp: none
NameList: AGL For New Fonts
DisplaySize: -72
AntiAlias: 1
FitToEm: 0
WinInfo: 57512 8 8
BeginPrivate: 8
BlueValues 27 [-20 0 1098 1118 1462 1556]
OtherBlues 11 [-492 -492]
BlueScale 9 0.0105319
BlueShift 2 10
StdHW 4 [68]
StdVW 4 [76]

StartChar: .notdef
Encoding: 65536 -1 0
Width: 1229
Flags: W
LayerCount: 2
Fore
SplineSet
193 1462 m 1
 1034 1462 l 1
 1034 0 l 1
 193 0 l 1
 193 1462 l 1
297 104 m 1
 930 104 l 1
 930 1358 l 1
 297 1358 l 1
 297 104 l 1
EndSplineSet
EndChar

StartChar: lozenge
Encoding: 9674 9674 1
Width: 1229
GlyphClass: 2
Flags: W
LayerCount: 2
Fore
SplineSet
1104 737 m 1
 651 0 l 1
 575 0 l 1
 125 735 l 1
 575 1475 l 1
 651 1475 l 1
 1104 737 l 1
920 737 m 1
 614 1249 l 1
 309 737 l 1
 614 223 l 1
 920 737 l 1
EndSplineSet
EndChar

StartChar: uniE0A0
Encoding: 57504 57504 2
Width: 1229
GlyphClass: 2
Flags: W
LayerCount: 2
Fore
SplineSet
516.518554688 -509.629882812 m 1
 168.915039062 -509.629882812 l 1
 168.915039062 8.8564453125 l 2
 168.915039062 137.223632812 202.080078125 241.924804688 268.41015625 322.9609375 c 0
 313.75 379.614257812 384.698242188 434.833007812 481.254882812 488.6171875 c 2
 672.688476562 595.111328125 l 2
 748.254882812 637.422851562 802.201171875 687.083984375 834.526367188 744.095703125 c 0
 866.8515625 801.108398438 883.013671875 876.228515625 883.013671875 969.456054688 c 2
 883.013671875 1323.36132812 l 1
 619.791992188 1323.36132812 l 1
 987.546875 1691.25 l 1
 1355.30175781 1323.36132812 l 1
 1092.08007812 1323.36132812 l 1
 1092.08007812 909.216796875 l 2
 1092.08007812 771.52734375 1069.62011719 665.9296875 1024.70019531 592.423828125 c 0
 979.780273438 518.916992188 912.400390625 457.064453125 822.561523438 406.865234375 c 2
 728.103515625 353.080078125 l 2
 650.018554688 309.334960938 596.283203125 264.873046875 566.896484375 219.693359375 c 0
 533.311523438 168.77734375 516.518554688 98.498046875 516.518554688 8.8564453125 c 2
 516.518554688 -509.629882812 l 1
516.518554688 765.073242188 m 1
 168.915039062 573.598632812 l 1
 168.915039062 1980.61328125 l 1
 516.518554688 1980.61328125 l 1
 516.518554688 765.073242188 l 1
EndSplineSet
EndChar

StartChar: uniE0A1
Encoding: 57505 57505 3
Width: 1229
GlyphClass: 2
Flags: W
LayerCount: 2
Fore
SplineSet
861.603515625 918.8984375 m 1
 861.603515625 776.90625 l 1
 224.330078125 776.90625 l 1
 224.330078125 1745.03515625 l 1
 419.541992188 1745.03515625 l 1
 419.541992188 918.8984375 l 1
 861.603515625 918.8984375 l 1
869.16015625 689.774414062 m 1
 1069.41015625 689.774414062 l 1
 1069.41015625 -278.354492188 l 1
 859.084960938 -278.354492188 l 1
 550.5234375 350.928710938 l 1
 574.453125 -68.59375 l 1
 574.453125 -278.354492188 l 1
 376.721679688 -278.354492188 l 1
 376.721679688 689.774414062 l 1
 584.528320312 689.774414062 l 1
 895.608398438 58.3388671875 l 1
 869.16015625 519.813476562 l 1
 869.16015625 689.774414062 l 1
EndSplineSet
EndChar

StartChar: uniE0A2
Encoding: 57506 57506 4
Width: 1229
GlyphClass: 2
Flags: W
LayerCount: 2
Fore
SplineSet
313.75 -117 m 2
 195.36328125 -117 136.169921875 -66.4423828125 136.169921875 34.673828125 c 2
 136.169921875 775.830078125 l 2
 136.169921875 884.1171875 186.966796875 938.260742188 288.561523438 938.260742188 c 1
 288.561523438 1267.42480469 l 2
 288.561523438 1365.671875 323.825195312 1447.42480469 394.353515625 1512.68359375 c 0
 462.36328125 1575.07421875 546.745117188 1606.26953125 647.5 1606.26953125 c 0
 748.254882812 1606.26953125 832.63671875 1575.07421875 900.646484375 1512.68359375 c 0
 971.174804688 1447.42480469 1006.43847656 1365.671875 1006.43847656 1267.42480469 c 2
 1006.43847656 938.260742188 l 1
 1108.03320312 938.260742188 1158.83007812 884.1171875 1158.83007812 775.830078125 c 2
 1158.83007812 34.673828125 l 2
 1158.83007812 -66.4423828125 1099.63671875 -117 981.25 -117 c 2
 313.75 -117 l 2
647.5 1466.42871094 m 0
 591.245117188 1466.42871094 546.1171875 1448.5 512.112304688 1412.64355469 c 0
 478.107421875 1376.78710938 461.104492188 1328.38085938 461.104492188 1267.42480469 c 2
 461.104492188 938.260742188 l 1
 833.897460938 938.260742188 l 1
 833.897460938 1267.42480469 l 2
 833.897460938 1328.38085938 816.89453125 1376.78710938 782.889648438 1412.64355469 c 0
 748.884765625 1448.5 703.754882812 1466.42871094 647.5 1466.42871094 c 0
718.030273438 136.865234375 m 1
 718.030273438 484.315429688 l 1
 775.125 509.415039062 803.671875 549.215820312 803.671875 603.71875 c 0
 803.671875 640.291992188 788.348632812 671.666015625 757.702148438 697.840820312 c 0
 727.056640625 724.015625 690.323242188 737.103515625 647.501953125 737.103515625 c 0
 604.680664062 737.103515625 567.947265625 724.015625 537.301757812 697.840820312 c 0
 506.655273438 671.666015625 491.33203125 640.291992188 491.33203125 603.71875 c 0
 491.33203125 549.215820312 519.87890625 509.415039062 576.973632812 484.315429688 c 1
 576.973632812 136.865234375 l 1
 718.030273438 136.865234375 l 1
EndSplineSet
EndChar

StartChar: uniE0A3
Encoding: 57507 57507 5
Width: 1229
GlyphClass: 2
Flags: MW
HStem: 776.906 141.992 1594 160<414 449 449 844 414 414>
VStem: 224.33 192.67 376.722 197.731 869.16 200.25
LayerCount: 2
Fore
SplineSet
869.16015625 689.774414062 m 1xd8
 1069.41015625 689.774414062 l 1
 1069.41015625 -278.354492188 l 1
 859.084960938 -278.354492188 l 1
 550.5234375 350.928710938 l 1
 574.453125 -68.59375 l 1
 574.453125 -278.354492188 l 1
 376.721679688 -278.354492188 l 1
 376.721679688 689.774414062 l 1
 584.528320312 689.774414062 l 1
 895.608398438 58.3388671875 l 1
 869.16015625 519.813476562 l 1
 869.16015625 689.774414062 l 1xd8
844 918.8984375 m 1
 844 776.90625 l 1
 224.330078125 776.90625 l 1
 224.330078125 1754 l 1
 449 1754 l 1
 844 1754 l 1
 844 1594 l 1
 414 1594 l 1
 417 918.8984375 l 1xe8
 844 918.8984375 l 1
EndSplineSet
EndChar

StartChar: uniE0B0
Encoding: 57520 57520 6
Width: 1229
GlyphClass: 2
Flags: W
LayerCount: 2
Fore
SplineSet
-20 1980.61328125 m 1
 1315 730.650390625 l 1
 -20 -520.38671875 l 1
 -20 1980.61328125 l 1
EndSplineSet
EndChar

StartChar: uniE0B1
Encoding: 57521 57521 7
Width: 1229
GlyphClass: 2
Flags: W
LayerCount: 2
Fore
SplineSet
-91.7880859375 1832.16601562 m 1
 29.1181640625 1934.35742188 l 1
 1315 730.650390625 l 1
 29.1181640625 -473.056640625 l 1
 -91.7880859375 -370.865234375 l 1
 1082.00488281 730.650390625 l 1
 -91.7880859375 1832.16601562 l 1
EndSplineSet
EndChar

StartChar: uniE0B2
Encoding: 57522 57522 8
Width: 1229
GlyphClass: 2
Flags: W
LayerCount: 2
Fore
SplineSet
1315 -520.38671875 m 1
 -20 730.650390625 l 1
 1315 1980.61328125 l 1
 1315 -520.38671875 l 1
EndSplineSet
EndChar

StartChar: uniE0B3
Encoding: 57523 57523 9
Width: 1229
GlyphClass: 2
Flags: W
LayerCount: 2
Fore
SplineSet
212.995117188 730.650390625 m 1
 1386.78808594 -370.865234375 l 1
 1265.88183594 -473.056640625 l 1
 -20 730.650390625 l 1
 1265.88183594 1934.35742188 l 1
 1386.78808594 1832.16601562 l 1
 212.995117188 730.650390625 l 1
EndSplineSet
EndChar

StartChar: uniE0B4
Encoding: 57524 57524 10
Width: 1233
GlyphClass: 2
Flags: HMW
VStem: -121.32 1195.6
LayerCount: 2
Fore
SplineSet
-121.3203125 1888.07226562 m 5
 74.6796875 1888.07226562 273.29296875 1830.57910156 474.51953125 1715.59179688 c 4
 874.360351562 1485.61914062 1074.28027344 1140.65917969 1074.28027344 680.711914062 c 4
 1074.28027344 220.764648438 874.360351562 -122.887695312 474.51953125 -350.248046875 c 4
 273.29296875 -467.84765625 74.6796875 -526.6484375 -121.3203125 -526.6484375 c 5
 -121.3203125 1888.07226562 l 5
EndSplineSet
EndChar

StartChar: uniE0B5
Encoding: 57525 57525 11
Width: 1233
GlyphClass: 2
Flags: MW
VStem: 925.28 149
LayerCount: 2
Fore
SplineSet
474.51953125 -582.248046875 m 1
 874.360351562 -354.887695312 1074.28027344 168.764648438 1074.28027344 628.711914062 c 0
 1074.28027344 1088.65917969 874.360351562 1613.61914062 474.51953125 1843.59179688 c 1
 325.51953125 1843.59179688 l 1
 725.360351562 1613.61914062 925.280273438 1088.65917969 925.280273438 628.711914062 c 0
 925.280273438 168.764648438 722.638671875 -350.166015625 325.51953125 -582.248046875 c 1
 474.51953125 -582.248046875 l 1
EndSplineSet
EndChar

StartChar: uniE0B6
Encoding: 57526 57526 12
Width: 1233
GlyphClass: 2
Flags: MW
VStem: -80.2803 1195.6
LayerCount: 2
Fore
SplineSet
1245.3203125 1899.07226562 m 1
 1049.3203125 1899.07226562 850.70703125 1841.57910156 649.48046875 1726.59179688 c 0
 249.639648438 1496.61914062 49.7197265625 1151.65917969 49.7197265625 691.711914062 c 0
 49.7197265625 231.764648438 249.639648438 -111.887695312 649.48046875 -339.248046875 c 0
 850.70703125 -456.84765625 1049.3203125 -515.6484375 1245.3203125 -515.6484375 c 1
 1245.3203125 1899.07226562 l 1
EndSplineSet
EndChar

StartChar: uniE0B7
Encoding: 57527 57527 13
Width: 1233
GlyphClass: 2
Flags: MW
VStem: 325.52 149
LayerCount: 2
Fore
SplineSet
1065.28027344 -582.248046875 m 1
 665.439453125 -354.887695312 465.51953125 168.764648438 465.51953125 628.711914062 c 0
 465.51953125 1088.65917969 665.439453125 1613.61914062 1065.28027344 1843.59179688 c 1
 1214.28027344 1843.59179688 l 1
 814.439453125 1613.61914062 614.51953125 1088.65917969 614.51953125 628.711914062 c 0
 614.51953125 168.764648438 817.161132812 -350.166015625 1214.28027344 -582.248046875 c 1
 1065.28027344 -582.248046875 l 1
EndSplineSet
EndChar

StartChar: uniE0B8
Encoding: 57528 57528 14
Width: 1233
GlyphClass: 2
Flags: W
LayerCount: 2
Fore
SplineSet
-195.565429688 -534.172851562 m 1
 -195.565429688 1970.17285156 l 1
 2310.56542969 -534.172851562 l 1
 -195.565429688 -534.172851562 l 1
EndSplineSet
EndChar

StartChar: uniE0B9
Encoding: 57529 57529 15
Width: 1233
GlyphClass: 2
Flags: W
LayerCount: 2
Fore
SplineSet
2311.77148438 -534.172851562 m 1
 -194.359375 1970.17285156 l 1
 -316.771484375 1970.17285156 l 1
 2189.359375 -534.172851562 l 1
 2311.77148438 -534.172851562 l 1
EndSplineSet
EndChar

StartChar: uniE0BA
Encoding: 57530 57530 16
Width: 1233
GlyphClass: 2
Flags: W
LayerCount: 2
Fore
SplineSet
2276.56542969 -534.172851562 m 1
 2276.56542969 1970.17285156 l 1
 -229.565429688 -534.172851562 l 1
 2276.56542969 -534.172851562 l 1
EndSplineSet
EndChar

StartChar: uniE0BB
Encoding: 57531 57531 17
Width: 1233
GlyphClass: 2
Flags: W
LayerCount: 2
Fore
SplineSet
-316.771484375 -534.172851562 m 1
 2189.359375 1970.17285156 l 1
 2311.77148438 1970.17285156 l 1
 -194.359375 -534.172851562 l 1
 -316.771484375 -534.172851562 l 1
EndSplineSet
EndChar

StartChar: uniE0BC
Encoding: 57532 57532 18
Width: 1233
GlyphClass: 2
Flags: W
LayerCount: 2
Fore
SplineSet
-195.565429688 1970.17285156 m 1
 -195.565429688 -534.172851562 l 1
 2310.56542969 1970.17285156 l 1
 -195.565429688 1970.17285156 l 1
EndSplineSet
EndChar

StartChar: uniE0BD
Encoding: 57533 57533 19
Width: 1233
GlyphClass: 2
Flags: W
LayerCount: 2
Fore
SplineSet
2311.77148438 1970.17285156 m 1
 -194.359375 -534.172851562 l 1
 -316.771484375 -534.172851562 l 1
 2189.359375 1970.17285156 l 1
 2311.77148438 1970.17285156 l 1
EndSplineSet
EndChar

StartChar: uniE0BE
Encoding: 57534 57534 20
Width: 1233
GlyphClass: 2
Flags: W
LayerCount: 2
Fore
SplineSet
2276.56542969 1970.17285156 m 1
 2276.56542969 -534.172851562 l 1
 -229.565429688 1970.17285156 l 1
 2276.56542969 1970.17285156 l 1
EndSplineSet
EndChar

StartChar: uniE0BF
Encoding: 57535 57535 21
Width: 1233
GlyphClass: 2
Flags: W
LayerCount: 2
Fore
SplineSet
-316.771484375 1970.17285156 m 1
 2189.359375 -534.172851562 l 1
 2311.77148438 -534.172851562 l 1
 -194.359375 1970.17285156 l 1
 -316.771484375 1970.17285156 l 1
EndSplineSet
EndChar

StartChar: uniE0C0
Encoding: 57536 57536 22
Width: 2048
GlyphClass: 2
Flags: MW
HStem: -16.3516 71.124
LayerCount: 2
Fore
SplineSet
2157.16992188 445.6328125 m 1
 1962.0625 357.671875 1714.88183594 239.341796875 1616.59082031 239.100585938 c 0
 1569.16894531 238.987304688 1486.07421875 221.028320312 1392.25488281 253.274414062 c 0
 1245.9140625 303.5546875 1063.72265625 418.727539062 994.192382812 362.440429688 c 0
 917.9921875 300.784179688 905.24609375 278.837890625 805.399414062 247.271484375 c 1
 821.926757812 233.928710938 l 2
 905.483398438 166.466796875 922.353515625 77.455078125 1054.88671875 54.7724609375 c 0
 1136.74023438 40.767578125 1238.29296875 55.015625 1319.64355469 78.185546875 c 1
 1191.87890625 3.9775390625 1007.36914062 -17.923828125 879.50390625 -16.3515625 c 0
 715.841796875 -14.33984375 525.756835938 162.7109375 345.399414062 94.490234375 c 0
 263.87109375 63.62890625 161.860351562 -26.9697265625 167.859375 -138.1875 c 2
 168.82421875 -156.08203125 l 1
 279.216796875 -97.0234375 345.249023438 -108.879882812 450.018554688 -166.71484375 c 0
 527.240234375 -209.3359375 617.419921875 -210.513671875 702.4765625 -230.544921875 c 1
 556.8515625 -255.03125 423.041015625 -327.984375 281.978515625 -294.123046875 c 0
 125.0546875 -256.453125 -49.361328125 -525.240234375 -200.970703125 -496.669921875 c 1
 -196.959960938 -279.114257812 -194.39453125 1058.36523438 -194.518554688 1348.09472656 c 0
 -194.580078125 1490.42871094 -204.66796875 1676.29101562 -201.388671875 1845.66015625 c 1
 -144.4921875 1843.40039062 -150.38671875 1833.87988281 -99.2001953125 1775.53417969 c 0
 10.90625 1660.19921875 148.4296875 1731.66308594 260.15625 1801.82617188 c 0
 367.912109375 1869.49414062 476.38671875 1879.90625 579.877929688 1828.49902344 c 1
 449.877929688 1832.89453125 410.693359375 1760.81054688 323.8359375 1658.59277344 c 0
 297.756835938 1627.90722656 198.797851562 1596.30566406 145.8984375 1557.81152344 c 0
 118.43359375 1537.82617188 98.5341796875 1508.98144531 122.329101562 1477.18359375 c 0
 225.405273438 1339.43164062 472.990234375 1536.32421875 547.33984375 1588.140625 c 0
 688.859375 1686.77148438 792.756835938 1714.67480469 944.408203125 1646.5546875 c 0
 1089.46484375 1581.40820312 1195.50292969 1618.07519531 1312.35644531 1685.85351562 c 1
 1205.43847656 1586.30761719 1098.30566406 1565.83203125 951.385742188 1512.44726562 c 0
 870.913085938 1483.21289062 825.921875 1436.70898438 816.5 1386.11914062 c 0
 802.200195312 1309.32226562 870.771484375 1236.24707031 988.9921875 1214.42773438 c 0
 1193.33496094 1176.71289062 1353.72460938 1342.81933594 1529.91503906 1396.2109375 c 0
 1749.1328125 1462.64355469 1961.5390625 1426.48632812 2166.16113281 1319.97363281 c 0
 2362.81640625 1217.59960938 2533.46289062 1146.57519531 2722.15820312 1245.57617188 c 1
 2419.63671875 979.899414062 2025.0390625 1300.61523438 1690.25585938 1076.73535156 c 0
 1589.47558594 1009.34375 1525.91308594 960.36328125 1406.99609375 929.3125 c 1
 1423.17578125 915.135742188 l 2
 1494.92382812 852.272460938 1625.93066406 848.674804688 1704.796875 832.27734375 c 0
 1757.12304688 821.395507812 1813.92480469 824.846679688 1861.32421875 833.60546875 c 1
 1765.16992188 788.38671875 1679.65429688 755.135742188 1564.70117188 748.967773438 c 0
 1401.42480469 740.212890625 1281.45800781 759.489257812 1151.40527344 619.892578125 c 2
 1128.74316406 595.568359375 l 1
 1161.5625 600.862304688 l 2
 1224.15625 610.958984375 1343.921875 511.805664062 1460.60351562 444.534179688 c 0
 1534.25195312 402.07421875 1609.84179688 390.876953125 1649.74414062 379.384765625 c 0
 1727.55371094 356.961914062 1966.83203125 400.935546875 2157.16992188 445.6328125 c 1
EndSplineSet
EndChar

StartChar: uniE0C1
Encoding: 57537 57537 23
Width: 2048
GlyphClass: 2
Flags: MW
HStem: -552.304 111.268 -286.07 111.036 -72.252 182.699 31.335 101.432 183.199 111.803 1789.77 111.773
LayerCount: 2
Fore
SplineSet
-233.887695312 1846.95117188 m 0xec
 -209.120117188 1877.38378906 -173.684570312 1902.25292969 -155.904296875 1901.546875 c 0
 -95.11328125 1899.1328125 -94.8720703125 1884.11035156 -45.9111328125 1828.30175781 c 0
 59.9169921875 1717.44921875 178.393554688 1785.37207031 275.563476562 1846.39355469 c 0
 412.017578125 1932.08300781 525.625 1935.3203125 630.611328125 1883.17089844 c 1
 534.502929688 1772.60839844 l 2
 530.8984375 1772.73046875 527.385742188 1772.7890625 523.965820312 1772.78808594 c 0
 423.423828125 1772.75 445.671875 1762.36621094 353.557617188 1653.96289062 c 0
 281.205078125 1568.83007812 198.225585938 1551.25585938 171.111328125 1537.41113281 c 0
 172.767578125 1534.12890625 173.986328125 1532.19824219 176.1484375 1529.30859375 c 0
 270.640625 1403.02832031 477.434570312 1573.45410156 556.802734375 1628.76855469 c 0
 724.760742188 1745.82519531 842.08203125 1769.98730469 994.798828125 1701.38964844 c 0
 1133.75976562 1638.98046875 1226.28027344 1672.83691406 1323.37011719 1728.01269531 c 0
 1326.09375 1729.56054688 1328.8359375 1731.13574219 1331.59863281 1732.73828125 c 2
 1331.59863281 1732.73828125 1418.25292969 1750.11621094 1324.28515625 1662.62792969 c 0
 1175.71289062 1524.29980469 1053.41210938 1508.03710938 918.489257812 1459.01171875 c 0
 898.416015625 1451.71972656 882.810546875 1443.43847656 875.54296875 1438.80273438 c 0
 874.265625 1435.62597656 872.887695312 1431.25488281 871.926757812 1426.09472656 c 0
 860.926757812 1367.01953125 922.194335938 1291.20996094 1036.72753906 1270.0703125 c 0
 1232.1796875 1233.99707031 1360.51171875 1388.42773438 1565.57324219 1450.56933594 c 0
 1797.06152344 1520.72070312 2011.00292969 1481.82128906 2217.05566406 1374.56347656 c 0
 2415.140625 1271.4453125 2589.17675781 1212.70996094 2745.47363281 1294.71289062 c 1
 2745.47363281 1294.71289062 2824.4765625 1301.60839844 2729.38378906 1218.09667969 c 0
 2371.3125 903.635742188 1933.71972656 1205.21289062 1678.30566406 1034.40917969 c 0
 1627.50585938 1000.44042969 1580.328125 966.790039062 1526.54101562 937.109375 c 1
 1596.72167969 906.0078125 1688.97851562 901.138671875 1752.83203125 887.862304688 c 0
 1800.00976562 878.05078125 1851.12304688 880.516601562 1894.02734375 887.748046875 c 0
 1896.49511719 888.163085938 1898.93554688 888.594726562 1901.34472656 889.040039062 c 2
 1901.34472656 889.040039062 1880.82617188 804.504882812 1834.40136719 782.672851562 c 0
 1734.70117188 735.786132812 1639.8359375 699.466796875 1521.13183594 693.09765625 c 0
 1402.26855469 686.723632812 1305.34960938 689.030273438 1236.91308594 655.126953125 c 1
 1309.50292969 639.809570312 1410.79492188 557.193359375 1511.84863281 498.932617188 c 0
 1583.90234375 457.391601562 1657.30664062 446.663085938 1698.69726562 434.7421875 c 0
 1768.71582031 414.565429688 2007.19335938 456.491210938 2195.49902344 500.7109375 c 0
 2195.50292969 500.711914062 2129.05273438 394.149414062 2129.05273438 394.149414062 c 2
 2126.45507812 392.978515625 2123.84765625 391.801757812 2121.23046875 390.619140625 c 0
 1928.6015625 303.604492188 1682.16210938 183.469726562 1571.91796875 183.19921875 c 0
 1528.94921875 183.096679688 1439.29980469 164.90625 1342.75292969 198.088867188 c 0
 1212.71679688 242.767578125 1046.45117188 333.19921875 983.590820312 320.221679688 c 1
 958.723632812 299.685546875 937.581054688 280.318359375 906.327148438 257.924804688 c 1
 967.248046875 194.196289062 993.515625 129.090820312 1102.44335938 110.447265625 c 0xec
 1180.81445312 97.0390625 1279.39648438 110.930664062 1356.06054688 132.766601562 c 1
 1356.06054688 132.766601562 1362.19140625 67.1884765625 1300.46191406 31.3349609375 c 0xdc
 1294.89160156 28.099609375 1289.35644531 25.0126953125 1283.84277344 22.05078125 c 0
 1134.86816406 -57.9658203125 959.940429688 -73.7939453125 834.5390625 -72.251953125 c 0
 660.784179688 -70.1162109375 464.336914062 98.48046875 313.266601562 41.337890625 c 0
 293.153320312 33.724609375 274.509765625 21.9580078125 264.03125 13.431640625 c 0
 256.196289062 7.056640625 220.612304688 -21.9931640625 223.67578125 -91.2900390625 c 1
 338.793945312 -38.7626953125 405.405273438 -59.3984375 501.114257812 -112.232421875 c 0
 575.612304688 -153.350585938 663.717773438 -154.514648438 750.845703125 -175.034179688 c 1
 661.939453125 -286.0703125 l 2
 658.482421875 -286.651367188 655.03125 -287.26171875 651.583007812 -287.899414062 c 0
 519.002929688 -312.40234375 377.26171875 -384.1171875 233.556640625 -349.62109375 c 0
 102.325195312 -318.119140625 -66.3642578125 -586.674804688 -248.7578125 -552.303710938 c 0
 -264.553710938 -549.327148438 -256.122070312 -521.640625 -229.978515625 -491.204101562 c 0
 -203.833984375 -460.766601562 -168.979492188 -438.059570312 -153.184570312 -441.036132812 c 0
 -32.3583984375 -463.805664062 147.783203125 -194.788085938 330.400390625 -238.625 c 0
 371.625976562 -248.521484375 411.12890625 -248.857421875 451.244140625 -244.006835938 c 1
 433.9375 -238.13671875 415.783203125 -230.502929688 398.922851562 -221.197265625 c 0
 293.62890625 -163.072265625 232.94140625 -158.447265625 146.23828125 -204.833007812 c 0
 127.033203125 -215.107421875 113.612304688 -214.124023438 112.94921875 -201.821289062 c 2
 111.984375 -183.926757812 l 2
 107.725585938 -104.967773438 160.004882812 -4.3818359375 260.827148438 77.923828125 c 0
 304.012695312 113.177734375 343.771484375 134.86328125 377.532226562 147.642578125 c 0
 578.918945312 223.817382812 753.03125 55.7646484375 904.446289062 40.6923828125 c 1
 850.52734375 80.298828125 824.336914062 136.071289062 769.5546875 180.301757812 c 2
 753.02734375 193.64453125 l 2
 721.676757812 218.954101562 840.491210938 301.454101562 840.491210938 301.454101562 c 1
 933.494140625 330.856445312 905.298828125 324.05859375 993.341796875 395.296875 c 0
 1008.61132812 407.658203125 1021.24707031 415.084960938 1030.87011719 419.836914062 c 0
 1151.26660156 479.287109375 1305.75878906 355.185546875 1441.75683594 308.458984375 c 0
 1532.84863281 277.150390625 1609.38867188 294.877929688 1661.26367188 295.001953125 c 0
 1689.37695312 295.071289062 1735.69335938 307.135742188 1793.7578125 328.000976562 c 1
 1710.71386719 316.88671875 1640.24316406 312.658203125 1600.79101562 324.026367188 c 0
 1562.37695312 335.090820312 1484.6015625 346.756835938 1409.35839844 390.135742188 c 0
 1292.63574219 457.430664062 1163.18457031 552.13671875 1120.81933594 545.302734375 c 2
 1088 540.008789062 l 2
 1029.13378906 530.513671875 1105.56835938 607.551757812 1105.56835938 607.551757812 c 1
 1128.23046875 631.875976562 l 2
 1282.52246094 797.490234375 1403.30957031 797.461914062 1510.44921875 801.296875 c 1
 1459.29199219 812.24609375 1407.54882812 829.3046875 1370.54394531 861.7265625 c 2
 1354.36425781 875.903320312 l 2
 1324.86523438 901.751953125 1444.34960938 984.149414062 1444.34960938 984.149414062 c 1
 1555.38378906 1013.14160156 1596.79882812 1048.57519531 1702.20605469 1119.06152344 c 0
 1900.81152344 1251.875 2073.77246094 1221.79882812 2241.90722656 1203.75292969 c 1
 2200.90820312 1221.69628906 2158.41894531 1242.91894531 2115.26660156 1265.3828125 c 0
 1912.07421875 1371.15136719 1701.20410156 1404.56738281 1494.25683594 1341.85351562 c 0
 1346.9375 1297.20996094 1154.49023438 1119.42871094 941.255859375 1158.78417969 c 0
 819.34765625 1181.28417969 743.474609375 1251.625 761.07421875 1346.14453125 c 0
 766.02734375 1372.73925781 780.372070312 1409.796875 821.569335938 1456.05371094 c 0
 842.3515625 1479.38769531 865.712890625 1499.61132812 886.971679688 1514.87792969 c 0
 919.10546875 1537.95410156 946.875 1551.67675781 978.375 1563.69042969 c 1
 951.740234375 1569.29394531 923.340820312 1578.55175781 894.018554688 1591.72070312 c 0
 743.430664062 1659.36230469 652.95703125 1627.71777344 537.875976562 1547.51269531 c 0
 468.545898438 1499.19433594 180.169921875 1275.83496094 68.509765625 1425.05859375 c 0
 50.5556640625 1449.05175781 40.94140625 1493.27929688 117.8828125 1567.34472656 c 0
 130.629882812 1579.61523438 142.405273438 1589.05371094 152.588867188 1596.46386719 c 0
 215.551757812 1642.28027344 275.03515625 1662.12792969 308.533203125 1680.43066406 c 1
 336.831054688 1714.59179688 368.744140625 1758.40332031 420.622070312 1804.32421875 c 1
 356.509765625 1808.87207031 294.657226562 1788.59960938 244.75 1757.25878906 c 0
 118.466796875 1677.95507812 -38.103515625 1602.94921875 -152.490234375 1722.76660156 c 0
 -205.901367188 1783.6484375 -193.87109375 1787.66796875 -246.872070312 1789.7734375 c 0
 -264.65234375 1790.47949219 -258.655273438 1816.51855469 -233.887695312 1846.95117188 c 0xec
EndSplineSet
EndChar

StartChar: uniE0C2
Encoding: 57538 57538 24
Width: 2048
GlyphClass: 2
Flags: MW
HStem: -16.3516 71.124
LayerCount: 2
Fore
SplineSet
-146.400390625 445.6328125 m 1
 48.70703125 357.671875 295.887695312 239.341796875 394.178710938 239.100585938 c 0
 441.600585938 238.987304688 524.6953125 221.028320312 618.514648438 253.274414062 c 0
 764.85546875 303.5546875 947.046875 418.727539062 1016.57714844 362.440429688 c 0
 1092.77734375 300.784179688 1105.5234375 278.837890625 1205.37011719 247.271484375 c 1
 1188.84277344 233.928710938 l 2
 1105.28613281 166.466796875 1088.41601562 77.455078125 955.8828125 54.7724609375 c 0
 874.029296875 40.767578125 772.4765625 55.015625 691.125976562 78.185546875 c 1
 818.890625 3.9775390625 1003.40039062 -17.923828125 1131.265625 -16.3515625 c 0
 1294.92773438 -14.33984375 1485.01269531 162.7109375 1665.37011719 94.490234375 c 0
 1746.8984375 63.62890625 1848.90917969 -26.9697265625 1842.91015625 -138.1875 c 2
 1841.9453125 -156.08203125 l 1
 1731.55273438 -97.0234375 1665.52050781 -108.879882812 1560.75097656 -166.71484375 c 0
 1483.52929688 -209.3359375 1393.34960938 -210.513671875 1308.29296875 -230.544921875 c 1
 1453.91796875 -255.03125 1587.72851562 -327.984375 1728.79101562 -294.123046875 c 0
 1885.71484375 -256.453125 2060.13085938 -525.240234375 2211.74023438 -496.669921875 c 1
 2207.72949219 -279.114257812 2205.1640625 1058.36523438 2205.28808594 1348.09472656 c 0
 2205.34960938 1490.42871094 2215.4375 1676.29101562 2212.15820312 1845.66015625 c 1
 2155.26171875 1843.40039062 2161.15625 1833.87988281 2109.96972656 1775.53417969 c 0
 1999.86328125 1660.19921875 1862.33984375 1731.66308594 1750.61328125 1801.82617188 c 0
 1642.85742188 1869.49414062 1534.3828125 1879.90625 1430.89160156 1828.49902344 c 1
 1560.89160156 1832.89453125 1600.07617188 1760.81054688 1686.93359375 1658.59277344 c 0
 1713.01269531 1627.90722656 1811.97167969 1596.30566406 1864.87109375 1557.81152344 c 0
 1892.3359375 1537.82617188 1912.23535156 1508.98144531 1888.44042969 1477.18359375 c 0
 1785.36425781 1339.43164062 1537.77929688 1536.32421875 1463.4296875 1588.140625 c 0
 1321.91015625 1686.77148438 1218.01269531 1714.67480469 1066.36132812 1646.5546875 c 0
 921.3046875 1581.40820312 815.266601562 1618.07519531 698.413085938 1685.85351562 c 1
 805.331054688 1586.30761719 912.463867188 1565.83203125 1059.38378906 1512.44726562 c 0
 1139.85644531 1483.21289062 1184.84765625 1436.70898438 1194.26953125 1386.11914062 c 0
 1208.56933594 1309.32226562 1139.99804688 1236.24707031 1021.77734375 1214.42773438 c 0
 817.434570312 1176.71289062 657.044921875 1342.81933594 480.854492188 1396.2109375 c 0
 261.63671875 1462.64355469 49.23046875 1426.48632812 -155.391601562 1319.97363281 c 0
 -352.046875 1217.59960938 -522.693359375 1146.57519531 -711.388671875 1245.57617188 c 1
 -408.8671875 979.899414062 -14.26953125 1300.61523438 320.513671875 1076.73535156 c 0
 421.293945312 1009.34375 484.856445312 960.36328125 603.7734375 929.3125 c 1
 587.59375 915.135742188 l 2
 515.845703125 852.272460938 384.838867188 848.674804688 305.97265625 832.27734375 c 0
 253.646484375 821.395507812 196.844726562 824.846679688 149.4453125 833.60546875 c 1
 245.599609375 788.38671875 331.115234375 755.135742188 446.068359375 748.967773438 c 0
 609.344726562 740.212890625 729.311523438 759.489257812 859.364257812 619.892578125 c 2
 882.026367188 595.568359375 l 1
 849.20703125 600.862304688 l 2
 786.61328125 610.958984375 666.84765625 511.805664062 550.166015625 444.534179688 c 0
 476.517578125 402.07421875 400.927734375 390.876953125 361.025390625 379.384765625 c 0
 283.215820312 356.961914062 43.9375 400.935546875 -146.400390625 445.6328125 c 1
EndSplineSet
EndChar

StartChar: uniE0C3
Encoding: 57539 57539 25
Width: 2048
GlyphClass: 2
Flags: MW
HStem: -552.304 111.268 -286.07 111.036 -72.252 182.699 183.199 111.803 1789.77 111.773
LayerCount: 2
Fore
SplineSet
2340.60351562 1846.95117188 m 0
 2315.8359375 1877.38378906 2280.40039062 1902.25292969 2262.62011719 1901.546875 c 0
 2201.82910156 1899.1328125 2201.58789062 1884.11035156 2152.62695312 1828.30175781 c 0
 2046.79882812 1717.44921875 1928.32226562 1785.37207031 1831.15234375 1846.39355469 c 0
 1694.69824219 1932.08300781 1581.09082031 1935.3203125 1476.10449219 1883.17089844 c 1
 1572.21289062 1772.60839844 l 2
 1575.81738281 1772.73046875 1579.33007812 1772.7890625 1582.75 1772.78808594 c 0
 1683.29199219 1772.75 1661.04394531 1762.36621094 1753.15820312 1653.96289062 c 0
 1825.51074219 1568.83007812 1908.49023438 1551.25585938 1935.60449219 1537.41113281 c 0
 1933.94824219 1534.12890625 1932.72949219 1532.19824219 1930.56738281 1529.30859375 c 0
 1836.07519531 1403.02832031 1629.28125 1573.45410156 1549.91308594 1628.76855469 c 0
 1381.95507812 1745.82519531 1264.63378906 1769.98730469 1111.91699219 1701.38964844 c 0
 972.956054688 1638.98046875 880.435546875 1672.83691406 783.345703125 1728.01269531 c 0
 780.622070312 1729.56054688 777.879882812 1731.13574219 775.1171875 1732.73828125 c 2
 775.1171875 1732.73828125 688.462890625 1750.11621094 782.430664062 1662.62792969 c 0
 931.002929688 1524.29980469 1053.30371094 1508.03710938 1188.2265625 1459.01171875 c 0
 1208.29980469 1451.71972656 1223.90527344 1443.43847656 1231.17285156 1438.80273438 c 0
 1232.45019531 1435.62597656 1233.828125 1431.25488281 1234.7890625 1426.09472656 c 0
 1245.7890625 1367.01953125 1184.52148438 1291.20996094 1069.98828125 1270.0703125 c 0
 874.536132812 1233.99707031 746.204101562 1388.42773438 541.142578125 1450.56933594 c 0
 309.654296875 1520.72070312 95.712890625 1481.82128906 -110.33984375 1374.56347656 c 0
 -308.424804688 1271.4453125 -482.4609375 1212.70996094 -638.7578125 1294.71289062 c 1
 -638.7578125 1294.71289062 -717.760742188 1301.60839844 -622.66796875 1218.09667969 c 0
 -264.596679688 903.635742188 172.99609375 1205.21289062 428.41015625 1034.40917969 c 0
 479.209960938 1000.44042969 526.387695312 966.790039062 580.174804688 937.109375 c 1
 509.994140625 906.0078125 417.737304688 901.138671875 353.883789062 887.862304688 c 0
 306.706054688 878.05078125 255.592773438 880.516601562 212.688476562 887.748046875 c 0
 210.220703125 888.163085938 207.780273438 888.594726562 205.37109375 889.040039062 c 2
 205.37109375 889.040039062 225.889648438 804.504882812 272.314453125 782.672851562 c 0
 372.014648438 735.786132812 466.879882812 699.466796875 585.583984375 693.09765625 c 0
 704.447265625 686.723632812 801.366210938 689.030273438 869.802734375 655.126953125 c 1
 797.212890625 639.809570312 695.920898438 557.193359375 594.8671875 498.932617188 c 0
 522.813476562 457.391601562 449.409179688 446.663085938 408.018554688 434.7421875 c 0
 338 414.565429688 99.5224609375 456.491210938 -88.783203125 500.7109375 c 0
 -88.787109375 500.711914062 -22.3369140625 394.149414062 -22.3369140625 394.149414062 c 2
 -19.7392578125 392.978515625 -17.1318359375 391.801757812 -14.5146484375 390.619140625 c 0
 178.114257812 303.604492188 424.553710938 183.469726562 534.797851562 183.19921875 c 0
 577.766601562 183.096679688 667.416015625 164.90625 763.962890625 198.088867188 c 0
 893.999023438 242.767578125 1060.26464844 333.19921875 1123.125 320.221679688 c 1
 1147.9921875 299.685546875 1169.13476562 280.318359375 1200.38867188 257.924804688 c 1
 1139.46777344 194.196289062 1113.20019531 129.090820312 1004.27246094 110.447265625 c 0
 925.901367188 97.0390625 827.319335938 110.930664062 750.655273438 132.766601562 c 1
 750.655273438 132.766601562 744.524414062 67.1884765625 806.25390625 31.3349609375 c 0
 811.82421875 28.099609375 817.359375 25.0126953125 822.873046875 22.05078125 c 0
 971.84765625 -57.9658203125 1146.77539062 -73.7939453125 1272.17675781 -72.251953125 c 0
 1445.93164062 -70.1162109375 1642.37890625 98.48046875 1793.44921875 41.337890625 c 0
 1813.5625 33.724609375 1832.20605469 21.9580078125 1842.68457031 13.431640625 c 0
 1850.51953125 7.056640625 1886.10351562 -21.9931640625 1883.04003906 -91.2900390625 c 1
 1767.921875 -38.7626953125 1701.31054688 -59.3984375 1605.6015625 -112.232421875 c 0
 1531.10351562 -153.350585938 1442.99804688 -154.514648438 1355.87011719 -175.034179688 c 1
 1444.77636719 -286.0703125 l 2
 1448.23339844 -286.651367188 1451.68457031 -287.26171875 1455.1328125 -287.899414062 c 0
 1587.71289062 -312.40234375 1729.45410156 -384.1171875 1873.15917969 -349.62109375 c 0
 2004.390625 -318.119140625 2173.08007812 -586.674804688 2355.47363281 -552.303710938 c 0
 2371.26953125 -549.327148438 2362.83789062 -521.640625 2336.69433594 -491.204101562 c 0
 2310.54980469 -460.766601562 2275.6953125 -438.059570312 2259.90039062 -441.036132812 c 0
 2139.07421875 -463.805664062 1958.93261719 -194.788085938 1776.31542969 -238.625 c 0
 1735.08984375 -248.521484375 1695.58691406 -248.857421875 1655.47167969 -244.006835938 c 1
 1672.77832031 -238.13671875 1690.93261719 -230.502929688 1707.79296875 -221.197265625 c 0
 1813.08691406 -163.072265625 1873.77441406 -158.447265625 1960.47753906 -204.833007812 c 0
 1979.68261719 -215.107421875 1993.10351562 -214.124023438 1993.76660156 -201.821289062 c 2
 1994.73144531 -183.926757812 l 2
 1998.99023438 -104.967773438 1946.7109375 -4.3818359375 1845.88867188 77.923828125 c 0
 1802.703125 113.177734375 1762.94433594 134.86328125 1729.18359375 147.642578125 c 0
 1527.796875 223.817382812 1353.68457031 55.7646484375 1202.26953125 40.6923828125 c 1
 1256.18847656 80.298828125 1282.37890625 136.071289062 1337.16113281 180.301757812 c 2
 1353.68847656 193.64453125 l 2
 1385.0390625 218.954101562 1266.22460938 301.454101562 1266.22460938 301.454101562 c 1
 1173.22167969 330.856445312 1201.41699219 324.05859375 1113.37402344 395.296875 c 0
 1098.10449219 407.658203125 1085.46875 415.084960938 1075.84570312 419.836914062 c 0
 955.44921875 479.287109375 800.95703125 355.185546875 664.958984375 308.458984375 c 0
 573.8671875 277.150390625 497.327148438 294.877929688 445.452148438 295.001953125 c 0
 417.338867188 295.071289062 371.022460938 307.135742188 312.958007812 328.000976562 c 1
 396.001953125 316.88671875 466.47265625 312.658203125 505.924804688 324.026367188 c 0
 544.338867188 335.090820312 622.114257812 346.756835938 697.357421875 390.135742188 c 0
 814.080078125 457.430664062 943.53125 552.13671875 985.896484375 545.302734375 c 2
 1018.71582031 540.008789062 l 2
 1077.58203125 530.513671875 1001.14746094 607.551757812 1001.14746094 607.551757812 c 1
 978.485351562 631.875976562 l 2
 824.193359375 797.490234375 703.40625 797.461914062 596.266601562 801.296875 c 1
 647.423828125 812.24609375 699.166992188 829.3046875 736.171875 861.7265625 c 2
 752.3515625 875.903320312 l 2
 781.850585938 901.751953125 662.366210938 984.149414062 662.366210938 984.149414062 c 1
 551.33203125 1013.14160156 509.916992188 1048.57519531 404.509765625 1119.06152344 c 0
 205.904296875 1251.875 32.943359375 1221.79882812 -135.19140625 1203.75292969 c 1
 -94.1923828125 1221.69628906 -51.703125 1242.91894531 -8.55078125 1265.3828125 c 0
 194.641601562 1371.15136719 405.51171875 1404.56738281 612.458984375 1341.85351562 c 0
 759.778320312 1297.20996094 952.225585938 1119.42871094 1165.45996094 1158.78417969 c 0
 1287.36816406 1181.28417969 1363.24121094 1251.625 1345.64160156 1346.14453125 c 0
 1340.68847656 1372.73925781 1326.34375 1409.796875 1285.14648438 1456.05371094 c 0
 1264.36425781 1479.38769531 1241.00292969 1499.61132812 1219.74414062 1514.87792969 c 0
 1187.61035156 1537.95410156 1159.84082031 1551.67675781 1128.34082031 1563.69042969 c 1
 1154.97558594 1569.29394531 1183.375 1578.55175781 1212.69726562 1591.72070312 c 0
 1363.28515625 1659.36230469 1453.75878906 1627.71777344 1568.83984375 1547.51269531 c 0
 1638.16992188 1499.19433594 1926.54589844 1275.83496094 2038.20605469 1425.05859375 c 0
 2056.16015625 1449.05175781 2065.77441406 1493.27929688 1988.83300781 1567.34472656 c 0
 1976.0859375 1579.61523438 1964.31054688 1589.05371094 1954.12695312 1596.46386719 c 0
 1891.1640625 1642.28027344 1831.68066406 1662.12792969 1798.18261719 1680.43066406 c 1
 1769.88476562 1714.59179688 1737.97167969 1758.40332031 1686.09375 1804.32421875 c 1
 1750.20605469 1808.87207031 1812.05859375 1788.59960938 1861.96582031 1757.25878906 c 0
 1988.24902344 1677.95507812 2144.81933594 1602.94921875 2259.20605469 1722.76660156 c 0
 2312.6171875 1783.6484375 2300.58691406 1787.66796875 2353.58789062 1789.7734375 c 0
 2371.36816406 1790.47949219 2365.37109375 1816.51855469 2340.60351562 1846.95117188 c 0
EndSplineSet
EndChar

StartChar: uniE0C4
Encoding: 57540 57540 26
Width: 2048
GlyphClass: 2
Flags: MW
HStem: -501 10<791.487 973 791.487 973 791.487 973 798 973 798 978 798 973 798 978 798 973 798 978> -316 10<798 798 798 973 798 798 798 973 798 798 798 973> -245 185<-41 144 -41 144 -41 144 -41 144 -41 144 -41 144 241 426 -41 241 241 426 -41 241 241 426 -41 241 511 696 511 696 511 696> -30 10 -30 10 -20 40 -20 185 -15 185 -1 10<791.487 973 798 973 798 978 1319 1494> 2.89999 40 4 40 22.9 185 51.21 10 135 50 145 40 155 30 175 10 184 10<798 798 798 973 1319 1319 1319 1494> 233 40<1042.95 1214 1069 1214 1069 1234> 235.89 30 248 10<1564.49 1746 1571 1746 1571 1751> 418 40<1069 1069 1069 1214> 433 10<1571 1571 1571 1746> 493 185<-41 144 -41 144 241 426 -41 241 511 696 793 978 1049 1234> 702 50<785.434 953 818 953 818 978>
VStem: -41 185<-496 -311 -496 -311 -496 -311 -496 -311 -496 -311 -496 -311 -245 -60 -245 -60 -245 -60 4 189 253 438 493 678 727 912 961 1146 1188.9 1373.9 1430.11 1615.11 1686 1871 1686 1871 1686 1871> 241 185<-496 -311 -496 -311 -496 -311 -496 -311 -496 -311 -496 -311 -245 -60 -245 -60 -245 -60 4 189 253 438 493 678 727 912 961 1146 1188.9 1373.9 1430.11 1615.11 1686 1871 1686 1871 1686 1871> 511 185<-245 -60 -245 -60 -245 -60 -245 -60 -245 -60 -245 -60 4 189 493 678 727 912 961 1146 1188.9 1373.9 1430.11 1615.11 1686 1871 1686 1871 1686 1871> 768 235<727 912 719.434 919.566> 788 10<-491 -316 -491 -311 -491 -316 -491 -311 -491 -316 -491 -311 -491 -309.487 -491 -309.487 -491 -309.487 9 184> 973 10<-491 -316 -491 -316 -491 -316 -316 -316 -316 -316 -316 -316 9 184 184 184> 1029 40<273 418 273 438 273 444.053 981 1126 1208.9 1353.9> 1049 185<233 233 493 678 727 912 1686 1871 1686 1871 1686 1871> 1214 40<273 418 418 418 981 1126 1126 1126 1208.9 1353.9 1353.9 1353.9> 1309 10<9 184 9 189 9 190.513 732 907> 1494 10<9 184 184 184 732 907 907 907> 1561 10<258 433 258 438 258 439.513> 1746 10<258 433 433 433> 1817 10<1435.11 1610.11 1435.11 1615.11 1435.11 1616.62 1691 1866 1691 1866 1691 1866> 2002 10<1435.11 1610.11 1610.11 1610.11 1691 1866 1691 1866 1691 1866 1866 1866 1866 1866 1866 1866>
LayerCount: 2
Fore
SplineSet
804 1856 m 1xe089d1703f
 804 1701 l 1
 959 1701 l 1
 959 1856 l 1
 804 1856 l 1xe089d1703f
789 1886 m 2
 974 1886 l 2xe089c1703f
 983.079101562 1886 989 1877.4375 989 1871 c 2
 989 1686 l 2xe188c1703f
 989 1676.92089844 980.4375 1671 974 1671 c 2
 789 1671 l 2xe088d1703f
 779.920898438 1671 774 1679.5625 774 1686 c 2
 774 1871 l 2xe188c1703f
 774 1880.07910156 782.5625 1886 789 1886 c 2
804 1856 m 1
 804 1701 l 1
 959 1701 l 1xe089d1703f
 959 1856 l 1
 804 1856 l 1
789 1886 m 2
 974 1886 l 2xe089c1703f
 983.079101562 1886 989 1877.4375 989 1871 c 2
 989 1686 l 2xe188c1703f
 989 1676.92089844 980.4375 1671 974 1671 c 2
 789 1671 l 2xe088d1703f
 779.920898438 1671 774 1679.5625 774 1686 c 2
 774 1871 l 2xe188c1703f
 774 1880.07910156 782.5625 1886 789 1886 c 2
804 1856 m 1
 804 1701 l 1
 959 1701 l 1xe089d1703f
 959 1856 l 1
 804 1856 l 1
789 1886 m 2
 974 1886 l 2xe089c1703f
 983.079101562 1886 989 1877.4375 989 1871 c 2
 989 1686 l 2xe188c1703f
 989 1676.92089844 980.4375 1671 974 1671 c 2
 789 1671 l 2xe088d1703f
 779.920898438 1671 774 1679.5625 774 1686 c 2
 774 1871 l 2xe188c1703f
 774 1880.07910156 782.5625 1886 789 1886 c 2
1827 1866 m 1
 1827 1691 l 1
 2002 1691 l 1
 2002 1866 l 1
 1827 1866 l 1
1822 1876 m 2
 2007 1876 l 2
 2010.02636719 1876 2012 1873.14550781 2012 1871 c 2
 2012 1686 l 2
 2012 1682.97363281 2009.14550781 1681 2007 1681 c 2
 1822 1681 l 2
 1818.97363281 1681 1817 1683.85449219 1817 1686 c 2
 1817 1871 l 2xe188c1703f
 1817 1874.02636719 1819.85449219 1876 1822 1876 c 2
1827 1866 m 1
 1827 1691 l 1
 2002 1691 l 1
 2002 1866 l 1
 1827 1866 l 1
1822 1876 m 2
 2007 1876 l 2
 2010.02636719 1876 2012 1873.14550781 2012 1871 c 2
 2012 1686 l 2
 2012 1682.97363281 2009.14550781 1681 2007 1681 c 2
 1822 1681 l 2
 1818.97363281 1681 1817 1683.85449219 1817 1686 c 2
 1817 1871 l 2
 1817 1874.02636719 1819.85449219 1876 1822 1876 c 2
1827 1866 m 1
 1827 1691 l 1
 2002 1691 l 1
 2002 1866 l 1
 1827 1866 l 1
1822 1876 m 2
 2007 1876 l 2
 2010.02636719 1876 2012 1873.14550781 2012 1871 c 2
 2012 1686 l 2
 2012 1682.97363281 2009.14550781 1681 2007 1681 c 2
 1822 1681 l 2
 1818.97363281 1681 1817 1683.85449219 1817 1686 c 2
 1817 1871 l 2
 1817 1874.02636719 1819.85449219 1876 1822 1876 c 2
1314 1871 m 1
 1499 1871 l 1
 1499 1686 l 1
 1314 1686 l 1
 1314 1871 l 1
1314 1871 m 1
 1499 1871 l 1
 1499 1686 l 1
 1314 1686 l 1
 1314 1871 l 1
1314 1871 m 1
 1499 1871 l 1
 1499 1686 l 1
 1314 1686 l 1
 1314 1871 l 1
1049 1871 m 1xe188c170bf
 1234 1871 l 1
 1234 1686 l 1
 1049 1686 l 1
 1049 1871 l 1xe188c170bf
1049 1871 m 1
 1234 1871 l 1
 1234 1686 l 1
 1049 1686 l 1
 1049 1871 l 1
1049 1871 m 1
 1234 1871 l 1
 1234 1686 l 1
 1049 1686 l 1
 1049 1871 l 1
511 1871 m 1
 696 1871 l 1
 696 1686 l 1
 511 1686 l 1
 511 1871 l 1
511 1871 m 1
 696 1871 l 1
 696 1686 l 1
 511 1686 l 1
 511 1871 l 1
511 1871 m 1
 696 1871 l 1
 696 1686 l 1
 511 1686 l 1
 511 1871 l 1
241 1871 m 1
 426 1871 l 1
 426 1686 l 1
 241 1686 l 1
 241 1871 l 1
241 1871 m 1
 426 1871 l 1
 426 1686 l 1
 241 1686 l 1
 241 1871 l 1
241 1871 m 1
 426 1871 l 1
 426 1686 l 1
 241 1686 l 1
 241 1871 l 1
-41 1871 m 1
 144 1871 l 1
 144 1686 l 1
 -41 1686 l 1
 -41 1871 l 1
-41 1871 m 1
 144 1871 l 1
 144 1686 l 1
 -41 1686 l 1
 -41 1871 l 1
-41 1871 m 1
 144 1871 l 1
 144 1686 l 1
 -41 1686 l 1
 -41 1871 l 1
798 -316 m 1xe088c1763f
 798 -491 l 1
 973 -491 l 1
 973 -316 l 1
 798 -316 l 1xe088c1763f
793 -306 m 2
 978 -306 l 2
 981.026367188 -306 983 -308.854492188 983 -311 c 2
 983 -496 l 2
 983 -499.026367188 980.145507812 -501 978 -501 c 2
 793 -501 l 2
 789.973632812 -501 788 -498.145507812 788 -496 c 2
 788 -311 l 2
 788 -307.973632812 790.854492188 -306 793 -306 c 2
798 -316 m 1
 798 -491 l 1
 973 -491 l 1
 973 -316 l 1
 798 -316 l 1
793 -306 m 2
 978 -306 l 2
 981.026367188 -306 983 -308.854492188 983 -311 c 2
 983 -496 l 2
 983 -499.026367188 980.145507812 -501 978 -501 c 2
 793 -501 l 2
 789.973632812 -501 788 -498.145507812 788 -496 c 2
 788 -311 l 2
 788 -307.973632812 790.854492188 -306 793 -306 c 2
798 -316 m 1
 798 -491 l 1
 973 -491 l 1
 973 -316 l 1
 798 -316 l 1
793 -306 m 2
 978 -306 l 2
 981.026367188 -306 983 -308.854492188 983 -311 c 2
 983 -496 l 2
 983 -499.026367188 980.145507812 -501 978 -501 c 2
 793 -501 l 2
 789.973632812 -501 788 -498.145507812 788 -496 c 2
 788 -311 l 2
 788 -307.973632812 790.854492188 -306 793 -306 c 2
241 -311 m 1
 426 -311 l 1
 426 -496 l 1
 241 -496 l 1
 241 -311 l 1
241 -311 m 1
 426 -311 l 1
 426 -496 l 1
 241 -496 l 1
 241 -311 l 1
241 -311 m 1
 426 -311 l 1
 426 -496 l 1
 241 -496 l 1
 241 -311 l 1
-41 -311 m 1
 144 -311 l 1
 144 -496 l 1
 -41 -496 l 1
 -41 -311 l 1
-41 -311 m 1
 144 -311 l 1
 144 -496 l 1
 -41 -496 l 1
 -41 -311 l 1
-41 -311 m 1
 144 -311 l 1
 144 -496 l 1
 -41 -496 l 1
 -41 -311 l 1
1827 1610.11035156 m 1
 1827 1435.11035156 l 1
 2002 1435.11035156 l 1
 2002 1610.11035156 l 1
 1827 1610.11035156 l 1
1822 1620.11035156 m 2
 2007 1620.11035156 l 2
 2010.02636719 1620.11035156 2012 1617.25585938 2012 1615.11035156 c 2
 2012 1430.11035156 l 2
 2012 1427.08398438 2009.14550781 1425.11035156 2007 1425.11035156 c 2
 1822 1425.11035156 l 2
 1818.97363281 1425.11035156 1817 1427.96484375 1817 1430.11035156 c 2
 1817 1615.11035156 l 2
 1817 1618.13671875 1819.85449219 1620.11035156 1822 1620.11035156 c 2
1571 433 m 1xe088cb703f
 1571 258 l 1
 1746 258 l 1
 1746 433 l 1
 1571 433 l 1xe088cb703f
1566 443 m 2
 1751 443 l 2
 1754.02636719 443 1756 440.145507812 1756 438 c 2
 1756 253 l 2
 1756 249.973632812 1753.14550781 248 1751 248 c 2
 1566 248 l 2
 1562.97363281 248 1561 250.854492188 1561 253 c 2
 1561 438 l 2
 1561 441.026367188 1563.85449219 443 1566 443 c 2
1314 1615.11035156 m 1
 1499 1615.11035156 l 1
 1499 1430.11035156 l 1
 1314 1430.11035156 l 1
 1314 1615.11035156 l 1
1319 907 m 1xf888c1703f
 1319 732 l 1
 1494 732 l 1
 1494 907 l 1
 1319 907 l 1xf888c1703f
1314 917 m 2
 1499 917 l 2
 1502.02636719 917 1504 914.145507812 1504 912 c 2
 1504 727 l 2
 1504 723.973632812 1501.14550781 722 1499 722 c 2
 1314 722 l 2
 1310.97363281 722 1309 724.854492188 1309 727 c 2
 1309 912 l 2
 1309 915.026367188 1311.85449219 917 1314 917 c 2
1319 184 m 1
 1319 9 l 1
 1494 9 l 1
 1494 184 l 1
 1319 184 l 1
1314 194 m 2
 1499 194 l 2
 1502.02636719 194 1504 191.145507812 1504 189 c 2
 1504 4 l 2
 1504 0.9736328125 1501.14550781 -1 1499 -1 c 2
 1314 -1 l 2
 1310.97363281 -1 1309 1.8544921875 1309 4 c 2
 1309 189 l 2
 1309 192.026367188 1311.85449219 194 1314 194 c 2
1069 1353.90039062 m 1xe4c8c1717f
 1069 1208.90039062 l 1
 1214 1208.90039062 l 1
 1214 1353.90039062 l 1
 1069 1353.90039062 l 1xe4c8c1717f
1049 1393.90039062 m 2xe488c170bf
 1234 1393.90039062 l 2xe488c170bf
 1246.10644531 1393.90039062 1254 1382.484375 1254 1373.90039062 c 2
 1254 1188.90039062 l 2xe098c1707f
 1254 1176.79394531 1242.58398438 1168.90039062 1234 1168.90039062 c 2
 1049 1168.90039062 l 2xe0c8c170bf
 1036.89355469 1168.90039062 1029 1180.31640625 1029 1188.90039062 c 2
 1029 1373.90039062 l 2xe098c1713f
 1029 1386.00683594 1040.41601562 1393.90039062 1049 1393.90039062 c 2xe488c170bf
1069 1126 m 1xe0aac1717f
 1069 981 l 1
 1214 981 l 1
 1214 1126 l 1
 1069 1126 l 1xe0aac1717f
1049 1166 m 2xe08ac170bf
 1234 1166 l 2xe08ac170bf
 1246.10644531 1166 1254 1154.58398438 1254 1146 c 2
 1254 961 l 2xe288c1707f
 1254 948.893554688 1242.58398438 941 1234 941 c 2
 1049 941 l 2xe0a8c170bf
 1036.89355469 941 1029 952.416015625 1029 961 c 2
 1029 1146 l 2xe288c1713f
 1029 1158.10644531 1040.41601562 1166 1049 1166 c 2xe08ac170bf
1049 912 m 1
 1234 912 l 1
 1234 727 l 1
 1049 727 l 1
 1049 912 l 1
1049 678 m 1
 1234 678 l 1
 1234 493 l 1
 1049 493 l 1
 1049 678 l 1
1069 418 m 1xe088e5717f
 1069 273 l 1
 1214 273 l 1
 1214 418 l 1
 1069 418 l 1xe088e5717f
1049 458 m 2xe088e570bf
 1234 458 l 2xe088e570bf
 1246.10644531 458 1254 446.583984375 1254 438 c 2
 1254 253 l 2xe088e5707f
 1254 240.893554688 1242.58398438 233 1234 233 c 2
 1049 233 l 2xe088e570bf
 1036.89355469 233 1029 244.416015625 1029 253 c 2
 1029 438 l 2xe088e5713f
 1029 450.106445312 1040.41601562 458 1049 458 c 2xe088e570bf
793 1615.11035156 m 1
 978 1615.11035156 l 1
 978 1430.11035156 l 1
 793 1430.11035156 l 1
 793 1615.11035156 l 1
793 1373.90039062 m 1xe098c1703f
 978 1373.90039062 l 1
 978 1188.90039062 l 1
 793 1188.90039062 l 1
 793 1373.90039062 l 1xe098c1703f
818 887 m 1xe08cc1f03f
 818 752 l 1
 953 752 l 1
 953 887 l 1
 818 887 l 1xe08cc1f03f
793 937 m 2
 978 937 l 2
 993.1328125 937 1003 922.729492188 1003 912 c 2
 1003 727 l 2
 1003 711.8671875 988.729492188 702 978 702 c 2
 793 702 l 2
 777.8671875 702 768 716.270507812 768 727 c 2
 768 912 l 2xe08cc1f83f
 768 927.1328125 782.270507812 937 793 937 c 2
793 678 m 1
 978 678 l 1
 978 493 l 1
 793 493 l 1
 793 678 l 1
798 184 m 1xe088c1763f
 798 9 l 1
 973 9 l 1
 973 184 l 1
 798 184 l 1xe088c1763f
793 194 m 2
 978 194 l 2
 981.026367188 194 983 191.145507812 983 189 c 2
 983 4 l 2
 983 0.9736328125 980.145507812 -1 978 -1 c 2
 793 -1 l 2
 789.973632812 -1 788 1.8544921875 788 4 c 2
 788 189 l 2
 788 192.026367188 790.854492188 194 793 194 c 2
511 1615.11035156 m 1
 696 1615.11035156 l 1
 696 1430.11035156 l 1
 511 1430.11035156 l 1
 511 1615.11035156 l 1
511 1373.90039062 m 1xe098c1703f
 696 1373.90039062 l 1
 696 1188.90039062 l 1
 511 1188.90039062 l 1
 511 1373.90039062 l 1xe098c1703f
511 -60 m 1
 696 -60 l 1
 696 -245 l 1
 511 -245 l 1
 511 -60 l 1
511 1146 m 1xe288c1703f
 696 1146 l 1
 696 961 l 1
 511 961 l 1
 511 1146 l 1xe288c1703f
511 -60 m 1
 696 -60 l 1
 696 -245 l 1
 511 -245 l 1
 511 -60 l 1
511 912 m 1
 696 912 l 1
 696 727 l 1
 511 727 l 1
 511 912 l 1
511 678 m 1
 696 678 l 1
 696 493 l 1
 511 493 l 1
 511 678 l 1
511 189 m 1
 696 189 l 1
 696 4 l 1
 511 4 l 1
 511 189 l 1
511 -60 m 1
 696 -60 l 1
 696 -245 l 1
 511 -245 l 1
 511 -60 l 1
241 1615.11035156 m 1
 426 1615.11035156 l 1
 426 1430.11035156 l 1
 241 1430.11035156 l 1
 241 1615.11035156 l 1
241 1373.90039062 m 1xe098c1703f
 426 1373.90039062 l 1
 426 1188.90039062 l 1
 241 1188.90039062 l 1
 241 1373.90039062 l 1xe098c1703f
241 -60 m 1
 426 -60 l 1
 426 -245 l 1
 241 -245 l 1
 241 -60 l 1
241 1146 m 1xe288c1703f
 426 1146 l 1
 426 961 l 1
 241 961 l 1
 241 1146 l 1xe288c1703f
241 -60 m 1
 426 -60 l 1
 426 -245 l 1
 241 -245 l 1
 241 -60 l 1
241 912 m 1
 426 912 l 1
 426 727 l 1
 241 727 l 1
 241 912 l 1
241 678 m 1
 426 678 l 1
 426 493 l 1
 241 493 l 1
 241 678 l 1
241 438 m 1
 426 438 l 1
 426 253 l 1
 241 253 l 1
 241 438 l 1
241 189 m 1
 426 189 l 1
 426 4 l 1
 241 4 l 1
 241 189 l 1
241 -60 m 1
 426 -60 l 1
 426 -245 l 1
 241 -245 l 1
 241 -60 l 1
-41 1615.11035156 m 1
 144 1615.11035156 l 1
 144 1430.11035156 l 1
 -41 1430.11035156 l 1
 -41 1615.11035156 l 1
-41 1373.90039062 m 1xe098c1703f
 144 1373.90039062 l 1
 144 1188.90039062 l 1
 -41 1188.90039062 l 1
 -41 1373.90039062 l 1xe098c1703f
-41 -60 m 1
 144 -60 l 1
 144 -245 l 1
 -41 -245 l 1
 -41 -60 l 1
-41 1146 m 1xe288c1703f
 144 1146 l 1
 144 961 l 1
 -41 961 l 1
 -41 1146 l 1xe288c1703f
-41 -60 m 1
 144 -60 l 1
 144 -245 l 1
 -41 -245 l 1
 -41 -60 l 1
-41 912 m 1
 144 912 l 1
 144 727 l 1
 -41 727 l 1
 -41 912 l 1
-41 678 m 1
 144 678 l 1
 144 493 l 1
 -41 493 l 1
 -41 678 l 1
-41 438 m 1
 144 438 l 1
 144 253 l 1
 -41 253 l 1
 -41 438 l 1
-41 189 m 1
 144 189 l 1
 144 4 l 1
 -41 4 l 1
 -41 189 l 1
-41 -60 m 1
 144 -60 l 1
 144 -245 l 1
 -41 -245 l 1
 -41 -60 l 1
EndSplineSet
EndChar

StartChar: uniE0C5
Encoding: 57541 57541 27
Width: 2048
GlyphClass: 2
Flags: MW
HStem: -501 10<1035 1210 1035 1215 1035 1210 1035 1215 1035 1210 1035 1215 1035 1216.51 1035 1216.51 1035 1216.51> -316 10<1035 1210 1035 1210 1035 1210 1210 1210 1210 1210 1210 1210> -1 10<514 689 514 694 514 695.513 1035 1210> 184 10<514 689 689 689 1035 1210 1210 1210> 248 10<262 437 262 442 262 443.513> 433 10<262 437 437 437> 722 10<514 689 514 694 514 695.513> 907 10<514 689 689 689> 1425.11 10 1610.11 10
VStem: -4 10<1428.6 1610.11 1435.11 1610.11 1435.11 1615.11 1691 1866 1691 1866 1691 1866> 181 10<1435.11 1610.11 1435.11 1435.11 1691 1866 1691 1691 1691 1866 1691 1691 1691 1866 1691 1691> 252 10<251.487 433 258 433 258 438> 437 10<258 433 258 258> 504 10<2.48682 184 9 184 9 189 732 907> 689 10<9 184 9 9 732 907 732 732> 754 225<246.947 438 253 438 961 1146 1188.9 1373.9>
LayerCount: 2
Fore
SplineSet
1204 1856 m 1
 1204 1701 l 1
 1049 1701 l 1
 1049 1856 l 1
 1204 1856 l 1
1219 1886 m 2
 1034 1886 l 2
 1024.92089844 1886 1019 1877.4375 1019 1871 c 2
 1019 1686 l 2
 1019 1676.92089844 1027.5625 1671 1034 1671 c 2
 1219 1671 l 2
 1228.07910156 1671 1234 1679.5625 1234 1686 c 2
 1234 1871 l 2
 1234 1880.07910156 1225.4375 1886 1219 1886 c 2
1204 1856 m 1
 1204 1701 l 1
 1049 1701 l 1
 1049 1856 l 1
 1204 1856 l 1
1219 1886 m 2
 1034 1886 l 2
 1024.92089844 1886 1019 1877.4375 1019 1871 c 2
 1019 1686 l 2
 1019 1676.92089844 1027.5625 1671 1034 1671 c 2
 1219 1671 l 2
 1228.07910156 1671 1234 1679.5625 1234 1686 c 2
 1234 1871 l 2
 1234 1880.07910156 1225.4375 1886 1219 1886 c 2
1204 1856 m 1
 1204 1701 l 1
 1049 1701 l 1
 1049 1856 l 1
 1204 1856 l 1
1219 1886 m 2
 1034 1886 l 2
 1024.92089844 1886 1019 1877.4375 1019 1871 c 2
 1019 1686 l 2
 1019 1676.92089844 1027.5625 1671 1034 1671 c 2
 1219 1671 l 2
 1228.07910156 1671 1234 1679.5625 1234 1686 c 2
 1234 1871 l 2
 1234 1880.07910156 1225.4375 1886 1219 1886 c 2
181 1866 m 1
 181 1691 l 1
 6 1691 l 1
 6 1866 l 1
 181 1866 l 1
186 1876 m 2
 1 1876 l 2
 -2.0263671875 1876 -4 1873.14550781 -4 1871 c 2
 -4 1686 l 2
 -4 1682.97363281 -1.1455078125 1681 1 1681 c 2
 186 1681 l 2
 189.026367188 1681 191 1683.85449219 191 1686 c 2
 191 1871 l 2
 191 1874.02636719 188.145507812 1876 186 1876 c 2
181 1866 m 1
 181 1691 l 1
 6 1691 l 1
 6 1866 l 1
 181 1866 l 1
186 1876 m 2
 1 1876 l 2
 -2.0263671875 1876 -4 1873.14550781 -4 1871 c 2
 -4 1686 l 2
 -4 1682.97363281 -1.1455078125 1681 1 1681 c 2
 186 1681 l 2
 189.026367188 1681 191 1683.85449219 191 1686 c 2
 191 1871 l 2
 191 1874.02636719 188.145507812 1876 186 1876 c 2
181 1866 m 1
 181 1691 l 1
 6 1691 l 1
 6 1866 l 1
 181 1866 l 1
186 1876 m 2
 1 1876 l 2
 -2.0263671875 1876 -4 1873.14550781 -4 1871 c 2
 -4 1686 l 2
 -4 1682.97363281 -1.1455078125 1681 1 1681 c 2
 186 1681 l 2
 189.026367188 1681 191 1683.85449219 191 1686 c 2
 191 1871 l 2
 191 1874.02636719 188.145507812 1876 186 1876 c 2
694 1871 m 1
 509 1871 l 1
 509 1686 l 1
 694 1686 l 1
 694 1871 l 1
694 1871 m 1
 509 1871 l 1
 509 1686 l 1
 694 1686 l 1
 694 1871 l 1
694 1871 m 1
 509 1871 l 1
 509 1686 l 1
 694 1686 l 1
 694 1871 l 1
959 1871 m 1
 774 1871 l 1
 774 1686 l 1
 959 1686 l 1
 959 1871 l 1
959 1871 m 1
 774 1871 l 1
 774 1686 l 1
 959 1686 l 1
 959 1871 l 1
959 1871 m 1
 774 1871 l 1
 774 1686 l 1
 959 1686 l 1
 959 1871 l 1
1497 1871 m 1
 1312 1871 l 1
 1312 1686 l 1
 1497 1686 l 1
 1497 1871 l 1
1497 1871 m 1
 1312 1871 l 1
 1312 1686 l 1
 1497 1686 l 1
 1497 1871 l 1
1497 1871 m 1
 1312 1871 l 1
 1312 1686 l 1
 1497 1686 l 1
 1497 1871 l 1
1767 1871 m 1
 1582 1871 l 1
 1582 1686 l 1
 1767 1686 l 1
 1767 1871 l 1
1767 1871 m 1
 1582 1871 l 1
 1582 1686 l 1
 1767 1686 l 1
 1767 1871 l 1
1767 1871 m 1
 1582 1871 l 1
 1582 1686 l 1
 1767 1686 l 1
 1767 1871 l 1
2049 1871 m 1
 1864 1871 l 1
 1864 1686 l 1
 2049 1686 l 1
 2049 1871 l 1
2049 1871 m 1
 1864 1871 l 1
 1864 1686 l 1
 2049 1686 l 1
 2049 1871 l 1
2049 1871 m 1
 1864 1871 l 1
 1864 1686 l 1
 2049 1686 l 1
 2049 1871 l 1
1210 -316 m 1
 1210 -491 l 1
 1035 -491 l 1
 1035 -316 l 1
 1210 -316 l 1
1215 -306 m 2
 1030 -306 l 2
 1026.97363281 -306 1025 -308.854492188 1025 -311 c 2
 1025 -496 l 2
 1025 -499.026367188 1027.85449219 -501 1030 -501 c 2
 1215 -501 l 2
 1218.02636719 -501 1220 -498.145507812 1220 -496 c 2
 1220 -311 l 2
 1220 -307.973632812 1217.14550781 -306 1215 -306 c 2
1210 -316 m 1
 1210 -491 l 1
 1035 -491 l 1
 1035 -316 l 1
 1210 -316 l 1
1215 -306 m 2
 1030 -306 l 2
 1026.97363281 -306 1025 -308.854492188 1025 -311 c 2
 1025 -496 l 2
 1025 -499.026367188 1027.85449219 -501 1030 -501 c 2
 1215 -501 l 2
 1218.02636719 -501 1220 -498.145507812 1220 -496 c 2
 1220 -311 l 2
 1220 -307.973632812 1217.14550781 -306 1215 -306 c 2
1210 -316 m 1
 1210 -491 l 1
 1035 -491 l 1
 1035 -316 l 1
 1210 -316 l 1
1215 -306 m 2
 1030 -306 l 2
 1026.97363281 -306 1025 -308.854492188 1025 -311 c 2
 1025 -496 l 2
 1025 -499.026367188 1027.85449219 -501 1030 -501 c 2
 1215 -501 l 2
 1218.02636719 -501 1220 -498.145507812 1220 -496 c 2
 1220 -311 l 2
 1220 -307.973632812 1217.14550781 -306 1215 -306 c 2
1767 -311 m 1
 1582 -311 l 1
 1582 -496 l 1
 1767 -496 l 1
 1767 -311 l 1
1767 -311 m 1
 1582 -311 l 1
 1582 -496 l 1
 1767 -496 l 1
 1767 -311 l 1
1767 -311 m 1
 1582 -311 l 1
 1582 -496 l 1
 1767 -496 l 1
 1767 -311 l 1
2049 -311 m 1
 1864 -311 l 1
 1864 -496 l 1
 2049 -496 l 1
 2049 -311 l 1
2049 -311 m 1
 1864 -311 l 1
 1864 -496 l 1
 2049 -496 l 1
 2049 -311 l 1
2049 -311 m 1
 1864 -311 l 1
 1864 -496 l 1
 2049 -496 l 1
 2049 -311 l 1
181 1610.11035156 m 1
 181 1435.11035156 l 1
 6 1435.11035156 l 1
 6 1610.11035156 l 1
 181 1610.11035156 l 1
186 1620.11035156 m 2
 1 1620.11035156 l 2
 -2.0263671875 1620.11035156 -4 1617.25585938 -4 1615.11035156 c 2
 -4 1430.11035156 l 2
 -4 1427.08398438 -1.1455078125 1425.11035156 1 1425.11035156 c 2
 186 1425.11035156 l 2
 189.026367188 1425.11035156 191 1427.96484375 191 1430.11035156 c 2
 191 1615.11035156 l 2
 191 1618.13671875 188.145507812 1620.11035156 186 1620.11035156 c 2
437 433 m 1
 437 258 l 1
 262 258 l 1
 262 433 l 1
 437 433 l 1
442 443 m 2
 257 443 l 2
 253.973632812 443 252 440.145507812 252 438 c 2
 252 253 l 2
 252 249.973632812 254.854492188 248 257 248 c 2
 442 248 l 2
 445.026367188 248 447 250.854492188 447 253 c 2
 447 438 l 2
 447 441.026367188 444.145507812 443 442 443 c 2
694 1615.11035156 m 1
 509 1615.11035156 l 1
 509 1430.11035156 l 1
 694 1430.11035156 l 1
 694 1615.11035156 l 1
689 907 m 1
 689 732 l 1
 514 732 l 1
 514 907 l 1
 689 907 l 1
694 917 m 2
 509 917 l 2
 505.973632812 917 504 914.145507812 504 912 c 2
 504 727 l 2
 504 723.973632812 506.854492188 722 509 722 c 2
 694 722 l 2
 697.026367188 722 699 724.854492188 699 727 c 2
 699 912 l 2
 699 915.026367188 696.145507812 917 694 917 c 2
689 184 m 1
 689 9 l 1
 514 9 l 1
 514 184 l 1
 689 184 l 1
694 194 m 2
 509 194 l 2
 505.973632812 194 504 191.145507812 504 189 c 2
 504 4 l 2
 504 0.9736328125 506.854492188 -1 509 -1 c 2
 694 -1 l 2
 697.026367188 -1 699 1.8544921875 699 4 c 2
 699 189 l 2
 699 192.026367188 696.145507812 194 694 194 c 2
939 1353.90039062 m 1
 939 1208.90039062 l 1
 794 1208.90039062 l 1
 794 1353.90039062 l 1
 939 1353.90039062 l 1
959 1393.90039062 m 2
 774 1393.90039062 l 2
 761.893554688 1393.90039062 754 1382.484375 754 1373.90039062 c 2
 754 1188.90039062 l 2
 754 1176.79394531 765.416015625 1168.90039062 774 1168.90039062 c 2
 959 1168.90039062 l 2
 971.106445312 1168.90039062 979 1180.31640625 979 1188.90039062 c 2
 979 1373.90039062 l 2
 979 1386.00683594 967.583984375 1393.90039062 959 1393.90039062 c 2
939 1126 m 1
 939 981 l 1
 794 981 l 1
 794 1126 l 1
 939 1126 l 1
959 1166 m 2
 774 1166 l 2
 761.893554688 1166 754 1154.58398438 754 1146 c 2
 754 961 l 2
 754 948.893554688 765.416015625 941 774 941 c 2
 959 941 l 2
 971.106445312 941 979 952.416015625 979 961 c 2
 979 1146 l 2
 979 1158.10644531 967.583984375 1166 959 1166 c 2
959 912 m 1
 774 912 l 1
 774 727 l 1
 959 727 l 1
 959 912 l 1
959 678 m 1
 774 678 l 1
 774 493 l 1
 959 493 l 1
 959 678 l 1
939 418 m 1
 939 273 l 1
 794 273 l 1
 794 418 l 1
 939 418 l 1
959 458 m 2
 774 458 l 2
 761.893554688 458 754 446.583984375 754 438 c 2
 754 253 l 2
 754 240.893554688 765.416015625 233 774 233 c 2
 959 233 l 2
 971.106445312 233 979 244.416015625 979 253 c 2
 979 438 l 2
 979 450.106445312 967.583984375 458 959 458 c 2
1215 1615.11035156 m 1
 1030 1615.11035156 l 1
 1030 1430.11035156 l 1
 1215 1430.11035156 l 1
 1215 1615.11035156 l 1
1215 1373.90039062 m 1
 1030 1373.90039062 l 1
 1030 1188.90039062 l 1
 1215 1188.90039062 l 1
 1215 1373.90039062 l 1
1190 887 m 1
 1190 752 l 1
 1055 752 l 1
 1055 887 l 1
 1190 887 l 1
1215 937 m 2
 1030 937 l 2
 1014.8671875 937 1005 922.729492188 1005 912 c 2
 1005 727 l 2
 1005 711.8671875 1019.27050781 702 1030 702 c 2
 1215 702 l 2
 1230.1328125 702 1240 716.270507812 1240 727 c 2
 1240 912 l 2
 1240 927.1328125 1225.72949219 937 1215 937 c 2
1215 678 m 1
 1030 678 l 1
 1030 493 l 1
 1215 493 l 1
 1215 678 l 1
1210 184 m 1
 1210 9 l 1
 1035 9 l 1
 1035 184 l 1
 1210 184 l 1
1215 194 m 2
 1030 194 l 2
 1026.97363281 194 1025 191.145507812 1025 189 c 2
 1025 4 l 2
 1025 0.9736328125 1027.85449219 -1 1030 -1 c 2
 1215 -1 l 2
 1218.02636719 -1 1220 1.8544921875 1220 4 c 2
 1220 189 l 2
 1220 192.026367188 1217.14550781 194 1215 194 c 2
1497 1615.11035156 m 1
 1312 1615.11035156 l 1
 1312 1430.11035156 l 1
 1497 1430.11035156 l 1
 1497 1615.11035156 l 1
1497 1373.90039062 m 1
 1312 1373.90039062 l 1
 1312 1188.90039062 l 1
 1497 1188.90039062 l 1
 1497 1373.90039062 l 1
1497 -60 m 1
 1312 -60 l 1
 1312 -245 l 1
 1497 -245 l 1
 1497 -60 l 1
1497 1146 m 1
 1312 1146 l 1
 1312 961 l 1
 1497 961 l 1
 1497 1146 l 1
1497 -60 m 1
 1312 -60 l 1
 1312 -245 l 1
 1497 -245 l 1
 1497 -60 l 1
1497 912 m 1
 1312 912 l 1
 1312 727 l 1
 1497 727 l 1
 1497 912 l 1
1497 678 m 1
 1312 678 l 1
 1312 493 l 1
 1497 493 l 1
 1497 678 l 1
1497 189 m 1
 1312 189 l 1
 1312 4 l 1
 1497 4 l 1
 1497 189 l 1
1497 -60 m 1
 1312 -60 l 1
 1312 -245 l 1
 1497 -245 l 1
 1497 -60 l 1
1767 1615.11035156 m 1
 1582 1615.11035156 l 1
 1582 1430.11035156 l 1
 1767 1430.11035156 l 1
 1767 1615.11035156 l 1
1767 1373.90039062 m 1
 1582 1373.90039062 l 1
 1582 1188.90039062 l 1
 1767 1188.90039062 l 1
 1767 1373.90039062 l 1
1767 -60 m 1
 1582 -60 l 1
 1582 -245 l 1
 1767 -245 l 1
 1767 -60 l 1
1767 1146 m 1
 1582 1146 l 1
 1582 961 l 1
 1767 961 l 1
 1767 1146 l 1
1767 -60 m 1
 1582 -60 l 1
 1582 -245 l 1
 1767 -245 l 1
 1767 -60 l 1
1767 912 m 1
 1582 912 l 1
 1582 727 l 1
 1767 727 l 1
 1767 912 l 1
1767 678 m 1
 1582 678 l 1
 1582 493 l 1
 1767 493 l 1
 1767 678 l 1
1767 438 m 1
 1582 438 l 1
 1582 253 l 1
 1767 253 l 1
 1767 438 l 1
1767 189 m 1
 1582 189 l 1
 1582 4 l 1
 1767 4 l 1
 1767 189 l 1
1767 -60 m 1
 1582 -60 l 1
 1582 -245 l 1
 1767 -245 l 1
 1767 -60 l 1
2049 1615.11035156 m 1
 1864 1615.11035156 l 1
 1864 1430.11035156 l 1
 2049 1430.11035156 l 1
 2049 1615.11035156 l 1
2049 1373.90039062 m 1
 1864 1373.90039062 l 1
 1864 1188.90039062 l 1
 2049 1188.90039062 l 1
 2049 1373.90039062 l 1
2049 -60 m 1
 1864 -60 l 1
 1864 -245 l 1
 2049 -245 l 1
 2049 -60 l 1
2049 1146 m 1
 1864 1146 l 1
 1864 961 l 1
 2049 961 l 1
 2049 1146 l 1
2049 -60 m 1
 1864 -60 l 1
 1864 -245 l 1
 2049 -245 l 1
 2049 -60 l 1
2049 912 m 1
 1864 912 l 1
 1864 727 l 1
 2049 727 l 1
 2049 912 l 1
2049 678 m 1
 1864 678 l 1
 1864 493 l 1
 2049 493 l 1
 2049 678 l 1
2049 438 m 1
 1864 438 l 1
 1864 253 l 1
 2049 253 l 1
 2049 438 l 1
2049 189 m 1
 1864 189 l 1
 1864 4 l 1
 2049 4 l 1
 2049 189 l 1
2049 -60 m 1
 1864 -60 l 1
 1864 -245 l 1
 2049 -245 l 1
 2049 -60 l 1
EndSplineSet
EndChar

StartChar: uniE0C6
Encoding: 57542 57542 28
Width: 2048
GlyphClass: 2
Flags: MW
HStem: -586.75 60<1591.67 1848.25 1630.75 1848.25 1630.75 1878.25> -556.75 277.5<-34.25 243.25 -34.25 243.25 388.75 666.25 -34.25 388.75> -309.25 60<1630.75 1630.75 1630.75 1848.25> -221.75 50<786.184 1046.25 818.75 1046.25 818.75 1071.25> -196.75 277.5<-34.25 243.25 -34.25 243.25 388.75 666.25 -34.25 388.75> 55.75 50<818.75 818.75 818.75 1046.25> 116.75 75<1205.4 1456.75 1254.25 1456.75 1254.25 1494.25> 154.25 277.5<-34.25 243.25 -34.25 243.25 388.75 666.25 -34.25 388.75> 394.25 75<1254.25 1254.25 1254.25 1456.75> 505.25 277.5<-34.25 243.25 -34.25 243.25 793.75 1071.25> 817.101 60 834.601 25 1094.6 60 1112.1 25 1196.42 25 1473.92 25 1580.25 25<789.967 1058.75 789.967 1058.75 789.967 1058.75 806.25 1058.75 806.25 1071.25 806.25 1058.75 806.25 1071.25 806.25 1058.75 806.25 1071.25> 1592.75 277.5<-34.25 243.25 -34.25 243.25 -34.25 243.25 -34.25 243.25 -34.25 243.25 -34.25 243.25 388.75 666.25 -34.25 388.75 388.75 666.25 -34.25 388.75 388.75 666.25 -34.25 388.75> 1857.75 25<806.25 806.25 806.25 1058.75 806.25 806.25 806.25 1058.75 806.25 806.25 806.25 1058.75>
VStem: -34.25 277.5<-556.75 -279.25 -556.75 -279.25 -196.75 80.75 154.25 431.75 505.25 782.75 847.101 1124.6 1208.92 1486.42 1592.75 1870.25 1592.75 1870.25 1592.75 1870.25> 388.75 277.5<-556.75 -279.25 -556.75 -279.25 -196.75 80.75 154.25 431.75 847.101 1124.6 1208.92 1486.42 1592.75 1870.25 1592.75 1870.25 1592.75 1870.25> 768.75 50<-171.75 55.75 -171.75 80.75 -171.75 88.3164> 781.25 25<859.601 1112.1 859.601 1124.6 859.601 1128.38 1605.25 1857.75 1605.25 1857.75 1605.25 1857.75> 1046.25 50<-171.75 55.75 55.75 55.75> 1058.75 25<859.601 1112.1 1112.1 1112.1 1605.25 1857.75 1605.25 1857.75 1605.25 1857.75 1857.75 1857.75 1857.75 1857.75 1857.75 1857.75> 1179.25 75<191.75 394.25 191.75 431.75 191.75 443.1> 1188.25 45<1615.25 1847.75 1615.25 1870.25 1615.25 1847.75 1615.25 1870.25 1615.25 1847.75 1615.25 1870.25 1615.25 1877.06 1615.25 1877.06 1615.25 1877.06> 1204.25 25<1221.42 1473.92 1221.42 1486.42 1221.42 1490.2> 1456.75 75<191.75 394.25 394.25 394.25> 1465.75 45<1615.25 1847.75 1615.25 1847.75 1615.25 1847.75 1847.75 1847.75 1847.75 1847.75 1847.75 1847.75> 1481.75 25<1221.42 1473.92 1473.92 1473.92> 1570.75 60<-526.75 -309.25 -526.75 -279.25 -526.75 -270.17 877.101 1094.6> 1848.25 60<-526.75 -309.25 -309.25 -309.25 877.101 1094.6 1094.6 1094.6>
LayerCount: 2
Fore
SplineSet
1233.25 1847.75 m 1x0043182580
 1233.25 1615.25 l 1
 1465.75 1615.25 l 1
 1465.75 1847.75 l 1
 1233.25 1847.75 l 1x0043182580
1210.75 1892.75 m 2
 1488.25 1892.75 l 2
 1501.86816406 1892.75 1510.75 1879.90625 1510.75 1870.25 c 2
 1510.75 1592.75 l 2
 1510.75 1579.13183594 1497.90625 1570.25 1488.25 1570.25 c 2
 1210.75 1570.25 l 2
 1197.13183594 1570.25 1188.25 1583.09375 1188.25 1592.75 c 2
 1188.25 1870.25 l 2x0043582580
 1188.25 1883.86816406 1201.09375 1892.75 1210.75 1892.75 c 2
1233.25 1847.75 m 1
 1233.25 1615.25 l 1
 1465.75 1615.25 l 1
 1465.75 1847.75 l 1
 1233.25 1847.75 l 1
1210.75 1892.75 m 2
 1488.25 1892.75 l 2
 1501.86816406 1892.75 1510.75 1879.90625 1510.75 1870.25 c 2
 1510.75 1592.75 l 2
 1510.75 1579.13183594 1497.90625 1570.25 1488.25 1570.25 c 2
 1210.75 1570.25 l 2
 1197.13183594 1570.25 1188.25 1583.09375 1188.25 1592.75 c 2
 1188.25 1870.25 l 2
 1188.25 1883.86816406 1201.09375 1892.75 1210.75 1892.75 c 2
1233.25 1847.75 m 1
 1233.25 1615.25 l 1
 1465.75 1615.25 l 1
 1465.75 1847.75 l 1
 1233.25 1847.75 l 1
1210.75 1892.75 m 2
 1488.25 1892.75 l 2
 1501.86816406 1892.75 1510.75 1879.90625 1510.75 1870.25 c 2
 1510.75 1592.75 l 2
 1510.75 1579.13183594 1497.90625 1570.25 1488.25 1570.25 c 2
 1210.75 1570.25 l 2
 1197.13183594 1570.25 1188.25 1583.09375 1188.25 1592.75 c 2
 1188.25 1870.25 l 2
 1188.25 1883.86816406 1201.09375 1892.75 1210.75 1892.75 c 2
806.25 1857.75 m 1x0043ba8180
 806.25 1605.25 l 1
 1058.75 1605.25 l 1
 1058.75 1857.75 l 1
 806.25 1857.75 l 1x0043ba8180
793.75 1882.75 m 2
 1071.25 1882.75 l 2x00433a8180
 1078.81640625 1882.75 1083.75 1875.61523438 1083.75 1870.25 c 2
 1083.75 1592.75 l 2x00435a8180
 1083.75 1585.18359375 1076.61523438 1580.25 1071.25 1580.25 c 2
 793.75 1580.25 l 2x00439a8180
 786.18359375 1580.25 781.25 1587.38476562 781.25 1592.75 c 2
 781.25 1870.25 l 2x00435a8180
 781.25 1877.81640625 788.384765625 1882.75 793.75 1882.75 c 2
806.25 1857.75 m 1
 806.25 1605.25 l 1
 1058.75 1605.25 l 1x0043ba8180
 1058.75 1857.75 l 1
 806.25 1857.75 l 1
793.75 1882.75 m 2
 1071.25 1882.75 l 2x00433a8180
 1078.81640625 1882.75 1083.75 1875.61523438 1083.75 1870.25 c 2
 1083.75 1592.75 l 2x00435a8180
 1083.75 1585.18359375 1076.61523438 1580.25 1071.25 1580.25 c 2
 793.75 1580.25 l 2x00439a8180
 786.18359375 1580.25 781.25 1587.38476562 781.25 1592.75 c 2
 781.25 1870.25 l 2x00435a8180
 781.25 1877.81640625 788.384765625 1882.75 793.75 1882.75 c 2
806.25 1857.75 m 1
 806.25 1605.25 l 1
 1058.75 1605.25 l 1x0043ba8180
 1058.75 1857.75 l 1
 806.25 1857.75 l 1
793.75 1882.75 m 2
 1071.25 1882.75 l 2x00433a8180
 1078.81640625 1882.75 1083.75 1875.61523438 1083.75 1870.25 c 2
 1083.75 1592.75 l 2x00435a8180
 1083.75 1585.18359375 1076.61523438 1580.25 1071.25 1580.25 c 2
 793.75 1580.25 l 2x00439a8180
 786.18359375 1580.25 781.25 1587.38476562 781.25 1592.75 c 2
 781.25 1870.25 l 2x00435a8180
 781.25 1877.81640625 788.384765625 1882.75 793.75 1882.75 c 2
388.75 1870.25 m 1x0043580180
 666.25 1870.25 l 1
 666.25 1592.75 l 1
 388.75 1592.75 l 1
 388.75 1870.25 l 1x0043580180
388.75 1870.25 m 1
 666.25 1870.25 l 1
 666.25 1592.75 l 1
 388.75 1592.75 l 1
 388.75 1870.25 l 1
388.75 1870.25 m 1
 666.25 1870.25 l 1
 666.25 1592.75 l 1
 388.75 1592.75 l 1
 388.75 1870.25 l 1
-34.25 1870.25 m 1
 243.25 1870.25 l 1
 243.25 1592.75 l 1
 -34.25 1592.75 l 1
 -34.25 1870.25 l 1
-34.25 1870.25 m 1
 243.25 1870.25 l 1
 243.25 1592.75 l 1
 -34.25 1592.75 l 1
 -34.25 1870.25 l 1
-34.25 1870.25 m 1
 243.25 1870.25 l 1
 243.25 1592.75 l 1
 -34.25 1592.75 l 1
 -34.25 1870.25 l 1
1630.75 1094.60058594 m 1x006b180180
 1630.75 877.100585938 l 1
 1848.25 877.100585938 l 1
 1848.25 1094.60058594 l 1
 1630.75 1094.60058594 l 1x006b180180
1600.75 1154.60058594 m 2
 1878.25 1154.60058594 l 2
 1896.40917969 1154.60058594 1908.25 1137.4765625 1908.25 1124.60058594 c 2
 1908.25 847.100585938 l 2
 1908.25 828.940429688 1891.12597656 817.100585938 1878.25 817.100585938 c 2
 1600.75 817.100585938 l 2
 1582.59082031 817.100585938 1570.75 834.224609375 1570.75 847.100585938 c 2
 1570.75 1124.60058594 l 2
 1570.75 1142.76074219 1587.87402344 1154.60058594 1600.75 1154.60058594 c 2
1630.75 -309.25 m 1xa043180180
 1630.75 -526.75 l 1
 1848.25 -526.75 l 1
 1848.25 -309.25 l 1
 1630.75 -309.25 l 1xa043180180
1600.75 -249.25 m 2
 1878.25 -249.25 l 2x2043180180
 1896.40917969 -249.25 1908.25 -266.374023438 1908.25 -279.25 c 2
 1908.25 -556.75 l 2x4043180180
 1908.25 -574.909179688 1891.12597656 -586.75 1878.25 -586.75 c 2
 1600.75 -586.75 l 2x8043180180
 1582.59082031 -586.75 1570.75 -569.625976562 1570.75 -556.75 c 2
 1570.75 -279.25 l 2x4043180180
 1570.75 -261.090820312 1587.87402344 -249.25 1600.75 -249.25 c 2
1229.25 1473.91503906 m 1x0043181380
 1229.25 1221.41503906 l 1
 1481.75 1221.41503906 l 1
 1481.75 1473.91503906 l 1
 1229.25 1473.91503906 l 1x0043181380
1216.75 1498.91503906 m 2
 1494.25 1498.91503906 l 2
 1501.81640625 1498.91503906 1506.75 1491.78027344 1506.75 1486.41503906 c 2
 1506.75 1208.91503906 l 2
 1506.75 1201.34863281 1499.61523438 1196.41503906 1494.25 1196.41503906 c 2
 1216.75 1196.41503906 l 2
 1209.18359375 1196.41503906 1204.25 1203.54980469 1204.25 1208.91503906 c 2
 1204.25 1486.41503906 l 2
 1204.25 1493.98144531 1211.38476562 1498.91503906 1216.75 1498.91503906 c 2
1254.25 394.25 m 1x02c3184980
 1254.25 191.75 l 1
 1456.75 191.75 l 1
 1456.75 394.25 l 1
 1254.25 394.25 l 1x02c3184980
1216.75 469.25 m 2
 1494.25 469.25 l 2x00c3184980
 1516.94921875 469.25 1531.75 447.844726562 1531.75 431.75 c 2
 1531.75 154.25 l 2x0143184980
 1531.75 131.55078125 1510.34472656 116.75 1494.25 116.75 c 2
 1216.75 116.75 l 2x0243184980
 1194.05078125 116.75 1179.25 138.155273438 1179.25 154.25 c 2
 1179.25 431.75 l 2x0143184980
 1179.25 454.44921875 1200.65527344 469.25 1216.75 469.25 c 2
793.75 1486.41503906 m 1
 1071.25 1486.41503906 l 1
 1071.25 1208.91503906 l 1
 793.75 1208.91503906 l 1
 793.75 1486.41503906 l 1
806.25 1112.10058594 m 1x00571a8180
 806.25 859.600585938 l 1
 1058.75 859.600585938 l 1
 1058.75 1112.10058594 l 1
 806.25 1112.10058594 l 1x00571a8180
793.75 1137.10058594 m 2
 1071.25 1137.10058594 l 2
 1078.81640625 1137.10058594 1083.75 1129.96582031 1083.75 1124.60058594 c 2
 1083.75 847.100585938 l 2
 1083.75 839.534179688 1076.61523438 834.600585938 1071.25 834.600585938 c 2
 793.75 834.600585938 l 2
 786.18359375 834.600585938 781.25 841.735351562 781.25 847.100585938 c 2
 781.25 1124.60058594 l 2
 781.25 1132.16699219 788.384765625 1137.10058594 793.75 1137.10058594 c 2
793.75 782.75 m 1
 1071.25 782.75 l 1
 1071.25 505.25 l 1
 793.75 505.25 l 1
 793.75 782.75 l 1
818.75 55.75 m 1x14431d0180
 818.75 -171.75 l 1
 1046.25 -171.75 l 1
 1046.25 55.75 l 1
 818.75 55.75 l 1x14431d0180
793.75 105.75 m 2
 1071.25 105.75 l 2x04431d0180
 1086.3828125 105.75 1096.25 91.4794921875 1096.25 80.75 c 2
 1096.25 -196.75 l 2x08431d0180
 1096.25 -211.8828125 1081.97949219 -221.75 1071.25 -221.75 c 2
 793.75 -221.75 l 2x10431d0180
 778.6171875 -221.75 768.75 -207.479492188 768.75 -196.75 c 2
 768.75 80.75 l 2x08431d0180
 768.75 95.8828125 783.020507812 105.75 793.75 105.75 c 2
388.75 1486.41503906 m 1
 666.25 1486.41503906 l 1
 666.25 1208.91503906 l 1
 388.75 1208.91503906 l 1
 388.75 1486.41503906 l 1
388.75 1124.60058594 m 1
 666.25 1124.60058594 l 1
 666.25 847.100585938 l 1
 388.75 847.100585938 l 1
 388.75 1124.60058594 l 1
388.75 431.75 m 1x0143180180
 666.25 431.75 l 1
 666.25 154.25 l 1
 388.75 154.25 l 1
 388.75 431.75 l 1x0143180180
388.75 80.75 m 1x0843180180
 666.25 80.75 l 1
 666.25 -196.75 l 1
 388.75 -196.75 l 1
 388.75 80.75 l 1x0843180180
388.75 -279.25 m 1x4043180180
 666.25 -279.25 l 1
 666.25 -556.75 l 1
 388.75 -556.75 l 1
 388.75 -279.25 l 1x4043180180
-34.25 1486.41503906 m 1
 243.25 1486.41503906 l 1
 243.25 1208.91503906 l 1
 -34.25 1208.91503906 l 1
 -34.25 1486.41503906 l 1
-34.25 1124.60058594 m 1
 243.25 1124.60058594 l 1
 243.25 847.100585938 l 1
 -34.25 847.100585938 l 1
 -34.25 1124.60058594 l 1
-34.25 782.75 m 1
 243.25 782.75 l 1
 243.25 505.25 l 1
 -34.25 505.25 l 1
 -34.25 782.75 l 1
-34.25 431.75 m 1x0143180180
 243.25 431.75 l 1
 243.25 154.25 l 1
 -34.25 154.25 l 1
 -34.25 431.75 l 1x0143180180
-34.25 80.75 m 1x0843180180
 243.25 80.75 l 1
 243.25 -196.75 l 1
 -34.25 -196.75 l 1
 -34.25 80.75 l 1x0843180180
-34.25 -279.25 m 1x4043180180
 243.25 -279.25 l 1
 243.25 -556.75 l 1
 -34.25 -556.75 l 1
 -34.25 -279.25 l 1x4043180180
EndSplineSet
EndChar

StartChar: uniE0C7
Encoding: 57543 57543 29
Width: 2048
GlyphClass: 2
Flags: MW
HStem: 1092.1 20G 1453.92 20G
LayerCount: 2
Fore
SplineSet
640.75 1847.75 m 1
 640.75 1615.25 l 1
 408.25 1615.25 l 1
 408.25 1847.75 l 1
 640.75 1847.75 l 1
663.25 1892.75 m 2
 385.75 1892.75 l 2
 372.131835938 1892.75 363.25 1879.90625 363.25 1870.25 c 2
 363.25 1592.75 l 2
 363.25 1579.13183594 376.09375 1570.25 385.75 1570.25 c 2
 663.25 1570.25 l 2
 676.868164062 1570.25 685.75 1583.09375 685.75 1592.75 c 2
 685.75 1870.25 l 2
 685.75 1883.86816406 672.90625 1892.75 663.25 1892.75 c 2
640.75 1847.75 m 1
 640.75 1615.25 l 1
 408.25 1615.25 l 1
 408.25 1847.75 l 1
 640.75 1847.75 l 1
663.25 1892.75 m 2
 385.75 1892.75 l 2
 372.131835938 1892.75 363.25 1879.90625 363.25 1870.25 c 2
 363.25 1592.75 l 2
 363.25 1579.13183594 376.09375 1570.25 385.75 1570.25 c 2
 663.25 1570.25 l 2
 676.868164062 1570.25 685.75 1583.09375 685.75 1592.75 c 2
 685.75 1870.25 l 2
 685.75 1883.86816406 672.90625 1892.75 663.25 1892.75 c 2
640.75 1847.75 m 1
 640.75 1615.25 l 1
 408.25 1615.25 l 1
 408.25 1847.75 l 1
 640.75 1847.75 l 1
663.25 1892.75 m 2
 385.75 1892.75 l 2
 372.131835938 1892.75 363.25 1879.90625 363.25 1870.25 c 2
 363.25 1592.75 l 2
 363.25 1579.13183594 376.09375 1570.25 385.75 1570.25 c 2
 663.25 1570.25 l 2
 676.868164062 1570.25 685.75 1583.09375 685.75 1592.75 c 2
 685.75 1870.25 l 2
 685.75 1883.86816406 672.90625 1892.75 663.25 1892.75 c 2
1067.75 1857.75 m 1
 1067.75 1605.25 l 1
 815.25 1605.25 l 1
 815.25 1857.75 l 1
 1067.75 1857.75 l 1
1080.25 1882.75 m 2
 802.75 1882.75 l 2
 795.18359375 1882.75 790.25 1875.61523438 790.25 1870.25 c 2
 790.25 1592.75 l 2
 790.25 1585.18359375 797.384765625 1580.25 802.75 1580.25 c 2
 1080.25 1580.25 l 2
 1087.81640625 1580.25 1092.75 1587.38476562 1092.75 1592.75 c 2
 1092.75 1870.25 l 2
 1092.75 1877.81640625 1085.61523438 1882.75 1080.25 1882.75 c 2
1067.75 1857.75 m 1
 1067.75 1605.25 l 1
 815.25 1605.25 l 1
 815.25 1857.75 l 1
 1067.75 1857.75 l 1
1080.25 1882.75 m 2
 802.75 1882.75 l 2
 795.18359375 1882.75 790.25 1875.61523438 790.25 1870.25 c 2
 790.25 1592.75 l 2
 790.25 1585.18359375 797.384765625 1580.25 802.75 1580.25 c 2
 1080.25 1580.25 l 2
 1087.81640625 1580.25 1092.75 1587.38476562 1092.75 1592.75 c 2
 1092.75 1870.25 l 2
 1092.75 1877.81640625 1085.61523438 1882.75 1080.25 1882.75 c 2
1067.75 1857.75 m 1
 1067.75 1605.25 l 1
 815.25 1605.25 l 1
 815.25 1857.75 l 1
 1067.75 1857.75 l 1
1080.25 1882.75 m 2
 802.75 1882.75 l 2
 795.18359375 1882.75 790.25 1875.61523438 790.25 1870.25 c 2
 790.25 1592.75 l 2
 790.25 1585.18359375 797.384765625 1580.25 802.75 1580.25 c 2
 1080.25 1580.25 l 2
 1087.81640625 1580.25 1092.75 1587.38476562 1092.75 1592.75 c 2
 1092.75 1870.25 l 2
 1092.75 1877.81640625 1085.61523438 1882.75 1080.25 1882.75 c 2
1485.25 1870.25 m 1
 1207.75 1870.25 l 1
 1207.75 1592.75 l 1
 1485.25 1592.75 l 1
 1485.25 1870.25 l 1
1485.25 1870.25 m 1
 1207.75 1870.25 l 1
 1207.75 1592.75 l 1
 1485.25 1592.75 l 1
 1485.25 1870.25 l 1
1485.25 1870.25 m 1
 1207.75 1870.25 l 1
 1207.75 1592.75 l 1
 1485.25 1592.75 l 1
 1485.25 1870.25 l 1
1908.25 1870.25 m 1
 1630.75 1870.25 l 1
 1630.75 1592.75 l 1
 1908.25 1592.75 l 1
 1908.25 1870.25 l 1
1908.25 1870.25 m 1
 1630.75 1870.25 l 1
 1630.75 1592.75 l 1
 1908.25 1592.75 l 1
 1908.25 1870.25 l 1
1908.25 1870.25 m 1
 1630.75 1870.25 l 1
 1630.75 1592.75 l 1
 1908.25 1592.75 l 1
 1908.25 1870.25 l 1
243.25 1094.60058594 m 1
 243.25 877.100585938 l 1
 25.75 877.100585938 l 1
 25.75 1094.60058594 l 1
 243.25 1094.60058594 l 1
273.25 1154.60058594 m 2
 -4.25 1154.60058594 l 2
 -22.4091796875 1154.60058594 -34.25 1137.4765625 -34.25 1124.60058594 c 2
 -34.25 847.100585938 l 2
 -34.25 828.940429688 -17.1259765625 817.100585938 -4.25 817.100585938 c 2
 273.25 817.100585938 l 2
 291.409179688 817.100585938 303.25 834.224609375 303.25 847.100585938 c 2
 303.25 1124.60058594 l 2
 303.25 1142.76074219 286.125976562 1154.60058594 273.25 1154.60058594 c 2
243.25 -309.25 m 1
 243.25 -526.75 l 1
 25.75 -526.75 l 1
 25.75 -309.25 l 1
 243.25 -309.25 l 1
273.25 -249.25 m 2
 -4.25 -249.25 l 2
 -22.4091796875 -249.25 -34.25 -266.374023438 -34.25 -279.25 c 2
 -34.25 -556.75 l 2
 -34.25 -574.909179688 -17.1259765625 -586.75 -4.25 -586.75 c 2
 273.25 -586.75 l 2
 291.409179688 -586.75 303.25 -569.625976562 303.25 -556.75 c 2
 303.25 -279.25 l 2
 303.25 -261.090820312 286.125976562 -249.25 273.25 -249.25 c 2
644.75 1473.91503906 m 1
 644.75 1221.41503906 l 1
 392.25 1221.41503906 l 1
 392.25 1473.91503906 l 1
 644.75 1473.91503906 l 1
657.25 1498.91503906 m 2
 379.75 1498.91503906 l 2
 372.18359375 1498.91503906 367.25 1491.78027344 367.25 1486.41503906 c 2
 367.25 1208.91503906 l 2
 367.25 1201.34863281 374.384765625 1196.41503906 379.75 1196.41503906 c 2
 657.25 1196.41503906 l 2
 664.81640625 1196.41503906 669.75 1203.54980469 669.75 1208.91503906 c 2
 669.75 1486.41503906 l 2
 669.75 1493.98144531 662.615234375 1498.91503906 657.25 1498.91503906 c 2
619.75 394.25 m 1
 619.75 191.75 l 1
 417.25 191.75 l 1
 417.25 394.25 l 1
 619.75 394.25 l 1
657.25 469.25 m 2
 379.75 469.25 l 2
 357.05078125 469.25 342.25 447.844726562 342.25 431.75 c 2
 342.25 154.25 l 2
 342.25 131.55078125 363.655273438 116.75 379.75 116.75 c 2
 657.25 116.75 l 2
 679.94921875 116.75 694.75 138.155273438 694.75 154.25 c 2
 694.75 431.75 l 2
 694.75 454.44921875 673.344726562 469.25 657.25 469.25 c 2
1080.25 1486.41503906 m 1
 802.75 1486.41503906 l 1
 802.75 1208.91503906 l 1
 1080.25 1208.91503906 l 1
 1080.25 1486.41503906 l 1
1067.75 1112.10058594 m 1
 1067.75 859.600585938 l 1
 815.25 859.600585938 l 1
 815.25 1112.10058594 l 1
 1067.75 1112.10058594 l 1
1080.25 1137.10058594 m 2
 802.75 1137.10058594 l 2
 795.18359375 1137.10058594 790.25 1129.96582031 790.25 1124.60058594 c 2
 790.25 847.100585938 l 2
 790.25 839.534179688 797.384765625 834.600585938 802.75 834.600585938 c 2
 1080.25 834.600585938 l 2
 1087.81640625 834.600585938 1092.75 841.735351562 1092.75 847.100585938 c 2
 1092.75 1124.60058594 l 2
 1092.75 1132.16699219 1085.61523438 1137.10058594 1080.25 1137.10058594 c 2
1080.25 782.75 m 1
 802.75 782.75 l 1
 802.75 505.25 l 1
 1080.25 505.25 l 1
 1080.25 782.75 l 1
1055.25 55.75 m 1
 1055.25 -171.75 l 1
 827.75 -171.75 l 1
 827.75 55.75 l 1
 1055.25 55.75 l 1
1080.25 105.75 m 2
 802.75 105.75 l 2
 787.6171875 105.75 777.75 91.4794921875 777.75 80.75 c 2
 777.75 -196.75 l 2
 777.75 -211.8828125 792.020507812 -221.75 802.75 -221.75 c 2
 1080.25 -221.75 l 2
 1095.3828125 -221.75 1105.25 -207.479492188 1105.25 -196.75 c 2
 1105.25 80.75 l 2
 1105.25 95.8828125 1090.97949219 105.75 1080.25 105.75 c 2
1485.25 1486.41503906 m 1
 1207.75 1486.41503906 l 1
 1207.75 1208.91503906 l 1
 1485.25 1208.91503906 l 1
 1485.25 1486.41503906 l 1
1485.25 1124.60058594 m 1
 1207.75 1124.60058594 l 1
 1207.75 847.100585938 l 1
 1485.25 847.100585938 l 1
 1485.25 1124.60058594 l 1
1485.25 431.75 m 1
 1207.75 431.75 l 1
 1207.75 154.25 l 1
 1485.25 154.25 l 1
 1485.25 431.75 l 1
1485.25 80.75 m 1
 1207.75 80.75 l 1
 1207.75 -196.75 l 1
 1485.25 -196.75 l 1
 1485.25 80.75 l 1
1485.25 -279.25 m 1
 1207.75 -279.25 l 1
 1207.75 -556.75 l 1
 1485.25 -556.75 l 1
 1485.25 -279.25 l 1
1908.25 1486.41503906 m 1
 1630.75 1486.41503906 l 1
 1630.75 1208.91503906 l 1
 1908.25 1208.91503906 l 1
 1908.25 1486.41503906 l 1
1908.25 1124.60058594 m 1
 1630.75 1124.60058594 l 1
 1630.75 847.100585938 l 1
 1908.25 847.100585938 l 1
 1908.25 1124.60058594 l 1
1908.25 782.75 m 1
 1630.75 782.75 l 1
 1630.75 505.25 l 1
 1908.25 505.25 l 1
 1908.25 782.75 l 1
1908.25 431.75 m 1
 1630.75 431.75 l 1
 1630.75 154.25 l 1
 1908.25 154.25 l 1
 1908.25 431.75 l 1
1908.25 80.75 m 1
 1630.75 80.75 l 1
 1630.75 -196.75 l 1
 1908.25 -196.75 l 1
 1908.25 80.75 l 1
1908.25 -279.25 m 1
 1630.75 -279.25 l 1
 1630.75 -556.75 l 1
 1908.25 -556.75 l 1
 1908.25 -279.25 l 1
EndSplineSet
EndChar

StartChar: uniE0C8
Encoding: 57544 57544 30
Width: 2048
GlyphClass: 2
Flags: MW
HStem: -505.252 5.22266 -494.801 126.969 -472.545 5.05859 -449.969 18.8398 -425.809 5.31348 -362.819 4.70605 -320.87 5.0625 -281.666 5.49902 -278.666 5.08105 -268.502 164.619 -228.663 5.0625 -221.391 5.02344 -215.633 5.08398 -205.896 55.9912 -205.54 40.8643 -198.22 5.50098 -191.438 5.12012 -188.306 5.08203 -157.702 5.28418 -144.998 5.45801 -144.605 5.29785 -139.793 5.07812 -129.583 5.0625 -5.48734 5.06836 -5.26546 5.44824 -4.95233 5.0332 -4.90965 5.20703 -4.80234 103.96 -4.70291 22.7764 -4.67645 103.223 -4.59708 4.9209 -4.40004 5.07715 -4.12636 5.125 -4.08736 5.0625 -4.07835 5.08789 -4.07352 5.17969 -4.05553 5.28809 -4.00076 5.10352 -3.67729 59.0664 -3.34634 5.0625 -3.2627 5.0625 -3.09003 5.07324 -2.5972 5.0625 -1.37683 5.0625 -1.32385 5.05273 -1.03966 5.09473 -0.886978 141.75 -0.647354 5.0625 -0.456451 5.1709 -0.433502 5.28223 -0.277084 5.14062 -0.164978 5.0625 -0.161758 5.10547 0.0282898 5.07227 1.4641 210.33 14.144 40.584 43.1785 4.94043 44.7836 5.07031 70.6467 5.19727 70.8107 4.92285 70.9942 39.3398 71.1964 5.12012 72.0133 5.12109 72.3752 5.04785 72.9237 4.4375 73.1209 5.08887 73.9104 5.67285 74.8581 39.6025 75.8286 5.06445 75.8286 5.11719 76.1817 5.07812 76.2381 68.7695 77.5837 5.11426 119.582 33.0479 119.706 120.353 120.03 5.0625 121.218 5.15723 122.661 5.06348 124.696 5.0625 125.641 5.05566 126.062 5.2041 129.485 5.10742 131.055 5.07422 131.377 5.20215 131.941 5.05762 133.568 5.18359 133.902 79.3213 134.165 183.431 134.464 5.10547 134.655 5.16406 134.821 273.906 134.976 169.244 135.539 5.86816 136.164 5.08594 136.622 5.0957 136.74 5.48828
LayerCount: 2
Fore
SplineSet
-411.192382812 -534.587890625 m 2x86000102c0f04c90888b58
 -411.192382812 -537.119140625 -407.981445312 -539.645507812 -403.760742188 -539.645507812 c 0
 -403.427734375 -539.645507812 -279.624023438 -539.853515625 -242.9921875 -534.09375 c 0
 -207.717773438 -528.537109375 -141.420898438 -512.266601562 -107.75390625 -506.971679688 c 0
 -98.216796875 -505.469726562 -85.275390625 -505.251953125 -70.1806640625 -505.251953125 c 0
 -63.99609375 -505.251953125 -57.4541015625 -505.2890625 -50.6328125 -505.2890625 c 0
 -19.388671875 -505.2890625 17.6435546875 -504.520507812 52.224609375 -495.947265625 c 0
 107.6953125 -482.194335938 118.67578125 -472.544921875 164.631835938 -472.544921875 c 0
 168.383789062 -472.544921875 172.373046875 -472.608398438 176.63671875 -472.740234375 c 0
 195.865234375 -473.336914062 207.3828125 -473.682617188 215.165039062 -473.682617188 c 0
 230.497070312 -473.682617188 231.328125 -472.338867188 248.05078125 -468.918945312 c 0
 272.501953125 -463.916015625 378.887695312 -460.083984375 378.887695312 -460.083984375 c 2
 379.00390625 -460.079101562 379.236328125 -460.064453125 379.395507812 -460.0546875 c 0
 399.717773438 -458.393554688 408.84765625 -449.514648438 408.84765625 -440.633789062 c 0
 408.84765625 -431.467773438 399.120117188 -422.299804688 381.932617188 -421.067382812 c 0
 368.022460938 -420.068359375 354.681640625 -419.764648438 342.201171875 -419.764648438 c 0
 322.849609375 -419.764648438 305.55859375 -420.495117188 291.401367188 -420.495117188 c 0
 279.041992188 -420.495117188 269.068359375 -419.938476562 262.19140625 -417.853515625 c 0
 241.29296875 -411.525390625 236.209960938 -401.619140625 194.798828125 -394.088867188 c 0
 155.44140625 -386.9296875 129.018554688 -379.681640625 101.53125 -375.934570312 c 0
 72.576171875 -371.990234375 54.849609375 -373.126953125 47.525390625 -366.887695312 c 0
 38.28125 -359.004882812 16.8076171875 -357.991210938 -1.73046875 -357.991210938 c 0
 -8.142578125 -357.991210938 -14.205078125 -358.11328125 -19.2890625 -358.11328125 c 0
 -23.1025390625 -358.11328125 -26.3662109375 -358.044921875 -28.8134765625 -357.8046875 c 0
 -50.7939453125 -355.666015625 -75.59375 -353.29296875 -75.59375 -344.322265625 c 0
 -75.59375 -344.049804688 -75.5703125 -343.771484375 -75.5244140625 -343.48828125 c 0
 -74.0087890625 -334.1640625 4.4541015625 -320.870117188 65.59375 -320.870117188 c 0
 125.567382812 -320.870117188 141.73828125 -307.952148438 167.036132812 -306.388671875 c 0
 196.596679688 -304.555664062 267.64453125 -299.334960938 293.34765625 -293.491210938 c 0
 317.34765625 -288.033203125 330.141601562 -278.666015625 348.3046875 -278.666015625 c 0xae800102c0f04c90888b58
 350.708984375 -278.666015625 353.20703125 -278.829101562 355.836914062 -279.188476562 c 0
 365.232421875 -280.469726562 381.57421875 -281.666015625 398.458984375 -281.666015625 c 0
 425.1171875 -281.666015625 453.124023438 -278.681640625 457.271484375 -268.327148438 c 0
 458.23046875 -265.924804688 458.649414062 -263.6484375 458.649414062 -261.494140625 c 0
 458.649414062 -247.462890625 440.83984375 -238.6953125 439.004882812 -234.936523438 c 1
 445.959960938 -231.673828125 483.5703125 -228.663085938 497.83984375 -228.663085938 c 0
 514.995117188 -228.663085938 585.916992188 -223.229492188 607.482421875 -221.390625 c 0
 627.47265625 -219.685546875 705.029296875 -219.615234375 774.189453125 -215.991210938 c 0
 779.469726562 -215.711914062 786.33203125 -215.6328125 794.262695312 -215.6328125 c 0
 804.3046875 -215.6328125 816.05859375 -215.758789062 828.48046875 -215.758789062 c 0
 853.2109375 -215.758789062 880.5859375 -215.26171875 902.365234375 -212.2890625 c 0
 941.12109375 -207.002929688 972.307617188 -208.927734375 997.983398438 -205.041015625 c 0
 1014.125 -202.59375 1088.65722656 -208.901367188 1088.65722656 -183.821289062 c 0
 1088.65722656 -160.135742188 1054.62011719 -162.063476562 1000.35351562 -155.33984375 c 0
 982.260742188 -153.095703125 968.333007812 -152.41796875 957.185546875 -152.41796875 c 0
 940.2109375 -152.41796875 929.68359375 -153.989257812 920.704101562 -153.989257812 c 0
 915.799804688 -153.989257812 911.356445312 -153.520507812 906.578125 -152.072265625 c 0
 886.236328125 -145.916015625 856.139648438 -134.71484375 825.314453125 -134.71484375 c 0x8738250080e04c00808b58
 820.943359375 -134.71484375 816.557617188 -134.940429688 812.18359375 -135.436523438 c 0
 793.295898438 -137.580078125 773.330078125 -139.307617188 757.65625 -139.307617188 c 0
 746.510742188 -139.307617188 737.537109375 -138.434570312 732.663085938 -136.217773438 c 0
 713.904296875 -127.689453125 673.567382812 -124.520507812 643.6875 -124.520507812 c 0
 621.046875 -124.520507812 615.012695312 -128.909179688 607.1015625 -128.909179688 c 0
 602.806640625 -128.909179688 597.958007812 -127.616210938 589.600585938 -123.625 c 0
 558.892578125 -108.966796875 467.3125 -116.703125 439.193359375 -110.31640625 c 0
 411.220703125 -103.955078125 390.270507812 -91.806640625 327.849609375 -91.806640625 c 0
 323.623046875 -91.806640625 319.20703125 -91.86328125 314.584960938 -91.9794921875 c 0
 283.561523438 -92.763671875 253.5 -93.4296875 227.732421875 -93.4296875 c 0
 194.02734375 -93.4296875 167.668945312 -92.2900390625 156.124023438 -88.791015625 c 0
 126.59375 -79.8525390625 106.49609375 -82.345703125 106.49609375 -77.017578125 c 0
 106.49609375 -76.5224609375 106.669921875 -75.9599609375 107.02734375 -75.314453125 c 0
 113.508789062 -63.5126953125 112.27734375 -66.0595703125 159.276367188 -62.287109375 c 0
 203.9140625 -58.7080078125 285.712890625 -56.9375 307.828125 -55.048828125 c 0
 329.625 -53.1953125 351.826171875 -49.462890625 371.584960938 -41.765625 c 0
 388.349609375 -35.234375 455.705078125 -20.7392578125 473.96875 -20.7392578125 c 0
 496.521484375 -20.7392578125 543.592773438 -9.720703125 558.202148438 -9.720703125 c 0
 558.985351562 -9.720703125 559.673828125 -9.751953125 560.263671875 -9.818359375 c 0
 569.494140625 -10.8671875 592.392578125 -18.6328125 616.029296875 -18.6328125 c 0
 624.703125 -18.6328125 633.47265625 -17.5869140625 641.70703125 -14.78125 c 0
 666.258789062 -6.4111328125 688.265625 -8.1669921875 710.90234375 -6.2333984375 c 0
 731.743164062 -4.4580078125 774.196289062 -2.69921875 799.096679688 1.0791015625 c 0
 813.900390625 3.3212890625 842.991210938 17.369140625 842.991210938 28.6328125 c 0
 842.991210938 34.3701171875 835.4453125 39.384765625 814.620117188 41.7509765625 c 0
 767.671875 47.0849609375 730.3359375 56.2216796875 686.576171875 58.080078125 c 0
 681.18359375 58.3115234375 676.333007812 58.4091796875 671.913085938 58.4091796875 c 0x86000b0080e04c00808b5804
 647.029296875 58.4091796875 635.84375 55.310546875 618.900390625 55.310546875 c 0
 614.028320312 55.310546875 608.6796875 55.5673828125 602.391601562 56.2265625 c 0
 573.396484375 59.2666015625 551.228515625 63.888671875 527.450195312 63.888671875 c 0
 523.576171875 63.888671875 519.658203125 63.7666015625 515.663085938 63.494140625 c 0
 512.287109375 63.263671875 508.17578125 63.1640625 503.4921875 63.1640625 c 0
 473.89453125 63.1640625 421.350585938 67.1328125 386.46484375 67.1328125 c 0
 348.237304688 67.1328125 317.674804688 75.830078125 298.336914062 79.595703125 c 0
 278.338867188 83.4873046875 261.225585938 83.2998046875 235.977539062 91.912109375 c 0
 204.25 102.732421875 150.401367188 106.6484375 150.401367188 118.615234375 c 0
 150.401367188 120.26953125 151.431640625 122.076171875 153.6875 124.076171875 c 0
 178.0859375 145.6953125 275.474609375 178.147460938 325.46875 178.147460938 c 0
 381.641601562 178.147460938 390.852539062 198.713867188 419.4140625 201.708984375 c 0
 453.384765625 205.274414062 570.044921875 212.506835938 591.572265625 214.345703125 c 0
 612.259765625 216.111328125 879.6328125 226.814453125 926.481445312 234.329101562 c 0
 972.126953125 241.655273438 981.372070312 245.067382812 1031.23632812 246.856445312 c 0
 1035.5234375 247.010742188 1039.48242188 247.077148438 1043.17382812 247.077148438 c 0x8600410180e04c00848b58
 1068.36132812 247.077148438 1081.0546875 243.9453125 1100.33496094 243.9453125 c 0
 1109.82617188 243.9453125 1120.91308594 244.704101562 1135.87597656 246.970703125 c 0
 1183.54199219 254.193359375 1250.26757812 264.930664062 1277.46484375 264.930664062 c 0
 1311.68164062 264.930664062 1305.29394531 275.778320312 1322.54492188 275.778320312 c 0
 1339.40820312 275.778320312 1358.17675781 266.07421875 1395.65332031 266.07421875 c 0
 1401.18359375 266.07421875 1407.12304688 266.28515625 1413.52148438 266.770507812 c 0
 1460.85546875 270.354492188 1592.47558594 271.49609375 1625.27148438 281.66015625 c 0
 1632.50488281 283.90234375 1642.84765625 284.631835938 1654.484375 284.631835938 c 0
 1676.32421875 284.631835938 1702.72851562 282.05859375 1721.69628906 282.05859375 c 0
 1728.27832031 282.05859375 1733.96679688 282.369140625 1738.2578125 283.203125 c 0
 1740.24902344 283.592773438 1742.39160156 283.749023438 1744.76464844 283.749023438 c 0
 1754.51464844 283.749023438 1768.15234375 281.109375 1791.26367188 281.109375 c 0
 1801.37109375 281.109375 1813.28710938 281.61328125 1827.48730469 283.065429688 c 0
 1880.24609375 288.462890625 1994.34667969 297.51171875 2044.60351562 301.119140625 c 0
 2085.97558594 304.08984375 2116.19824219 306.997070312 2148.5078125 306.997070312 c 0
 2155.734375 306.997070312 2163.06445312 306.850585938 2170.6484375 306.529296875 c 0
 2174.20507812 306.376953125 2177.67285156 306.307617188 2181.0546875 306.307617188 c 0
 2219.99023438 306.307617188 2247.66796875 315.555664062 2271.88476562 315.555664062 c 0
 2280.73632812 315.555664062 2299.59960938 314.674804688 2320.37890625 314.674804688 c 0
 2356.72363281 314.674804688 2398.94042969 317.369140625 2403.765625 332.177734375 c 0
 2405.125 336.346679688 2406.18945312 340.3515625 2406.18945312 344.071289062 c 0
 2406.18945312 356.555664062 2394.1953125 365.81640625 2341.125 367.264648438 c 0
 2325.54785156 367.688476562 2306.91601562 367.821289062 2287.05566406 367.821289062 c 0
 2253.1015625 367.821289062 2215.55273438 367.430664062 2183.546875 367.430664062 c 0x8600810085e05c40828b5c
 2154.16503906 367.430664062 2129.453125 367.759765625 2116.47460938 369.024414062 c 0
 2082.82714844 372.3046875 2026.03710938 381.9375 1984.60644531 381.9375 c 0
 1981.08007812 381.9375 1977.66894531 381.869140625 1974.39257812 381.719726562 c 0
 1938.4609375 380.088867188 1897.24804688 372.017578125 1874.03320312 372.017578125 c 0
 1870.65625 372.017578125 1867.6640625 372.188476562 1865.12109375 372.57421875 c 0
 1840.72851562 376.266601562 1769.7265625 385.348632812 1741.52734375 385.348632812 c 0
 1714.66992188 385.348632812 1658.98242188 383.5390625 1632.79980469 383.5390625 c 0
 1610.82714844 383.5390625 1588.86035156 377.5 1569.87402344 377.5 c 0
 1562.43261719 377.5 1555.44726562 378.428710938 1549.1015625 381.012695312 c 0
 1489.47363281 405.30078125 1439.29492188 408.336914062 1403.15429688 408.336914062 c 0
 1391.11132812 408.336914062 1380.62890625 407.999023438 1371.87109375 407.999023438 c 0
 1361.11621094 407.999023438 1352.97167969 408.5078125 1347.75 410.774414062 c 0
 1318.54199219 423.446289062 1314.29980469 426.930664062 1237.6875 426.930664062 c 0
 1167.52734375 426.930664062 1140.55175781 437.966796875 1100.67578125 437.966796875 c 0x8600010080e14c02a09b78
 1097.65722656 437.966796875 1094.56445312 437.904296875 1091.37597656 437.767578125 c 0
 1064.0390625 436.604492188 1042.6328125 433.104492188 1024.2890625 433.104492188 c 0
 1012.67871094 433.104492188 1002.29296875 434.5078125 992.40625 438.795898438 c 0
 979.892578125 444.224609375 957.153320312 445.618164062 932.140625 445.618164062 c 0
 905.744140625 445.618164062 876.8203125 444.06640625 854.70703125 444.06640625 c 0
 841.39453125 444.06640625 830.551757812 444.62890625 824.212890625 446.4296875 c 0
 790.28515625 456.071289062 765.16796875 452.342773438 729.595703125 455.813476562 c 0
 691.034179688 459.565429688 700.331054688 455.868164062 672.153320312 461.107421875 c 0
 654.208007812 464.4453125 651.638671875 472.556640625 627.237304688 472.556640625 c 0
 620.189453125 472.556640625 611.318359375 471.87890625 599.73046875 470.21484375 c 0
 587.732421875 468.4921875 578.591796875 467.865234375 571.123046875 467.865234375 c 0x8600010080e04c04808bd801
 551.078125 467.865234375 543.0546875 472.3828125 524.080078125 472.3828125 c 0x8600010080e04c00808b5880
 521.514648438 472.3828125 518.75 472.30078125 515.727539062 472.11328125 c 0
 508.594726562 471.670898438 492.275390625 471.467773438 471.46875 471.467773438 c 0
 411.568359375 471.467773438 314.463867188 473.153320312 292.216796875 475.677734375 c 0
 285.359375 476.458007812 278.41015625 476.732421875 271.532226562 476.732421875 c 0
 255.39453125 476.732421875 239.662109375 475.224609375 226.484375 475.224609375 c 0
 215.681640625 475.224609375 206.59765625 476.237304688 200.419921875 479.924804688 c 0
 194.2421875 483.612304688 190.696289062 486.549804688 190.03515625 487.8046875 c 0
 192.240234375 489.302734375 207.822265625 493.549804688 246.709960938 496.392578125 c 0
 321.234375 501.8359375 403.163085938 508.866210938 439.512695312 518.392578125 c 0
 472.512695312 527.048828125 565.46875 538 603.298828125 545.37109375 c 0
 639.817382812 552.486328125 660.24609375 567.346679688 705.701171875 567.346679688 c 0
 710.182617188 567.346679688 714.909179688 567.201171875 719.915039062 566.892578125 c 0
 727.444335938 566.42578125 734.245117188 566.219726562 740.4453125 566.219726562 c 0
 783.833984375 566.219726562 797.84375 576.305664062 827.1875 577.73828125 c 0
 853.322265625 579.005859375 919.896484375 574.477539062 919.896484375 593.735351562 c 0
 919.896484375 595.28125 919.467773438 596.98046875 918.556640625 598.849609375 c 0
 908.962890625 618.474609375 884.721679688 624.017578125 819 625.8125 c 0
 753.669921875 627.591796875 729.291015625 638.112304688 700.831054688 641.98828125 c 0
 694.2109375 642.892578125 687.39453125 643.216796875 680.216796875 643.216796875 c 0
 661.841796875 643.216796875 641.104492188 641.087890625 615.299804688 641.087890625 c 0
 606.2265625 641.087890625 596.526367188 641.3515625 586.084960938 642.0625 c 0
 532.694335938 645.706054688 498.325195312 645.80078125 470.620117188 650.951171875 c 0
 445.07421875 655.700195312 382.625 669.790039062 352.145507812 669.790039062 c 0
 348.165039062 669.790039062 344.731445312 669.549804688 341.995117188 669.016601562 c 0
 339.389648438 668.508789062 334.083984375 668.30078125 327.125 668.30078125 c 0
 297.654296875 668.30078125 238.521484375 672.047851562 229.126953125 672.724609375 c 0
 227.1328125 673.278320312 218.0390625 676.263671875 215.479492188 678.46875 c 1
 217.07421875 679.3828125 223.934570312 682.196289062 239.545898438 684.510742188 c 0
 258.8203125 687.3671875 282.12890625 688.064453125 306.041015625 688.064453125 c 0
 328.83984375 688.064453125 352.19140625 687.430664062 373.123046875 687.430664062 c 0
 397.517578125 687.430664062 418.624023438 688.291992188 431.748046875 692.020507812 c 0
 462.32421875 700.701171875 498.66796875 704.310546875 538.104492188 706.100585938 c 0
 561.439453125 707.163085938 637.495117188 713.83203125 637.495117188 727.278320312 c 0
 637.495117188 729.666992188 635.095703125 732.267578125 629.575195312 735.090820312 c 0
 605.466796875 747.42578125 526.233398438 759.612304688 492.53125 759.612304688 c 0
 482.127929688 759.612304688 471.012695312 759.443359375 459.7265625 759.443359375 c 0
 436.06640625 759.443359375 411.65625 760.185546875 391.4609375 764.7734375 c 0
 377.872070312 767.86328125 361.930664062 768.538085938 344.884765625 768.538085938 c 0
 331.669921875 768.538085938 317.787109375 768.131835938 303.8203125 768.131835938 c 0
 289.266601562 768.131835938 274.623046875 768.572265625 260.544921875 770.370117188 c 0
 134.842773438 786.438476562 182.865234375 787.283203125 138.212890625 836.755859375 c 0
 108.23828125 869.970703125 90.7177734375 873.67578125 90.7177734375 883.821289062 c 0
 90.7177734375 888.815429688 94.9638671875 895.370117188 104.0625 907.775390625 c 0
 131.3828125 945.037109375 213.1953125 962.830078125 241.286132812 972.40625 c 0
 264.880859375 980.454101562 331.038085938 980.119140625 355.922851562 990.7265625 c 0
 373.172851562 998.07421875 452.818359375 998.845703125 486.375976562 1004.5703125 c 0
 490.095703125 1005.20410156 494.030273438 1005.45507812 498.12109375 1005.45507812 c 0x8600018088e84c01808b5802
 513.981445312 1005.45507812 532.220703125 1001.67773438 549.66796875 1001.67773438 c 0
 559.880859375 1001.67773438 569.821289062 1002.97070312 578.85546875 1007.07714844 c 0
 592.814453125 1013.42089844 610.286132812 1018.38574219 630.408203125 1018.38574219 c 0
 642.599609375 1018.38574219 655.764648438 1016.56347656 669.716796875 1012.12402344 c 0
 678.376953125 1009.37011719 689.51171875 1008.22753906 702.073242188 1008.22753906 c 0
 754.284179688 1008.22753906 831.201171875 1027.94824219 858.009765625 1033.57128906 c 0
 890.908203125 1040.47265625 997.104492188 1047.81445312 1026.87109375 1051.51171875 c 0
 1044.30078125 1053.67089844 1143.70117188 1052.08105469 1143.70117188 1076.46972656 c 0
 1143.70117188 1078.72363281 1142.85058594 1081.20117188 1141.00976562 1083.92382812 c 0
 1122.93945312 1110.62109375 1083.34082031 1112.17871094 1041.453125 1112.17871094 c 0
 1019.00976562 1112.17871094 1003.28417969 1110.37109375 987.651367188 1110.37109375 c 0
 972.37109375 1110.37109375 957.1796875 1112.09765625 935.89453125 1118.93164062 c 0
 901.131835938 1130.08203125 833.50390625 1136.07226562 788.189453125 1136.07226562 c 0x8600114080e04c20808f58
 771.721679688 1136.07226562 758.200195312 1135.28125 750.275390625 1133.65917969 c 0
 746.96484375 1132.98242188 744.366210938 1132.6875 742.248046875 1132.6875 c 0
 729.9453125 1132.6875 733.571289062 1142.56445312 705.493164062 1144.69335938 c 0
 681.65234375 1146.49316406 628.887695312 1150.25585938 598.810546875 1158.79394531 c 0
 590.21484375 1161.23730469 582.657226562 1162.13574219 575.951171875 1162.13574219 c 0
 557.215820312 1162.13574219 545.09765625 1155.11621094 535.3515625 1155.11621094 c 0
 531.59765625 1155.11621094 528.197265625 1156.15722656 524.908203125 1159.04101562 c 0
 504.640625 1176.80859375 426.22265625 1195.46875 393.030273438 1195.46875 c 0
 391.357421875 1195.46875 389.798828125 1195.42089844 388.37109375 1195.32324219 c 0
 386.369140625 1195.1875 384.200195312 1195.12304688 381.885742188 1195.12304688 c 0
 356.569335938 1195.12304688 313.939453125 1202.75585938 284.262695312 1206.12597656 c 0
 252.3359375 1209.75 109.899414062 1227.89355469 70.90234375 1227.89355469 c 0
 42.4697265625 1227.89355469 -2.9111328125 1235.66992188 -2.9111328125 1250.01660156 c 0
 -2.9111328125 1255.90429688 4.7353515625 1262.89941406 24.3369140625 1270.91992188 c 0
 101.973632812 1302.6796875 227.06640625 1290.29492188 249.240234375 1297.85449219 c 0
 261.44921875 1302.01757812 394.723632812 1306.34765625 437.765625 1310.015625 c 0
 476.70703125 1313.33105469 529.126953125 1332.93164062 563.862304688 1332.93164062 c 0x86000100b0e04c00c08b5808
 570.674804688 1332.93164062 576.8046875 1332.17871094 582.024414062 1330.39941406 c 0
 603.911132812 1322.93652344 644.056640625 1317.93457031 678.947265625 1317.93457031 c 0
 705.4765625 1317.93457031 728.970703125 1320.82617188 739.09375 1327.73046875 c 0
 740.85546875 1328.93066406 742.822265625 1329.42675781 745.004882812 1329.42675781 c 0
 755.338867188 1329.42675781 770.5546875 1318.33398438 792.155273438 1318.33398438 c 0
 799.688476562 1318.33398438 807.99609375 1319.68261719 817.143554688 1323.3203125 c 0
 845.995117188 1334.79980469 927.92578125 1338.90820312 952.114257812 1340.7421875 c 0
 978.100585938 1342.71582031 997.889648438 1355.66894531 1020.12402344 1355.66894531 c 0x8601010080e44c00808b5840
 1022.34667969 1355.66894531 1024.59082031 1355.54003906 1026.87109375 1355.2578125 c 0
 1040.76855469 1353.53417969 1079.49902344 1351.79882812 1123.70117188 1351.79882812 c 0
 1177.55566406 1351.79882812 1239.53125 1354.375 1274.59277344 1362.69335938 c 0
 1299.65820312 1368.63476562 1320.77148438 1370.08105469 1339.66015625 1370.08105469 c 0
 1357.58886719 1370.08105469 1373.50976562 1368.77929688 1388.90234375 1368.77929688 c 0
 1395.50488281 1368.77929688 1402.00976562 1369.01757812 1408.53222656 1369.703125 c 0
 1440.81542969 1373.08496094 1510.22851562 1371.75 1530.015625 1389.75 c 0
 1535.01171875 1394.29101562 1537.27832031 1399.80566406 1537.27832031 1405.35839844 c 0
 1537.27832031 1419.08105469 1523.43359375 1433.02636719 1502.765625 1433.02636719 c 0x8600012080e0ec00808b58
 1499.58789062 1433.02636719 1496.25 1432.69628906 1492.77539062 1431.98632812 c 0
 1482.1171875 1429.80566406 1474.19140625 1428.49414062 1465.88867188 1428.49414062 c 0
 1454.38476562 1428.49414062 1442.15722656 1431.00976562 1420.93359375 1437.2109375 c 0
 1383.41601562 1448.17675781 1360.25 1452.08691406 1314.58984375 1452.08691406 c 0
 1271.2734375 1452.08691406 1275.88476562 1459.3203125 1245.640625 1459.3203125 c 0
 1221.03710938 1459.3203125 1221.20117188 1451.38183594 1206.85058594 1451.38183594 c 0
 1200.64453125 1451.38183594 1191.72753906 1452.86523438 1176.92285156 1457.11523438 c 0
 1125.81152344 1471.78808594 1077.0390625 1479.20996094 1028.19726562 1479.20996094 c 0
 980.740234375 1479.20996094 941.346679688 1481.00390625 901.88671875 1484.58886719 c 0
 869.221679688 1487.55859375 866.01171875 1502.85351562 809.673828125 1502.85351562 c 0
 806.560546875 1502.85351562 803.28125 1502.80566406 799.829101562 1502.70703125 c 0
 756.1484375 1501.46777344 746.32421875 1495.40527344 736.84765625 1495.40527344 c 0
 731.40234375 1495.40527344 726.07421875 1497.40722656 714.506835938 1503.47363281 c 0
 691.91796875 1515.3203125 699.2734375 1521.05175781 670.567382812 1521.05175781 c 0
 660.533203125 1521.05175781 646.092773438 1520.3515625 624.428710938 1518.96679688 c 0
 558.454101562 1514.74511719 533.8828125 1503.83789062 515.755859375 1503.83789062 c 0
 509.2890625 1503.83789062 503.64453125 1505.22753906 497.229492188 1508.80273438 c 0
 468.466796875 1524.84667969 359.637695312 1535.92285156 304.717773438 1535.92285156 c 0
 296.794921875 1535.92285156 289.995117188 1535.69335938 284.719726562 1535.21386719 c 0
 251.491210938 1532.19628906 237.540039062 1526.38574219 220.483398438 1526.38574219 c 0
 215.845703125 1526.38574219 210.981445312 1526.81640625 205.4375 1527.84667969 c 0
 175.360351562 1533.43847656 132.920898438 1537.06738281 110.674804688 1537.06738281 c 0
 91.79296875 1537.06738281 -37.3330078125 1562.37988281 -56.3876953125 1562.37988281 c 0
 -64.98828125 1562.37988281 -105.44140625 1569.85546875 -114.752929688 1576.42089844 c 1
 -113.466796875 1577.04296875 -110.241210938 1578.37792969 -104.534179688 1579.609375 c 0
 -88.3798828125 1583.08886719 -72.408203125 1584.11230469 -57.4951171875 1584.11230469 c 0
 -36.09375 1584.11230469 -16.876953125 1582.00195312 -2.451171875 1582.00195312 c 0
 3.25390625 1582.00195312 8.2099609375 1582.33105469 12.255859375 1583.25292969 c 0
 25.6201171875 1586.28320312 175.866210938 1584.10742188 206.2421875 1592.38867188 c 0
 230.873046875 1599.10742188 311.186523438 1608.30371094 338.732421875 1608.30371094 c 0
 358.729492188 1608.30371094 366.446289062 1605.24023438 387.2578125 1605.24023438 c 0
 394.307617188 1605.24023438 402.862304688 1605.59277344 413.90234375 1606.53320312 c 0
 457.57421875 1610.25585938 456.545898438 1623.35253906 463.063476562 1624.83105469 c 0
 463.943359375 1625.03125 466.245117188 1625.08398438 469.57421875 1625.08398438 c 0
 473.189453125 1625.08398438 478.022460938 1625.02246094 483.572265625 1625.02246094 c 0
 511.713867188 1625.02246094 558.299804688 1626.61132812 558.299804688 1645.91113281 c 0
 558.299804688 1665.17382812 513.987304688 1665.94921875 490.1328125 1665.94921875 c 2
 484.385742188 1665.94335938 l 2
 479.9765625 1665.94335938 476.862304688 1665.98242188 475.766601562 1666.25390625 c 0
 462.599609375 1672.54296875 438.767578125 1677.92675781 385.268554688 1685.22460938 c 0
 334.0546875 1692.20996094 348.24609375 1697.44042969 300.657226562 1705.07910156 c 0
 290.830078125 1706.65625 283.25 1707.25683594 277.18359375 1707.25683594 c 0
 257.771484375 1707.25683594 253.870117188 1701.10253906 241.413085938 1701.10253906 c 0
 237.666015625 1701.10253906 233.146484375 1701.65917969 227.197265625 1703.10742188 c 0
 187.861328125 1712.6875 107.504882812 1711.2734375 87.1728515625 1717.43359375 c 0
 58.873046875 1726.01171875 50.701171875 1716.31152344 15.880859375 1728.18164062 c 0
 -22.990234375 1741.43164062 -35.8818359375 1737.63867188 -95.85546875 1755.41699219 c 0
 -160.200195312 1774.49121094 -297.19921875 1756.67285156 -329.677734375 1764.58300781 c 0
 -368.768554688 1774.10058594 -407.001953125 1770.29296875 -407.408203125 1770.25878906 c 0
 -410.525390625 1769.97167969 -413.846679688 1767.91503906 -413.846679688 1765.23632812 c 2
 -411.192382812 -534.587890625 l 2x86000102c0f04c90888b58
-396.350585938 -529.505859375 m 1
 -398.991210938 1760.63769531 l 1
 -386.387695312 1761.20703125 -360.53125 1761.34472656 -334.666992188 1755.05078125 c 0
 -292.89453125 1744.87695312 -159.403320312 1763.21875 -101.771484375 1746.1328125 c 0
 -39.76953125 1727.75195312 -26.13671875 1731.1875 9.240234375 1719.125 c 0
 48.6708984375 1705.68164062 61.716796875 1714.06640625 81.140625 1708.17773438 c 0
 108.548828125 1699.87304688 187.294921875 1702.078125 222.208007812 1693.57519531 c 0
 231.911132812 1691.21289062 239.036132812 1690.3515625 244.732421875 1690.3515625 c 0
 260.057617188 1690.3515625 265.02734375 1696.5859375 281.954101562 1696.5859375 c 0
 286.185546875 1696.5859375 291.169921875 1696.19628906 297.249023438 1695.22070312 c 0
 339.818359375 1688.39453125 327.499023438 1682.77734375 382.354492188 1675.29785156 c 0
 435.19140625 1668.08886719 458.41015625 1662.45703125 466.864257812 1658.1328125 c 0
 474.7578125 1654.09375 487.081054688 1653.38867188 499.549804688 1653.38867188 c 0
 506.241210938 1653.38867188 512.973632812 1653.59179688 519.087890625 1653.59179688 c 0
 532.829101562 1653.59179688 543.44921875 1652.56640625 543.44921875 1645.91113281 c 0
 543.44921875 1632.74121094 483.490234375 1640.15039062 458.364257812 1634.44140625 c 0
 433.052734375 1628.69140625 453.240234375 1620.09375 412.061523438 1616.578125 c 0
 401.888671875 1615.71289062 394.1953125 1615.38671875 387.900390625 1615.38671875 c 0
 368.681640625 1615.38671875 362.51171875 1618.42871094 338.732421875 1618.42871094 c 0
 307.9375 1618.42871094 229.1484375 1609.5390625 200.731445312 1601.79199219 c 0
 178.0703125 1595.6171875 26.025390625 1597.05078125 7.55859375 1592.85351562 c 0
 6.38671875 1592.58691406 4.6611328125 1592.47851562 2.451171875 1592.47851562 c 0
 -7.572265625 1592.47851562 -27.61328125 1594.72070312 -51.6591796875 1594.72070312 c 0
 -69.3974609375 1594.72070312 -89.318359375 1593.5 -109.000976562 1589.25976562 c 0
 -124.451171875 1585.93457031 -130.467773438 1582.171875 -130.467773438 1578.3515625 c 0
 -130.467773438 1565.62695312 -63.734375 1552.25488281 -56.3876953125 1552.25488281 c 0
 -43.61328125 1552.25488281 87.13671875 1526.94238281 110.674804688 1526.94238281 c 0
 130.861328125 1526.94238281 173.286132812 1523.33300781 201.536132812 1518.078125 c 0
 208.90234375 1516.70898438 215.393554688 1516.15429688 221.46484375 1516.15429688 c 0xc600010080e04e00808b58
 242.086914062 1516.15429688 257.860351562 1522.55761719 286.676757812 1525.17675781 c 0
 290.705078125 1525.54394531 295.883789062 1525.71679688 301.947265625 1525.71679688 c 0
 352.595703125 1525.71679688 465.124023438 1513.62988281 487.83203125 1500.96289062 c 0
 497.796875 1495.40332031 506.892578125 1493.34863281 516.79296875 1493.34863281 c 0
 540.629882812 1493.34863281 569.153320312 1505.26074219 625.8203125 1508.88183594 c 0
 657.650390625 1510.91699219 671.569335938 1512.3671875 678.416992188 1512.3671875 c 0x8600010080e04c00808b59
 690.083007812 1512.3671875 681.22265625 1508.15625 705.458007812 1495.4453125 c 0
 719.830078125 1487.90625 728.544921875 1485.51464844 737.188476562 1485.51464844 c 0
 750.943359375 1485.51464844 764.525390625 1491.56933594 800.452148438 1492.59179688 c 0
 803.662109375 1492.68359375 806.6875 1492.7265625 809.5390625 1492.7265625 c 0
 861.229492188 1492.7265625 857.212890625 1478.43164062 899.9296875 1474.55175781 c 0
 940.025390625 1470.90820312 980.189453125 1469.08496094 1028.19726562 1469.08496094 c 0x8600010480e04c00808b58
 1074.80664062 1469.08496094 1121.50390625 1462.04003906 1171.1640625 1447.78125 c 0
 1187.37011719 1443.12890625 1198.984375 1441.53222656 1207.84667969 1441.53222656 c 0x8600010080e04c00808b5a
 1227.24902344 1441.53222656 1233.42285156 1449.1953125 1245.640625 1449.1953125 c 0x8600010080e04c00818b58
 1268.43164062 1449.1953125 1267.74804688 1441.96191406 1314.58984375 1441.96191406 c 0
 1359.08984375 1441.96191406 1378.35546875 1438.64453125 1415.08789062 1427.90722656 c 0
 1437.35351562 1421.40234375 1452.27050781 1418.65039062 1466.44140625 1418.65039062 c 0
 1476.26660156 1418.65039062 1485.73242188 1419.97460938 1497.0390625 1422.28613281 c 0
 1498.58203125 1422.6015625 1500.10839844 1422.75 1501.60351562 1422.75 c 0
 1513.06152344 1422.75 1522.65039062 1414.05957031 1522.65039062 1405.30175781 c 0
 1522.65039062 1401.99707031 1521.28515625 1398.68164062 1518.13867188 1395.82128906 c 0
 1506.11132812 1384.890625 1442.93164062 1383.55566406 1406.27050781 1379.70898438 c 0
 1401.66308594 1379.22558594 1396.81347656 1379.04785156 1391.68652344 1379.04785156 c 0x8600010080e04c00908b58
 1377.41699219 1379.04785156 1361.02246094 1380.42578125 1341.84960938 1380.42578125 c 0x8600010080e04c00818b58
 1321.26855469 1380.42578125 1297.49121094 1378.83886719 1269.72070312 1372.25390625 c 0
 1237.35058594 1364.57714844 1175.08398438 1362.2109375 1121.5078125 1362.2109375 c 0x8600010080e04c00808b5a
 1078.85742188 1362.2109375 1041.71191406 1363.70996094 1029.52441406 1365.22460938 c 0
 1025.96484375 1365.66503906 1022.47949219 1365.86230469 1019.07226562 1365.86230469 c 0x8600010480e04c00808b58
 990.650390625 1365.86230469 967.567382812 1352.1015625 950.474609375 1350.80761719 c 0
 926.923828125 1349.02246094 844.444335938 1345.90332031 809.66015625 1332.0703125 c 0
 806.39453125 1330.77148438 802.893554688 1330.24414062 799.216796875 1330.24414062 c 0
 783.299804688 1330.24414062 764.12890625 1340.13671875 746.91015625 1340.13671875 c 0
 740.4375 1340.13671875 734.23828125 1338.73730469 728.595703125 1334.88867188 c 0
 722.750976562 1330.90527344 702.89453125 1328.93652344 679.27734375 1328.93652344 c 0x8600010080e04c00808b59
 647.587890625 1328.93652344 609.129882812 1332.48046875 588.665039062 1339.45703125 c 0
 580.631835938 1342.19433594 571.541015625 1343.31835938 561.818359375 1343.31835938 c 0
 520.174804688 1343.31835938 466.959960938 1322.70703125 435.923828125 1320.0625 c 0
 391.801757812 1316.3046875 267.454101562 1313.98046875 237.500976562 1305.49804688 c 1
 237.26171875 1305.49023438 l 2
 235.612304688 1305.49023438 225.58984375 1305.82421875 210.302734375 1305.82421875 c 0
 165.036132812 1305.82421875 73.609375 1302.88574219 16.693359375 1279.6015625 c 0
 -8.923828125 1269.12109375 -18.669921875 1259.67382812 -18.669921875 1251.49804688 c 0
 -18.669921875 1230.39355469 46.291015625 1217.76855469 70.90234375 1217.76855469 c 0
 106.15625 1217.76855469 250.103515625 1199.74414062 281.826171875 1196.13964844 c 0
 310.115234375 1192.92578125 351.850585938 1184.97363281 381.119140625 1184.97363281 c 0
 384.17578125 1184.97363281 387.094726562 1185.06054688 389.850585938 1185.24804688 c 0
 390.71875 1185.30859375 391.670898438 1185.3359375 392.704101562 1185.3359375 c 0x8600010080e04e00808b5810
 419.293945312 1185.3359375 497.944335938 1166.19042969 513.190429688 1152.82128906 c 0
 520.267578125 1146.6171875 528.732421875 1144.6484375 537.682617188 1144.6484375 c 0
 553.21875 1144.6484375 570.220703125 1150.57324219 584.0078125 1150.57324219 c 0
 587.233398438 1150.57324219 590.283203125 1150.25 593.095703125 1149.44921875 c 0
 626.666992188 1139.91210938 679.969726562 1136.4375 703.853515625 1134.62792969 c 0
 716.2421875 1133.68945312 722.015625 1122.50488281 741.400390625 1122.50488281 c 0x8600011080e04c00808b58
 745.204101562 1122.50488281 749.533203125 1122.93652344 754.5390625 1123.95996094 c 0
 760.19140625 1125.1171875 770.892578125 1125.68457031 784.466796875 1125.68457031 c 0
 826.828125 1125.68457031 897.181640625 1120.15527344 929.5703125 1109.765625 c 0
 953.3671875 1102.13085938 971.34765625 1100.24316406 988.537109375 1100.24316406 c 0
 1005.36523438 1100.24316406 1021.43359375 1102.05371094 1041.453125 1102.05371094 c 0
 1084.43066406 1102.05371094 1113.77441406 1099.9921875 1127.52246094 1079.68164062 c 0
 1128.1484375 1078.75585938 1128.44628906 1077.89257812 1128.44628906 1077.08789062 c 0
 1128.44628906 1065.0078125 1061.06347656 1066.03417969 1024.21875 1061.46972656 c 0x8600010080e04d00808b58
 995.642578125 1057.92871094 889.690429688 1050.81542969 853.64453125 1043.25 c 0
 824.171875 1037.06347656 746.006835938 1018.54492188 700.022460938 1018.54492188 c 0x8600011080e04c00808b58
 690.331054688 1018.54492188 682.0703125 1019.3671875 675.997070312 1021.29980469 c 0
 660.032226562 1026.37988281 644.784179688 1028.45214844 630.624023438 1028.45214844 c 0
 607.021484375 1028.45214844 586.444335938 1022.69238281 570.618164062 1015.50097656 c 0
 565.729492188 1013.27929688 560.056640625 1012.51855469 553.705078125 1012.51855469 c 0
 539.94140625 1012.51855469 522.99609375 1016.09179688 503.96875 1016.09179688 c 0
 497.154296875 1016.09179688 490.075195312 1015.63378906 482.779296875 1014.38867188 c 0
 452.702148438 1009.26757812 373.231445312 1010.03808594 348.048828125 999.309570312 c 0
 330.515625 991.833984375 264.083984375 991.499023438 234.64453125 981.462890625 c 0
 209.701171875 972.96484375 121.796875 954.59765625 90.77734375 912.302734375 c 0
 81.271484375 899.340820312 77.130859375 890.913085938 77.130859375 884.14453125 c 0
 77.130859375 869.0078125 97.84375 862.166992188 125.567382812 831.447265625 c 0
 165.782226562 786.897460938 128.938476562 776.896484375 257.803710938 760.422851562 c 0
 275.118164062 758.208007812 292.744140625 757.713867188 309.557617188 757.713867188 c 0x8600010082e04c00808b5810
 323.100585938 757.713867188 336.118164062 758.036132812 348.020507812 758.036132812 c 0
 363.129882812 758.036132812 376.444335938 757.518554688 386.762695312 755.172851562 c 0
 408.999023438 750.118164062 434.135742188 749.252929688 457.678710938 749.252929688 c 0
 469.94140625 749.252929688 481.770507812 749.487304688 492.53125 749.487304688 c 0
 522.985351562 749.487304688 601.76953125 735.84765625 620.447265625 727.1171875 c 1
 606.944335938 721.654296875 565.108398438 717.475585938 537.119140625 716.205078125 c 0x8600010080e04c0080cb58
 497.012695312 714.385742188 459.106445312 710.7578125 426.033203125 701.365234375 c 0
 416.921875 698.774414062 399.891601562 698.165039062 378.900390625 698.165039062 c 0
 360.217773438 698.165039062 338.3984375 698.647460938 316.237304688 698.647460938 c 0
 288.296875 698.647460938 259.814453125 697.879882812 236.384765625 694.408203125 c 0
 209.884765625 690.478515625 201.595703125 685.091796875 201.595703125 679.891601562 c 0
 201.595703125 671.200195312 224.739257812 663.024414062 224.739257812 663.024414062 c 2
 225.311523438 662.876953125 226.081054688 662.763671875 226.565429688 662.728515625 c 0
 226.89453125 662.705078125 285.927734375 657.946289062 322.451171875 657.946289062 c 0
 332.689453125 657.946289062 341.158203125 658.3203125 346.0703125 659.27734375 c 0
 347.116210938 659.48046875 348.5546875 659.576171875 350.330078125 659.576171875 c 0
 371.3359375 659.576171875 439.555664062 646.233398438 466.717773438 641.182617188 c 0
 497.35546875 635.487304688 531.927734375 635.581054688 584.604492188 631.987304688 c 0
 596.60546875 631.169921875 607.685546875 630.873046875 617.919921875 630.873046875 c 0
 644.880859375 630.873046875 665.973632812 632.930664062 682.556640625 632.930664062 c 0
 688.177734375 632.930664062 693.278320312 632.694335938 697.916992188 632.061523438 c 0
 722.490234375 628.709960938 751.145507812 617.525390625 818.40625 615.697265625 c 0
 885.2734375 613.873046875 898.16015625 608.568359375 904.474609375 595.645507812 c 0
 904.642578125 595.30078125 904.725585938 594.975585938 904.725585938 594.669921875 c 0
 904.725585938 588.400390625 870 589.969726562 826.127929688 587.833984375 c 0
 790.403320312 586.094726562 780.090820312 576.357421875 739.974609375 576.357421875 c 0
 734.370117188 576.357421875 728.182617188 576.548828125 721.265625 576.977539062 c 0
 715.841796875 577.313476562 710.686523438 577.46875 705.774414062 577.46875 c 0
 655.508789062 577.46875 630.313476562 561.16796875 599.22265625 555.110351562 c 0
 562.80078125 548.015625 470.133789062 537.2734375 434.17578125 527.844726562 c 0
 401.583984375 519.297851562 319.103515625 511.862304688 245.127929688 506.458984375 c 0
 196.416015625 502.899414062 176.233398438 496.247070312 176.233398438 487.37109375 c 0
 176.233398438 482.87890625 181.395507812 477.819335938 190.646484375 472.30078125 c 0
 201.295898438 465.948242188 215.54296875 464.29296875 230.53125 464.29296875 c 0
 246.821289062 464.29296875 263.985351562 466.249023438 278.34765625 466.249023438 c 0
 282.41015625 466.249023438 286.249023438 466.092773438 289.78125 465.690429688 c 0
 314.103515625 462.926757812 405.87890625 461.251953125 466.530273438 461.251953125 c 0
 489.84375 461.251953125 508.559570312 461.498046875 517.078125 462.028320312 c 0
 518.75 462.130859375 520.3515625 462.178710938 521.900390625 462.178710938 c 0x8600010082e04c08808b5820
 537.11328125 462.178710938 547.07421875 457.624023438 569.447265625 457.624023438 c 0
 578.26953125 457.624023438 589.021484375 458.331054688 602.791015625 460.307617188 c 0
 615.05859375 462.067382812 623.08203125 462.796875 628.766601562 462.796875 c 0
 645.81640625 462.796875 641.84765625 456.247070312 668.251953125 451.338867188 c 0
 698.416015625 445.733398438 691.802734375 449.262695312 727.4921875 445.788085938 c 0
 766.168945312 442.01953125 788.77734375 445.530273438 818.499023438 437.086914062 c 0
 829.661132812 433.913085938 847.057617188 433.021484375 866.568359375 433.021484375 c 0
 891.509765625 433.021484375 919.90234375 434.4765625 943.134765625 434.4765625 c 0
 961.608398438 434.4765625 976.818359375 433.556640625 984.430664062 430.252929688 c 0
 997.684570312 424.501953125 1011.26367188 422.693359375 1025.38574219 422.693359375 c 0
 1046.25390625 422.693359375 1068.31640625 426.642578125 1092.3046875 427.663085938 c 0
 1094.79003906 427.76953125 1097.23242188 427.819335938 1099.640625 427.819335938 c 0
 1135.48339844 427.819335938 1164.27832031 416.805664062 1237.6875 416.805664062 c 0x8600010080e24c00808b58
 1314.87988281 416.805664062 1310.63769531 414.873046875 1339.77246094 402.231445312 c 0
 1350.96386719 397.375 1364.97167969 396.58203125 1381.95898438 396.58203125 c 0x8600010080e04c0080ab58
 1390.1875 396.58203125 1399.11621094 396.768554688 1408.76367188 396.768554688 c 0
 1443.42382812 396.768554688 1487.36523438 394.368164062 1541.48632812 372.321289062 c 0
 1551.17675781 368.375 1561.59472656 367.0234375 1572.02148438 367.0234375 c 0
 1594.69726562 367.0234375 1617.421875 373.4140625 1632.79980469 373.4140625 c 0
 1659.6640625 373.4140625 1715.3515625 375.223632812 1741.52734375 375.223632812 c 0
 1766.36230469 375.223632812 1838.55273438 366.220703125 1861.90136719 362.686523438 c 0
 1866.16113281 362.040039062 1870.88867188 361.763671875 1875.9765625 361.763671875 c 0
 1903.96386719 361.763671875 1942.88378906 370.142578125 1975.37890625 371.615234375 c 0
 1978.15527344 371.741210938 1981.06835938 371.80078125 1984.10449219 371.80078125 c 0
 2022.3125 371.80078125 2079.40722656 362.405273438 2114.37109375 358.998046875 c 0
 2128.81445312 357.591796875 2154.65234375 357.223632812 2184.80664062 357.223632812 c 0
 2218.00585938 357.223632812 2256.43164062 357.668945312 2290.63867188 357.668945312 c 0
 2308.96386719 357.668945312 2326.07617188 357.54296875 2340.53125 357.149414062 c 0
 2383.65917969 355.971679688 2392.87890625 352.541015625 2392.87890625 345.986328125 c 0
 2392.87890625 342.858398438 2390.77929688 339.018554688 2389.26367188 334.373046875 c 0x8600010880e04c00808b58
 2386.57910156 326.127929688 2322.64648438 325.674804688 2284.64160156 325.674804688 c 0
 2279.93652344 325.674804688 2275.63085938 325.680664062 2271.88476562 325.680664062 c 0
 2242.23242188 325.680664062 2216.08886719 316.448242188 2180.33496094 316.448242188 c 0
 2177.47851562 316.448242188 2174.55859375 316.506835938 2171.57617188 316.633789062 c 0
 2163.60351562 316.973632812 2155.91601562 317.125 2148.36328125 317.125 c 0
 2114.83007812 317.125 2083.98144531 314.126953125 2043.05273438 311.185546875 c 0
 1992.54882812 307.56640625 1878.59179688 298.529296875 1825.28320312 293.08203125 c 0
 1813.63476562 291.890625 1803.79199219 291.462890625 1795.26171875 291.462890625 c 0
 1773.66796875 291.462890625 1760.49414062 294.200195312 1747.78417969 294.200195312 c 0
 1743.30761719 294.200195312 1738.88964844 293.860351562 1734.18261719 292.943359375 c 0
 1732.546875 292.624023438 1730.15625 292.493164062 1727.15722656 292.493164062 c 0
 1713.203125 292.493164062 1686.0703125 295.331054688 1660.57714844 295.331054688 c 0
 1645.02929688 295.331054688 1630.09082031 294.276367188 1619.12304688 290.875976562 c 0
 1593.57714844 282.95703125 1460.015625 280.479492188 1411.88378906 276.8359375 c 0
 1406.33007812 276.415039062 1401.22949219 276.229492188 1396.5 276.229492188 c 0x8600010080e04c0080ab58
 1362.27734375 276.229492188 1347.47070312 285.903320312 1322.54492188 285.903320312 c 0
 1292.05273438 285.903320312 1301.58789062 275.055664062 1277.46484375 275.055664062 c 0x8600010080e24c00808b58
 1246.32226562 275.055664062 1180.45507812 264.099609375 1132.65625 256.857421875 c 0
 1119.49414062 254.86328125 1109.81542969 254.184570312 1101.4453125 254.184570312 c 0
 1083.66894531 254.184570312 1071.77148438 257.2421875 1044.88476562 257.2421875 c 0
 1040.50195312 257.2421875 1035.72167969 257.16015625 1030.453125 256.97265625 c 0
 979.55859375 255.142578125 967.587890625 251.325195312 923.07421875 244.186523438 c 0
 879.763671875 237.236328125 611.462890625 226.24609375 589.731445312 224.391601562 c 0
 568.826171875 222.611328125 452.13671875 215.389648438 417.150390625 211.715820312 c 0
 376.76953125 207.483398438 375.376953125 188.272460938 325.46875 188.272460938 c 0
 269.397460938 188.272460938 170.560546875 155.6328125 141.911132812 130.24609375 c 0
 137.109375 125.989257812 135.014648438 122.109375 135.014648438 118.569335938 c 0
 135.014648438 96.7216796875 214.771484375 87.818359375 229.336914062 82.8544921875 c 0
 257.123046875 73.3818359375 277.134765625 73.193359375 294.260742188 69.857421875 c 0
 312.048828125 66.396484375 345.1328125 57.0078125 386.46484375 57.0078125 c 0
 419.768554688 57.0078125 470.50390625 53.0087890625 502.349609375 53.0087890625 c 0
 507.92578125 53.0087890625 512.918945312 53.130859375 517.142578125 53.41796875 c 0
 520.389648438 53.638671875 523.614257812 53.740234375 526.84765625 53.740234375 c 0
 548.01953125 53.740234375 569.55859375 49.423828125 600.129882812 46.2197265625 c 0
 608.02734375 45.3916015625 614.61328125 45.076171875 620.484375 45.076171875 c 0
 639.079101562 45.076171875 650.478515625 48.2412109375 673.631835938 48.2412109375 c 0
 677.314453125 48.2412109375 681.293945312 48.1611328125 685.6484375 47.9755859375 c 0
 726.75390625 46.2255859375 763.66796875 37.2763671875 812.18359375 31.7646484375 c 0
 823.963867188 30.42578125 828.627929688 27.9560546875 828.627929688 25.1435546875 c 0
 828.627929688 19.8994140625 812.40625 13.466796875 795.875976562 10.966796875 c 0
 773.05078125 7.5048828125 730.653320312 5.65625 709.061523438 3.8125 c 0
 689.265625 2.1259765625 663.546875 3.990234375 635.065429688 -5.7236328125 c 0
 629.561523438 -7.5986328125 623.546875 -8.328125 617.327148438 -8.328125 c 0
 598.245117188 -8.328125 577.17578125 -1.4794921875 562.700195312 0.1689453125 c 0
 561.061523438 0.3544921875 559.233398438 0.4384765625 557.244140625 0.4384765625 c 0
 534.59765625 0.4384765625 491.1328125 -10.6142578125 473.96875 -10.6142578125 c 0
 449.81640625 -10.6142578125 384.578125 -25.0400390625 364.21875 -32.974609375 c 0
 346.853515625 -39.7431640625 326.622070312 -43.2490234375 305.986328125 -45.0029296875 c 0
 285.68359375 -46.7333984375 203.059570312 -48.5830078125 157.536132812 -52.2314453125 c 0
 114.377929688 -55.697265625 102.544921875 -54.6240234375 93.119140625 -71.7548828125 c 0
 91.9697265625 -73.8427734375 91.4423828125 -75.728515625 91.4423828125 -77.4365234375 c 0
 91.4423828125 -93.1787109375 136.137695312 -93.818359375 150.090820312 -98.0458984375 c 0
 164.9140625 -102.540039062 191.125 -103.8828125 223.420898438 -103.8828125 c 0x8640010080e04c00808b5820
 250.713867188 -103.8828125 282.3515625 -102.922851562 315.13671875 -102.095703125 c 0
 319.904296875 -101.973632812 324.41796875 -101.916992188 328.703125 -101.916992188 c 0
 387.6171875 -101.916992188 403.016601562 -112.764648438 434.49609375 -119.91796875 c 0
 470.024414062 -127.99609375 558.763671875 -121.267578125 581.088867188 -131.921875 c 0
 592.3046875 -137.274414062 600.6796875 -138.924804688 608.05859375 -138.924804688 c 0
 619.940429688 -138.924804688 629.2421875 -134.645507812 643.6875 -134.645507812 c 0
 672.14453125 -134.645507812 711.366210938 -138.704101562 724.42578125 -144.641601562 c 0
 733.0078125 -148.543945312 745.002929688 -149.904296875 758.375 -149.904296875 c 0x8604010080e04c00808b58
 776.29296875 -149.904296875 796.676757812 -147.461914062 814.620117188 -145.422851562 c 0
 817.94140625 -145.045898438 821.323242188 -144.872070312 824.748046875 -144.872070312 c 0
 850.62890625 -144.872070312 878.907226562 -154.76953125 900.545898438 -161.327148438 c 0
 909.048828125 -163.905273438 916.1484375 -164.67578125 923.416992188 -164.67578125 c 0
 934.25390625 -164.67578125 945.46875 -162.961914062 962.283203125 -162.961914062 c 0
 971.921875 -162.961914062 983.399414062 -163.525390625 997.701171875 -165.297851562 c 0
 1060.1015625 -173.0390625 1073.80761719 -171.348632812 1073.80761719 -183.821289062 c 0
 1073.80761719 -194.900390625 1026.34863281 -190.362304688 994.763671875 -195.153320312 c 0
 972.712890625 -198.494140625 940.250976562 -196.798828125 899.450195312 -202.361328125 c 0
 879.217773438 -205.122070312 852.697265625 -205.540039062 828.125 -205.540039062 c 0x8602010080e04c00808b58
 817.427734375 -205.540039062 807.102539062 -205.4609375 797.825195312 -205.4609375 c 0
 788.180664062 -205.4609375 779.669921875 -205.545898438 773.057617188 -205.895507812 c 0x8604010080e04c00808b58
 704.317382812 -209.5 628.08203125 -209.430664062 605.639648438 -211.34375 c 0
 584.772460938 -213.124023438 512.501953125 -218.538085938 497.83984375 -218.538085938 c 0
 496.474609375 -218.538085938 494.31640625 -218.518554688 491.58203125 -218.518554688 c 0
 472.254882812 -218.518554688 424.120117188 -219.448242188 424.120117188 -234.446289062 c 0
 424.120117188 -249.28125 443.45703125 -251.8828125 443.45703125 -262.92578125 c 0
 443.45703125 -263.708007812 443.361328125 -264.53125 443.153320312 -265.40625 c 0
 438.189453125 -268.836914062 413.012695312 -270.859375 389.669921875 -270.859375 c 0
 377.979492188 -270.859375 366.750976562 -270.352539062 358.752929688 -269.26171875 c 0
 354.905273438 -268.736328125 351.2421875 -268.501953125 347.734375 -268.501953125 c 0
 323.40625 -268.501953125 306.609375 -279.802734375 288.6484375 -283.889648438 c 0
 266.627929688 -288.893554688 194.466796875 -294.51953125 165.6875 -296.303710938 c 0
 132.659179688 -298.3515625 122.3046875 -310.745117188 65.59375 -310.745117188 c 0
 10.0673828125 -310.745117188 -86.494140625 -319.155273438 -90.2861328125 -342.37109375 c 0
 -90.423828125 -343.209960938 -90.490234375 -344.01953125 -90.490234375 -344.799804688 c 0
 -90.490234375 -365.337890625 -44.865234375 -366.469726562 -30.916015625 -367.83203125 c 0xc640010080e04c00808b58
 -8.923828125 -369.97265625 29.564453125 -367.787109375 35.9384765625 -373.215820312 c 0
 49.8310546875 -385.05078125 74.5205078125 -382.579101562 98.615234375 -385.862304688 c 0
 124.161132812 -389.342773438 150.770507812 -396.560546875 190.970703125 -403.868164062 c 0
 229.104492188 -410.802734375 229.330078125 -418.981445312 256.158203125 -427.108398438 c 0
 266.668945312 -430.29296875 279.62890625 -431.12890625 294.434570312 -431.12890625 c 0
 310.755859375 -431.12890625 329.318359375 -430.114257812 349.328125 -430.114257812 c 0
 359.350585938 -430.114257812 369.735351562 -430.368164062 380.381835938 -431.1328125 c 0
 389.25390625 -431.76953125 394.485351562 -435.890625 394.485351562 -440.161132812 c 0
 394.485351562 -444.306640625 389.555664062 -448.592773438 378.249023438 -449.96875 c 0x9600010080e04c00808b58
 377.626953125 -449.989257812 272.690429688 -453.306640625 243.787109375 -459.21875 c 0
 226.940429688 -462.665039062 227.95703125 -463.86328125 218.163085938 -463.86328125 c 0
 211.778320312 -463.86328125 200.803710938 -463.354492188 177.3046875 -462.625 c 0
 173.016601562 -462.4921875 168.967773438 -462.428710938 165.124023438 -462.428710938 c 0
 114.98828125 -462.428710938 99.7939453125 -473.380859375 47.1474609375 -486.434570312 c 0
 15.01171875 -494.397460938 -19.876953125 -494.80078125 -50.88671875 -494.80078125 c 2xc600010080e04c00808b58
 -61.2109375 -494.795898438 l 2
 -80.2578125 -494.795898438 -97.4453125 -494.958984375 -111.08984375 -497.103515625 c 0
 -146.366210938 -502.655273438 -212.66015625 -518.92578125 -246.327148438 -524.2265625 c 0
 -273.620117188 -528.521484375 -370.927734375 -529.40234375 -396.350585938 -529.505859375 c 1
-403.767578125 -534.583007812 m 1
 -406.421875 1765.24121094 l 1
 -406.421875 1765.24121094 -369.296875 1768.85449219 -332.171875 1759.81738281 c 0
 -295.046875 1750.77441406 -159.802734375 1768.85449219 -98.8125 1750.77441406 c 0
 -37.8251953125 1732.6953125 -24.5625 1736.30957031 12.5625 1723.65332031 c 0
 49.6875 1710.99707031 60.294921875 1720.0390625 84.15625 1712.80566406 c 0
 108.02734375 1705.57324219 187.578125 1707.3828125 224.703125 1698.34082031 c 0
 232.453125 1696.45410156 238.239257812 1695.74902344 242.951171875 1695.74902344 c 0
 256.880859375 1695.74902344 261.44921875 1701.90234375 279.688476562 1701.90234375 c 0
 284.844726562 1701.90234375 291.091796875 1701.41015625 298.953125 1700.14941406 c 0
 344.03125 1692.91699219 330.77734375 1687.49316406 383.8125 1680.26074219 c 0
 436.84375 1673.02832031 460.71484375 1667.60449219 471.322265625 1662.18066406 c 0
 481.924804688 1656.7578125 550.875 1665.79980469 550.875 1645.91113281 c 0
 550.875 1626.02246094 476.625 1633.25488281 460.71484375 1629.63574219 c 0
 444.799804688 1626.02246094 455.40625 1615.17480469 412.982421875 1611.55566406 c 0
 402.375976562 1610.65429688 394.256835938 1610.31347656 387.587890625 1610.31347656 c 0
 367.5703125 1610.31347656 360.612304688 1613.36621094 338.732421875 1613.36621094 c 0
 309.5625 1613.36621094 230.009765625 1604.32324219 203.487304688 1597.09082031 c 0
 176.96875 1589.86230469 25.822265625 1591.66699219 9.90625 1588.05371094 c 0
 7.4384765625 1587.4921875 4.1396484375 1587.27832031 0.142578125 1587.27832031 c 0
 -12.482421875 1587.27832031 -32.0966796875 1589.40332031 -54.646484375 1589.40332031 c 0
 -70.9921875 1589.40332031 -88.8828125 1588.28710938 -106.767578125 1584.43457031 c 0
 -118.068359375 1582.00195312 -122.565429688 1579.296875 -122.565429688 1576.56347656 c 0
 -122.565429688 1567.10839844 -68.73046875 1557.31738281 -56.3876953125 1557.31738281 c 0
 -40.47265625 1557.31738281 89.46484375 1532.00488281 110.674804688 1532.00488281 c 0
 131.890625 1532.00488281 174.322265625 1528.38574219 203.487304688 1522.96191406 c 0
 209.93359375 1521.76269531 215.60546875 1521.27148438 220.95703125 1521.27148438 c 0
 239.814453125 1521.27148438 254.7109375 1527.37988281 285.697265625 1530.1953125 c 0
 290.32421875 1530.61523438 296.27734375 1530.81542969 303.234375 1530.81542969 c 0
 356.077148438 1530.81542969 466.752929688 1519.25976562 492.53125 1504.8828125 c 0
 500.693359375 1500.33007812 508.026367188 1498.60839844 516.2109375 1498.60839844 c 0
 537.28125 1498.60839844 564.008789062 1510.015625 625.125 1513.92480469 c 0
 651.7265625 1515.62597656 666.600585938 1516.61425781 675.55078125 1516.61425781 c 0
 695.14453125 1516.61425781 686.317382812 1511.87109375 709.982421875 1499.45996094 c 0
 722.94140625 1492.66210938 729.903320312 1490.46484375 736.928710938 1490.46484375 c 0
 748.58984375 1490.46484375 760.423828125 1496.52050781 800.140625 1497.64941406 c 0
 803.470703125 1497.74414062 806.623046875 1497.7890625 809.607421875 1497.7890625 c 0
 863.62109375 1497.7890625 863.216796875 1482.99511719 900.90625 1479.5703125 c 0
 940.6875 1475.95605469 980.46484375 1474.14746094 1028.19726562 1474.14746094 c 0
 1075.92480469 1474.14746094 1123.65625 1466.9140625 1174.04492188 1452.44824219 c 0
 1189.54394531 1447.99902344 1199.7734375 1446.45898438 1207.28027344 1446.45898438 c 0
 1224.171875 1446.45898438 1227.27929688 1454.2578125 1245.640625 1454.2578125 c 0
 1272.15625 1454.2578125 1269.50976562 1447.02441406 1314.58984375 1447.02441406 c 0
 1359.66992188 1447.02441406 1380.88476562 1443.41113281 1418.00976562 1432.55957031 c 0
 1439.7578125 1426.20507812 1453.31347656 1423.57324219 1466.14257812 1423.57324219 c 0xae800102c0f04c90888b58
 1475.21582031 1423.57324219 1483.92382812 1424.88867188 1494.90625 1427.13574219 c 0
 1497.40625 1427.64746094 1499.83398438 1427.88574219 1502.16796875 1427.88574219 c 0
 1518.27148438 1427.88574219 1529.96289062 1416.56152344 1529.96289062 1405.32421875 c 0
 1529.96289062 1400.89941406 1528.14941406 1396.48632812 1524.078125 1392.78613281 c 0
 1508.16992188 1378.3203125 1441.875 1378.3203125 1407.40234375 1374.70605469 c 0
 1401.86816406 1374.12597656 1396.19824219 1373.91796875 1390.32714844 1373.91796875 c 0
 1375.45507812 1373.91796875 1359.2890625 1375.25195312 1340.75585938 1375.25195312 c 0
 1321.00976562 1375.25195312 1298.57226562 1373.73632812 1272.15625 1367.47363281 c 0
 1238.44042969 1359.4765625 1176.36035156 1357.00585938 1122.65234375 1357.00585938 c 0x8600012080e0ec00808b58
 1079.20507812 1357.00585938 1041.23730469 1358.62207031 1028.19726562 1360.24121094 c 0
 1025.296875 1360.59960938 1022.45019531 1360.76367188 1019.6484375 1360.76367188 c 0
 994.280273438 1360.76367188 972.78515625 1347.40429688 951.294921875 1345.77441406 c 0
 927.424804688 1343.96582031 845.21875 1340.3515625 813.40234375 1327.6953125 c 0
 807.442382812 1325.32617188 801.577148438 1324.41308594 795.856445312 1324.41308594 c 0
 776.745117188 1324.41308594 759.255859375 1334.59082031 745.333984375 1334.59082031 c 0x8600010080e44c00808b5840
 741.166992188 1334.59082031 737.318359375 1333.67871094 733.84375 1331.30957031 c 0
 725.865234375 1325.86816406 704.159179688 1323.43554688 679.056640625 1323.43554688 c 0
 645.76953125 1323.43554688 606.509765625 1327.71289062 585.34375 1334.92871094 c 0
 578.751953125 1337.17480469 571.162109375 1338.11132812 562.893554688 1338.11132812 c 0
 524.579101562 1338.11132812 471.745117188 1318.01171875 436.84375 1315.0390625 c 0
 394.419921875 1311.42480469 261.828125 1307.80566406 245.919921875 1302.3828125 c 0
 230.009765625 1296.95996094 100.072265625 1307.80566406 20.515625 1275.26074219 c 0
 -2.091796875 1266.01171875 -10.7802734375 1257.78515625 -10.7802734375 1250.74707031 c 0
 -10.7802734375 1233.01953125 44.3271484375 1222.83105469 70.90234375 1222.83105469 c 0
 108.02734375 1222.83105469 251.21875 1204.74707031 283.044921875 1201.1328125 c 0
 312.017578125 1197.84179688 354.19140625 1190.04980469 381.51953125 1190.04980469 c 0
 384.202148438 1190.04980469 386.7421875 1190.12402344 389.112304688 1190.28613281 c 0
 390.243164062 1190.36230469 391.48046875 1190.40039062 392.814453125 1190.40039062 c 0
 422.754882812 1190.40039062 501.27734375 1171.51269531 519.049804688 1155.93066406 c 0
 524.08984375 1151.51269531 529.719726562 1150.02734375 535.881835938 1150.02734375 c 0
 548.514648438 1150.02734375 563.391601562 1156.26757812 580.048828125 1156.26757812 c 0
 585.184570312 1156.26757812 590.490234375 1155.67382812 595.953125 1154.12207031 c 0
 627.77734375 1145.08496094 680.8125 1141.46582031 704.674804688 1139.66113281 c 0
 724.811523438 1138.13476562 726.071289062 1127.59960938 741.89453125 1127.59960938 c 0x86010100b0e04c00c08b5808
 744.829101562 1127.59960938 748.26171875 1127.95996094 752.40625 1128.80957031 c 0
 759.1796875 1130.19628906 771.322265625 1130.875 786.3984375 1130.875 c 0
 830.326171875 1130.875 899.168945312 1125.11523438 932.732421875 1114.34863281 c 0
 955.26953125 1107.11621094 971.844726562 1105.30761719 988.086914062 1105.30761719 c 0
 1004.32910156 1105.30761719 1020.23828125 1107.11621094 1041.453125 1107.11621094 c 0
 1083.88476562 1107.11621094 1118.35742188 1105.30566406 1134.265625 1081.80371094 c 0
 1135.4765625 1080.015625 1136.04003906 1078.375 1136.04003906 1076.86816406 c 0
 1136.04003906 1058.54296875 1052.49609375 1059.82910156 1025.54492188 1056.49121094 c 0
 996.375 1052.87207031 890.299804688 1045.64355469 855.828125 1038.41113281 c 0
 827.721679688 1032.51367188 750.2578125 1013.39453125 701.044921875 1013.39453125 c 0
 689.897460938 1013.39453125 680.201171875 1014.375 672.857421875 1016.71191406 c 0
 657.8984375 1021.47070312 643.69140625 1023.41894531 630.515625 1023.41894531 c 0
 608.651367188 1023.41894531 589.629882812 1018.05664062 574.737304688 1011.2890625 c 0
 567.845703125 1008.15722656 560.0703125 1007.13574219 551.732421875 1007.13574219 c 0x8600114080e04c20808f58
 536.060546875 1007.13574219 518.39453125 1010.74316406 500.848632812 1010.74316406 c 0
 495.392578125 1010.74316406 489.946289062 1010.39453125 484.578125 1009.47949219 c 0
 452.759765625 1004.05566406 373.203125 1004.05566406 351.987304688 995.018554688 c 0
 330.77734375 985.9765625 264.482421875 985.9765625 237.96484375 976.934570312 c 0
 211.447265625 967.897460938 126.58984375 949.817382812 97.419921875 910.0390625 c 0
 88.1162109375 897.352539062 83.9365234375 889.817382812 83.9365234375 883.911132812 c 0
 83.9365234375 871.296875 102.994140625 866.120117188 131.890625 834.1015625 c 0
 174.322265625 787.090820312 131.890625 781.666992188 259.174804688 765.397460938 c 0
 274.834960938 763.39453125 290.954101562 762.9296875 306.666015625 762.9296875 c 0
 320.385742188 762.9296875 333.793945312 763.283203125 346.3125 763.283203125 c 0
 362.4765625 763.283203125 377.15625 762.690429688 389.112304688 759.973632812 c 0
 410.321289062 755.15234375 435.067382812 754.34765625 458.633789062 754.34765625 c 0
 470.42578125 754.34765625 481.921875 754.549804688 492.53125 754.549804688 c 0
 524.357421875 754.549804688 603.90625 741.893554688 625.125 731.041992188 c 0
 627.850585938 729.647460938 629.087890625 728.3125 629.087890625 727.041015625 c 0
 629.087890625 718.423828125 572.274414062 712.729492188 537.612304688 711.153320312 c 0
 497.83984375 709.348632812 460.71484375 705.729492188 428.890625 696.692382812 c 0
 417.774414062 693.533203125 398.569335938 692.801757812 375.6796875 692.801757812 c 0
 355.9296875 692.801757812 333.4375 693.346679688 311.0390625 693.346679688 c 0
 285.088867188 693.346679688 259.262695312 692.616210938 237.96484375 689.459960938 c 0
 214.965820312 686.05078125 207.803710938 682.126953125 207.803710938 678.5625 c 0
 207.803710938 672.671875 227.357421875 667.760742188 227.357421875 667.760742188 c 1
 227.357421875 667.760742188 290.129882812 663.1328125 324.75390625 663.1328125 c 0
 333.416015625 663.1328125 340.318359375 663.422851562 344.03125 664.147460938 c 0
 345.856445312 664.501953125 348.247070312 664.665039062 351.100585938 664.665039062 c 0
 377.2578125 664.665039062 442.366210938 650.958007812 468.669921875 646.067382812 c 0
 497.83984375 640.643554688 532.3125 640.643554688 585.34375 637.024414062 c 0
 596.548828125 636.26171875 606.921875 635.982421875 616.567382812 635.982421875 c 0
 642.93359375 635.982421875 663.861328125 638.0703125 681.384765625 638.0703125 c 0
 687.803710938 638.0703125 693.765625 637.791015625 699.375 637.024414062 c 0
 725.890625 633.411132812 752.40625 622.559570312 818.703125 620.754882812 c 0
 885 618.9453125 903.5625 613.522460938 911.515625 597.247070312 c 0
 912.032226562 596.184570312 912.28125 595.208007812 912.28125 594.309570312 c 0
 912.28125 581.42578125 861.359375 584.47265625 826.65625 582.786132812 c 0
 794.12890625 581.201171875 781.958007812 571.288085938 740.206054688 571.288085938 c 0
 734.306640625 571.288085938 727.813476562 571.486328125 720.58984375 571.934570312 c 0
 715.374023438 572.2578125 710.435546875 572.408203125 705.736328125 572.408203125 c 0
 657.875 572.408203125 635.06640625 556.827148438 601.259765625 550.241210938 c 0
 564.134765625 543.0078125 471.322265625 532.161132812 436.84375 523.118164062 c 0
 402.375 514.081054688 320.169921875 506.848632812 245.919921875 501.424804688 c 0
 198.66796875 497.970703125 182.55859375 493.787109375 182.55859375 487.940429688 c 0
 182.55859375 484.599609375 187.8203125 480.71484375 195.53125 476.112304688 c 0
 203.9296875 471.103515625 215.646484375 469.776367188 228.715820312 469.776367188 c 0x8600018088e84c01808b5802
 243.459960938 469.776367188 259.922851562 471.466796875 275.271484375 471.466796875 c 0
 280.693359375 471.466796875 285.9765625 471.254882812 291 470.684570312 c 0
 314.293945312 468.040039062 408.62890625 466.360351562 468.961914062 466.360351562 c 0
 491.051757812 466.360351562 508.584960938 466.5859375 516.40234375 467.0703125 c 0
 518.70703125 467.213867188 520.865234375 467.27734375 522.904296875 467.27734375 c 0x8600010080e04c00808b5880
 540.095703125 467.27734375 549.124023438 462.745117188 570.32421875 462.745117188 c 0
 578.461914062 462.745117188 588.388671875 463.412109375 601.259765625 465.260742188 c 0
 613.166992188 466.970703125 621.66796875 467.669921875 628.090820312 467.669921875 c 0
 648.84765625 467.669921875 647.92578125 460.366210938 670.203125 456.223632812 c 0
 699.375 450.799804688 691.419921875 454.4140625 728.544921875 450.799804688 c 0
 765.669921875 447.180664062 789.53125 450.799804688 821.357421875 441.7578125 c 0
 830.009765625 439.298828125 844.15625 438.578125 860.755859375 438.578125 c 0
 884.232421875 438.578125 912.610351562 440.018554688 937.287109375 440.018554688 c 0
 959.318359375 440.018554688 978.404296875 438.87109375 988.419921875 434.524414062 c 0
 999.982421875 429.508789062 1011.96289062 427.900390625 1024.85546875 427.900390625 c 0x8600010080e04c04808bd801
 1044.484375 427.900390625 1066.22753906 431.625976562 1091.83984375 432.715820312 c 0
 1094.66894531 432.8359375 1097.42871094 432.892578125 1100.13867188 432.892578125 c 0
 1138.02832031 432.892578125 1165.91210938 421.868164062 1237.6875 421.868164062 c 0
 1314.58984375 421.868164062 1314.58984375 419.159179688 1343.75976562 406.502929688 c 0
 1351.890625 402.974609375 1363.21679688 402.326171875 1377.5390625 402.326171875 c 0
 1385.84277344 402.326171875 1395.15429688 402.545898438 1405.43261719 402.545898438 c 0
 1441.00390625 402.545898438 1488.16992188 399.936523438 1545.29492188 376.666992188 c 0
 1553.28808594 373.412109375 1561.97460938 372.271484375 1570.93457031 372.271484375 c 0
 1591.83984375 372.271484375 1614.23730469 378.4765625 1632.79980469 378.4765625 c 0
 1659.32226562 378.4765625 1715.00976562 380.286132812 1741.52734375 380.286132812 c 0
 1768.04492188 380.286132812 1839.640625 371.243164062 1863.50976562 367.629882812 c 0
 1866.88085938 367.118164062 1870.7265625 366.896484375 1874.9609375 366.896484375 c 0x8600010080e14c02a09b78
 1900.69921875 366.896484375 1940.72460938 375.118164062 1974.88476562 376.666992188 c 0
 1977.90917969 376.803710938 1981.06933594 376.869140625 1984.34863281 376.869140625 c 0
 2024.18066406 376.869140625 2081.12109375 367.354492188 2115.42480469 364.010742188 c 0
 2129.13378906 362.676757812 2154.41992188 362.327148438 2184.20117188 362.327148438 c 0
 2216.8125 362.327148438 2254.8125 362.745117188 2288.90429688 362.745117188 c 0
 2307.9765625 362.745117188 2325.82714844 362.615234375 2340.828125 362.206054688 c 0
 2389.078125 360.888671875 2399.40429688 354.786132812 2399.40429688 345.28515625 c 0
 2399.40429688 341.733398438 2397.95898438 337.704101562 2396.515625 333.274414062 c 0
 2392.84375 322.009765625 2348.48828125 320.27734375 2311.86523438 320.27734375 c 0
 2295.59863281 320.27734375 2280.85351562 320.618164062 2271.88476562 320.618164062 c 0
 2244.95898438 320.618164062 2218.03515625 311.377929688 2180.68066406 311.377929688 c 0
 2177.56640625 311.377929688 2174.37695312 311.442382812 2171.11230469 311.581054688 c 0
 2163.33496094 311.912109375 2155.82421875 312.061523438 2148.43652344 312.061523438 c 0
 2115.51367188 312.061523438 2084.97851562 309.108398438 2043.828125 306.153320312 c 0
 1993.44726562 302.5390625 1879.41992188 293.497070312 1826.38476562 288.073242188 c 0
 1813.51367188 286.7578125 1802.671875 286.29296875 1793.36816406 286.29296875 c 0
 1771.08789062 286.29296875 1757.62792969 288.955078125 1746.21777344 288.955078125 c 0
 1742.75976562 288.955078125 1739.48828125 288.7109375 1736.21875 288.073242188 c 0
 1733.38671875 287.522460938 1729.44238281 287.307617188 1724.68554688 287.307617188 c 0
 1707.9609375 287.307617188 1681.20898438 289.963867188 1657.56542969 289.963867188 c 0
 1643.890625 289.963867188 1631.25292969 289.075195312 1622.19726562 286.268554688 c 0
 1593.02734375 277.2265625 1460.4375 275.416992188 1412.703125 271.803710938 c 0
 1406.73242188 271.350585938 1401.21777344 271.15234375 1396.09277344 271.15234375 c 0
 1360.2421875 271.15234375 1343.421875 280.840820312 1322.54492188 280.840820312 c 0
 1298.67480469 280.840820312 1306.63476562 269.993164062 1277.46484375 269.993164062 c 0
 1248.29492188 269.993164062 1182 259.147460938 1134.265625 251.9140625 c 0
 1120.20898438 249.784179688 1109.83203125 249.065429688 1100.90039062 249.065429688 c 0x8600810085e05c40828b5c
 1082.36914062 249.065429688 1070.05664062 252.159179688 1044 252.159179688 c 0
 1039.96875 252.159179688 1035.60644531 252.084960938 1030.84375 251.9140625 c 0
 980.46484375 250.104492188 969.857421875 246.491210938 924.77734375 239.2578125 c 0
 879.697265625 232.024414062 611.862304688 221.178710938 590.65234375 219.368164062 c 0
 569.4375 217.559570312 452.759765625 210.331054688 418.28125 206.711914062 c 0
 383.8125 203.098632812 378.509765625 183.209960938 325.46875 183.209960938 c 0
 272.4375 183.209960938 174.322265625 150.6640625 147.799804688 127.161132812 c 0
 144.287109375 124.047851562 142.73046875 121.221679688 142.73046875 118.637695312 c 0
 142.73046875 101.70703125 209.649414062 95.2275390625 232.65625 87.3828125 c 0
 259.174804688 78.3408203125 277.737304688 78.3408203125 296.299804688 74.7265625 c 0
 314.862304688 71.1123046875 346.6875 62.0703125 386.46484375 62.0703125 c 0
 420.55078125 62.0703125 472.172851562 58.0869140625 502.9296875 58.0869140625 c 0
 508.060546875 58.0869140625 512.610351562 58.1982421875 516.40234375 58.4560546875 c 0
 520.020507812 58.7021484375 523.588867188 58.814453125 527.14453125 58.814453125 c 0
 549.62890625 58.814453125 571.486328125 54.34375 601.259765625 51.2236328125 c 0
 608.340820312 50.48046875 614.303710938 50.193359375 619.67578125 50.193359375 c 0x8600410180e04c00848b58
 637.4609375 50.193359375 648.774414062 53.3232421875 672.806640625 53.3232421875 c 0
 676.848632812 53.3232421875 681.25390625 53.234375 686.112304688 53.0283203125 c 0
 728.544921875 51.2236328125 765.669921875 42.1806640625 813.40234375 36.7578125 c 0
 829.712890625 34.9052734375 835.807617188 31.150390625 835.807617188 26.8662109375 c 0
 835.807617188 18.6162109375 813.19921875 8.400390625 797.487304688 6.0224609375 c 0
 773.625 2.4033203125 731.197265625 0.5986328125 709.982421875 -1.2109375 c 0
 688.765625 -3.0205078125 664.90234375 -1.2109375 638.384765625 -10.2529296875 c 0
 631.532226562 -12.587890625 624.149414062 -13.4755859375 616.69140625 -13.4755859375 c 0
 595.2890625 -13.4755859375 573.278320312 -6.166015625 561.482421875 -4.8251953125 c 0
 560.421875 -4.705078125 559.209960938 -4.6484375 557.866210938 -4.6484375 c 0
 538.994140625 -4.6484375 493.772460938 -15.6767578125 473.96875 -15.6767578125 c 0
 452.759765625 -15.6767578125 386.46484375 -30.1376953125 367.90234375 -37.3701171875 c 0
 349.33984375 -44.6025390625 328.125 -48.2216796875 306.90625 -50.0263671875 c 0
 285.697265625 -51.8359375 203.487304688 -53.6455078125 158.40625 -57.2587890625 c 0
 113.328125 -60.8779296875 108.02734375 -59.0693359375 100.072265625 -73.5341796875 c 0
 99.3232421875 -74.8935546875 98.9736328125 -76.1083984375 98.9736328125 -77.203125 c 0
 98.9736328125 -87.7353515625 131.479492188 -86.8701171875 153.107421875 -93.4189453125 c 0
 166.301757812 -97.41796875 192.471679688 -98.654296875 225.337890625 -98.654296875 c 0
 251.908203125 -98.654296875 282.85546875 -97.845703125 314.862304688 -97.0380859375 c 0
 319.55078125 -96.9189453125 324.012695312 -96.8623046875 328.265625 -96.8623046875 c 0
 388.951171875 -96.8623046875 407.109375 -108.357421875 436.84375 -115.1171875 c 0
 468.669921875 -122.350585938 558.828125 -115.1171875 585.34375 -127.7734375 c 0
 595.115234375 -132.436523438 601.643554688 -133.908203125 607.455078125 -133.908203125 c 0
 617.416015625 -133.908203125 625.263671875 -129.583007812 643.6875 -129.583007812 c 0
 672.857421875 -129.583007812 712.634765625 -133.196289062 728.544921875 -140.4296875 c 0
 735.265625 -143.486328125 745.779296875 -144.60546875 758.078125 -144.60546875 c 0x86000b0080e04c00808b5804
 774.881835938 -144.60546875 795.025390625 -142.516601562 813.40234375 -140.4296875 c 0
 817.24609375 -139.994140625 821.127929688 -139.79296875 825.024414062 -139.79296875 c 0
 853.392578125 -139.79296875 882.580078125 -150.345703125 903.5625 -156.700195312 c 0
 910.157226562 -158.698242188 915.944335938 -159.317382812 922.09765625 -159.317382812 c 0
 932.048828125 -159.317382812 942.95703125 -157.702148438 959.798828125 -157.702148438 c 0
 970.213867188 -157.702148438 982.8984375 -158.319335938 999.02734375 -160.319335938 c 0
 1057.36230469 -167.551757812 1081.23242188 -165.7421875 1081.23242188 -183.821289062 c 0
 1081.23242188 -201.901367188 1020.23730469 -196.477539062 996.375 -200.096679688 c 0
 972.509765625 -203.7109375 940.6875 -201.901367188 900.90625 -207.325195312 c 0
 879.90625 -210.19140625 852.963867188 -210.649414062 828.319335938 -210.649414062 c 0
 816.739257812 -210.649414062 805.666015625 -210.548828125 795.953125 -210.548828125 c 0
 787.192382812 -210.548828125 779.541015625 -210.630859375 773.625 -210.944335938 c 0
 704.674804688 -214.557617188 627.77734375 -214.557617188 606.5625 -216.3671875 c 0
 585.34375 -218.176757812 513.75 -223.600585938 497.83984375 -223.600585938 c 0
 481.924804688 -223.600585938 431.544921875 -225.409179688 431.544921875 -234.446289062 c 0
 431.544921875 -242.439453125 451.215820312 -248.80078125 451.215820312 -261.595703125 c 0
 451.215820312 -263.278320312 450.875 -265.0703125 450.107421875 -266.9921875 c 0
 447.484375 -273.538085938 419.573242188 -276.166992188 393.243164062 -276.166992188 c 0x8738250080e04c00808b58
 379.583984375 -276.166992188 366.3515625 -275.459960938 357.294921875 -274.225585938 c 0
 354.060546875 -273.783203125 350.985351562 -273.584960938 348.033203125 -273.584960938 c 0
 326.778320312 -273.584960938 311.951171875 -283.923828125 291 -288.690429688 c 0
 267.134765625 -294.114257812 195.53125 -299.538085938 166.362304688 -301.346679688 c 0
 137.197265625 -303.151367188 123.9375 -315.807617188 65.59375 -315.807617188 c 0
 7.259765625 -315.807617188 -80.25 -326.659179688 -82.90625 -342.9296875 c 0
 -82.99609375 -343.485351562 -83.041015625 -344.0234375 -83.041015625 -344.544921875 c 0
 -83.041015625 -359.323242188 -47.7939453125 -361.071289062 -29.865234375 -362.819335938 c 0
 -11.302734375 -364.627929688 31.125 -361.008789062 41.732421875 -370.051757812 c 0
 52.33984375 -379.088867188 73.5498046875 -377.284179688 100.072265625 -380.8984375 c 0
 126.58984375 -384.512695312 153.107421875 -391.745117188 192.884765625 -398.977539062 c 0
 232.65625 -406.2109375 235.3125 -415.252929688 259.174804688 -422.481445312 c 0
 267.864257812 -425.114257812 279.404296875 -425.80859375 293.111328125 -425.80859375 c 0
 308.374023438 -425.80859375 326.321289062 -424.948242188 346.014648438 -424.948242188 c 0
 357.220703125 -424.948242188 368.9921875 -425.2265625 381.15625 -426.100585938 c 0
 394.040039062 -427.026367188 401.72265625 -433.858398438 401.72265625 -440.6796875 c 0
 401.72265625 -447.198242188 394.706054688 -453.703125 378.509765625 -455.026367188 c 2
 378.509765625 -455.026367188 272.4375 -458.645507812 245.919921875 -464.069335938 c 0
 229.110351562 -467.506835938 229.348632812 -468.765625 216.916992188 -468.765625 c 0
 209.737304688 -468.765625 198.330078125 -468.345703125 176.96875 -467.682617188 c 0
 172.697265625 -467.549804688 168.682617188 -467.486328125 164.883789062 -467.486328125 c 0xae80010080e04c00808b58
 116.825195312 -467.486328125 103.75390625 -477.784179688 49.6875 -491.190429688 c 0
 16.3388671875 -499.456054688 -19.60546875 -500.044921875 -50.720703125 -500.044921875 c 0
 -55.888671875 -500.044921875 -60.923828125 -500.029296875 -65.7939453125 -500.029296875 c 0
 -82.8916015625 -500.029296875 -97.92578125 -500.229492188 -109.421875 -502.038085938 c 0
 -143.892578125 -507.4609375 -210.1875 -523.731445312 -244.66015625 -529.159179688 c 0
 -279.137695312 -534.583007812 -403.767578125 -534.583007812 -403.767578125 -534.583007812 c 1
EndSplineSet
EndChar

